<svg width="158" height="91" viewBox="0 0 158 91" fill="none" xmlns="http://www.w3.org/2000/svg">
<path d="M47.0361 12.3862C45.6623 11.9873 44.0199 12.6026 43.3676 13.7606C42.7154 14.9186 43.3003 16.1807 44.6741 16.5797L47.0361 12.3862ZM60.5214 18.909L59.2674 20.9835L59.2674 20.9835L60.5214 18.909ZM65.8637 20.7031L64.5338 22.7521L64.5338 22.7521L65.8637 20.7031ZM120.757 46.9908L122.595 45.1848L122.595 45.1848L120.757 46.9908ZM109.42 40.3458L107.702 42.2221L109.42 40.3458ZM144.244 75.1661C143.55 76.0415 141.558 77.0368 136.928 77.2021C132.516 77.3596 126.617 76.7139 119.581 75.2552C105.551 72.3463 87.5866 66.331 69.0713 57.868L65.9651 61.7861C84.7391 70.3674 103.104 76.5405 117.666 79.5594C124.926 81.0646 131.39 81.8176 136.558 81.6331C141.509 81.4563 146.315 80.3686 148.792 77.2447L144.244 75.1661ZM69.0713 57.868C50.556 49.405 35.1473 40.1664 25.1949 32.113C20.2042 28.0745 16.692 24.4189 14.8102 21.3844C12.8358 18.2006 13.0614 16.3976 13.7554 15.5222L9.20793 13.4436C6.73135 16.5676 7.71508 20.3018 9.82657 23.7067C12.0307 27.2609 15.9323 31.2457 21.0821 35.4129C31.411 43.7709 47.1911 53.2049 65.9651 61.7861L69.0713 57.868ZM44.6741 16.5797C46.3722 17.0728 57.6361 20.4618 59.2674 20.9835L61.7753 16.8345C60.0749 16.2908 48.7563 12.8857 47.0361 12.3862L44.6741 16.5797ZM59.2674 20.9835C61.0332 21.5482 62.7829 22.136 64.5338 22.7521L67.1936 18.6541C65.3936 18.0208 63.5934 17.4159 61.7753 16.8345L59.2674 20.9835ZM64.5338 22.7521C72.1471 25.4307 79.796 28.646 88.9285 32.8203L92.0347 28.9022C82.8283 24.6941 75.0199 21.4077 67.1936 18.6541L64.5338 22.7521ZM118.919 48.7968C128.549 54.8403 135.901 60.6317 140.281 65.5158C142.478 67.9656 143.835 70.0862 144.418 71.8124C145.005 73.5519 144.713 74.5746 144.244 75.1661L148.792 77.2447C150.522 75.0617 150.539 72.5698 149.745 70.2169C148.946 67.8507 147.232 65.3012 144.868 62.6654C140.126 57.3784 132.398 51.3371 122.595 45.1848L118.919 48.7968ZM88.9285 32.8203C95.6243 35.8808 101.92 39.0456 107.702 42.2221L111.138 38.4695C105.246 35.2326 98.84 32.0128 92.0347 28.9022L88.9285 32.8203ZM107.702 42.2221C111.701 44.4194 115.453 46.6212 118.919 48.7968L122.595 45.1848C119.045 42.9573 115.213 40.7088 111.138 38.4695L107.702 42.2221Z" fill="#FF9400"/>
<circle cx="28.6635" cy="12.8285" r="9.00895" stroke="#FF9400" stroke-width="5"/>
<circle cx="79.2433" cy="46.0409" r="24.2517" fill="#2EAADC" stroke="#2EAADC" stroke-width="30.0749"/>
<path d="M13.7554 15.5222C14.6132 14.4402 14.2905 13.0978 13.0348 12.5239C11.779 11.9499 10.0657 12.3617 9.20795 13.4436L13.7554 15.5222ZM144.244 75.1661C143.55 76.0415 141.558 77.0368 136.928 77.2021C132.516 77.3596 126.617 76.7139 119.582 75.2552C105.551 72.3463 87.5866 66.331 69.0713 57.868L65.9651 61.7861C84.7391 70.3673 103.104 76.5405 117.666 79.5594C124.926 81.0646 131.39 81.8176 136.558 81.6331C141.509 81.4563 146.315 80.3686 148.792 77.2447L144.244 75.1661ZM69.0713 57.868C50.556 49.405 35.1473 40.1664 25.1949 32.113C20.2042 28.0745 16.692 24.4189 14.8102 21.3844C12.8358 18.2006 13.0614 16.3976 13.7554 15.5222L9.20795 13.4436C6.73137 16.5676 7.7151 20.3018 9.82659 23.7067C12.0307 27.2609 15.9323 31.2457 21.0821 35.4129C31.411 43.7709 47.1911 53.2049 65.9651 61.7861L69.0713 57.868Z" fill="#FF9400"/>
</svg>
