<svg width="86" height="70" viewBox="0 0 86 70" fill="none" xmlns="http://www.w3.org/2000/svg">
<path d="M13.9901 65.8734C13.9901 66.7997 13.6582 67.5561 12.9943 68.1428C12.3305 68.714 11.0955 68.9996 9.28927 68.9996C7.48304 68.9996 6.25574 68.714 5.60735 68.1428C4.95896 67.5561 4.63477 66.7997 4.63477 65.8734V59.0422C4.63477 58.1159 4.95896 57.3672 5.60735 56.796C6.25574 56.2093 7.48304 55.916 9.28927 55.916C11.0955 55.916 12.3305 56.2093 12.9943 56.796C13.6582 57.3672 13.9901 58.1159 13.9901 59.0422V65.8734ZM4.86633 65.8734C4.86633 66.7379 5.17509 67.4404 5.7926 67.9807C6.41012 68.5056 7.57567 68.768 9.28927 68.768C11.0029 68.768 12.1761 68.5056 12.8091 67.9807C13.442 67.4404 13.7585 66.7379 13.7585 65.8734V59.0422C13.7585 58.1777 13.442 57.483 12.8091 56.9581C12.1761 56.4177 11.0029 56.1476 9.28927 56.1476C7.57567 56.1476 6.41012 56.4177 5.7926 56.9581C5.17509 57.483 4.86633 58.1777 4.86633 59.0422V65.8734Z" fill="black"/>
<path d="M29.0722 56.1939V56.4255H23.9314C23.283 56.4255 22.7658 56.603 22.3799 56.9581C21.9939 57.3131 21.801 57.7608 21.801 58.3012V60.2C21.801 60.7403 21.909 61.1186 22.1252 61.3347C22.3413 61.5508 22.6269 61.6898 22.982 61.7515L27.868 62.7473C28.3312 62.8399 28.7094 63.0406 29.0027 63.3493C29.3115 63.6581 29.4659 64.2138 29.4659 65.0166V66.3597C29.4659 67.039 29.2343 67.6025 28.7711 68.0501C28.308 68.4824 27.6828 68.6985 26.8955 68.6985H21.1294V68.467H26.8955C27.6056 68.467 28.1691 68.274 28.5859 67.8881C29.0182 67.4867 29.2343 66.9772 29.2343 66.3597V65.0166C29.2343 64.291 29.1031 63.797 28.8406 63.5346C28.5936 63.2567 28.254 63.0714 27.8217 62.9788L22.9356 61.9831C22.5343 61.9059 22.2024 61.7515 21.9399 61.5199C21.6929 61.2729 21.5694 60.833 21.5694 60.2V58.3012C21.5694 57.6836 21.7855 57.1819 22.2178 56.796C22.65 56.3946 23.2212 56.1939 23.9314 56.1939H29.0722Z" fill="black"/>
<path d="M59.092 61.8673C59.3699 61.8673 59.5706 61.8055 59.6941 61.682C59.8176 61.5585 60.0106 61.2961 60.273 60.8947L63.0981 56.5876C63.1907 56.4332 63.2911 56.3328 63.3992 56.2865C63.5227 56.2248 63.6462 56.1939 63.7697 56.1939H64.1633C64.3795 56.1939 64.5338 56.2556 64.6265 56.3792C64.7345 56.4872 64.7886 56.6648 64.7886 56.9118V68.6985H64.557V56.9118C64.557 56.7883 64.5261 56.6802 64.4644 56.5876C64.4181 56.4795 64.3177 56.4255 64.1633 56.4255H63.816C63.7079 56.4255 63.6153 56.4409 63.5381 56.4718C63.4609 56.5027 63.376 56.5953 63.2834 56.7497L60.4583 61.0105C60.1804 61.4273 59.9642 61.7129 59.8099 61.8673C59.6709 62.0217 59.4316 62.0989 59.092 62.0989C58.7524 62.0989 58.5054 62.0217 58.351 61.8673C58.212 61.7129 58.0036 61.4273 57.7258 61.0105L54.9006 56.7497C54.808 56.5953 54.7154 56.5027 54.6228 56.4718C54.5456 56.4409 54.4529 56.4255 54.3449 56.4255H53.9975C53.8431 56.4255 53.7428 56.4795 53.6965 56.5876C53.6502 56.6802 53.627 56.7883 53.627 56.9118V68.6985H53.3954V56.9118C53.3954 56.6648 53.4418 56.4872 53.5344 56.3792C53.6425 56.2556 53.7968 56.1939 53.9975 56.1939H54.3912C54.5147 56.1939 54.6382 56.2248 54.7617 56.2865C54.8852 56.3328 54.9933 56.4332 55.0859 56.5876L57.911 60.8947C58.1735 61.2961 58.3664 61.5585 58.4899 61.682C58.6134 61.8055 58.8141 61.8673 59.092 61.8673Z" fill="black"/>
<path d="M73.1165 68.6985V56.1939H73.3481V68.467H81.4066V63.9051H81.6382V68.6985H73.1165Z" fill="black"/>
<path d="M13.9901 65.8734C13.9901 66.7997 13.6582 67.5561 12.9943 68.1428C12.3305 68.714 11.0955 68.9996 9.28927 68.9996C7.48304 68.9996 6.25574 68.714 5.60735 68.1428C4.95896 67.5561 4.63477 66.7997 4.63477 65.8734V59.0422C4.63477 58.1159 4.95896 57.3672 5.60735 56.796C6.25574 56.2093 7.48304 55.916 9.28927 55.916C11.0955 55.916 12.3305 56.2093 12.9943 56.796C13.6582 57.3672 13.9901 58.1159 13.9901 59.0422V65.8734ZM4.86633 65.8734C4.86633 66.7379 5.17509 67.4404 5.7926 67.9807C6.41012 68.5056 7.57567 68.768 9.28927 68.768C11.0029 68.768 12.1761 68.5056 12.8091 67.9807C13.442 67.4404 13.7585 66.7379 13.7585 65.8734V59.0422C13.7585 58.1777 13.442 57.483 12.8091 56.9581C12.1761 56.4177 11.0029 56.1476 9.28927 56.1476C7.57567 56.1476 6.41012 56.4177 5.7926 56.9581C5.17509 57.483 4.86633 58.1777 4.86633 59.0422V65.8734Z" stroke="#0011F2" stroke-width="1.62503" stroke-linejoin="round"/>
<path d="M29.0722 56.1939V56.4255H23.9314C23.283 56.4255 22.7658 56.603 22.3799 56.9581C21.9939 57.3131 21.801 57.7608 21.801 58.3012V60.2C21.801 60.7403 21.909 61.1186 22.1252 61.3347C22.3413 61.5508 22.6269 61.6898 22.982 61.7515L27.868 62.7473C28.3312 62.8399 28.7094 63.0406 29.0027 63.3493C29.3115 63.6581 29.4659 64.2138 29.4659 65.0166V66.3597C29.4659 67.039 29.2343 67.6025 28.7711 68.0501C28.308 68.4824 27.6828 68.6985 26.8955 68.6985H21.1294V68.467H26.8955C27.6056 68.467 28.1691 68.274 28.5859 67.8881C29.0182 67.4867 29.2343 66.9772 29.2343 66.3597V65.0166C29.2343 64.291 29.1031 63.797 28.8406 63.5346C28.5936 63.2567 28.254 63.0714 27.8217 62.9788L22.9356 61.9831C22.5343 61.9059 22.2024 61.7515 21.9399 61.5199C21.6929 61.2729 21.5694 60.833 21.5694 60.2V58.3012C21.5694 57.6836 21.7855 57.1819 22.2178 56.796C22.65 56.3946 23.2212 56.1939 23.9314 56.1939H29.0722Z" stroke="#0011F2" stroke-width="1.62503" stroke-linejoin="round"/>
<path d="M59.092 61.8673C59.3699 61.8673 59.5706 61.8055 59.6941 61.682C59.8176 61.5585 60.0106 61.2961 60.273 60.8947L63.0981 56.5876C63.1907 56.4332 63.2911 56.3328 63.3992 56.2865C63.5227 56.2248 63.6462 56.1939 63.7697 56.1939H64.1633C64.3795 56.1939 64.5338 56.2556 64.6265 56.3792C64.7345 56.4872 64.7886 56.6648 64.7886 56.9118V68.6985H64.557V56.9118C64.557 56.7883 64.5261 56.6802 64.4644 56.5876C64.4181 56.4795 64.3177 56.4255 64.1633 56.4255H63.816C63.7079 56.4255 63.6153 56.4409 63.5381 56.4718C63.4609 56.5027 63.376 56.5953 63.2834 56.7497L60.4583 61.0105C60.1804 61.4273 59.9642 61.7129 59.8099 61.8673C59.6709 62.0217 59.4316 62.0989 59.092 62.0989C58.7524 62.0989 58.5054 62.0217 58.351 61.8673C58.212 61.7129 58.0036 61.4273 57.7258 61.0105L54.9006 56.7497C54.808 56.5953 54.7154 56.5027 54.6228 56.4718C54.5456 56.4409 54.4529 56.4255 54.3449 56.4255H53.9975C53.8431 56.4255 53.7428 56.4795 53.6965 56.5876C53.6502 56.6802 53.627 56.7883 53.627 56.9118V68.6985H53.3954V56.9118C53.3954 56.6648 53.4418 56.4872 53.5344 56.3792C53.6425 56.2556 53.7968 56.1939 53.9975 56.1939H54.3912C54.5147 56.1939 54.6382 56.2248 54.7617 56.2865C54.8852 56.3328 54.9933 56.4332 55.0859 56.5876L57.911 60.8947C58.1735 61.2961 58.3664 61.5585 58.4899 61.682C58.6134 61.8055 58.8141 61.8673 59.092 61.8673Z" stroke="#0011F2" stroke-width="1.62503" stroke-linejoin="round"/>
<path d="M73.1165 68.6985V56.1939H73.3481V68.467H81.4066V63.9051H81.6382V68.6985H73.1165Z" stroke="#0011F2" stroke-width="1.62503" stroke-linejoin="round"/>
<path d="M45.0131 68.698V64.5993H39.4786C38.5986 64.5993 37.9503 64.3986 37.5334 63.9972C37.1166 63.5804 36.9082 62.9706 36.9082 62.1678V56.1934H37.1398V62.1678C37.1398 62.9088 37.3327 63.4646 37.7187 63.8351C38.1046 64.1902 38.6913 64.3677 39.4786 64.3677H45.0131V56.1934H45.2446V68.698H45.0131Z" fill="black" stroke="#FFDA3E" stroke-width="1.62503" stroke-linejoin="round"/>
<path d="M25.3849 6.74639C24.6779 6.54109 23.8326 6.85778 23.497 7.45372C23.1613 8.04967 23.4623 8.69921 24.1693 8.90451L25.3849 6.74639ZM32.7016 10.217L33.347 9.14936L32.7016 10.217ZM35.5882 11.1863L34.9038 12.2408L35.5882 11.1863ZM65.2483 25.3902L66.194 24.4607L66.194 24.4607L65.2483 25.3902ZM59.1225 21.7998L60.0066 20.8342L59.1225 21.7998ZM77.9975 40.6407C77.5996 41.1425 76.4868 41.6815 73.9812 41.7709C71.5874 41.8564 68.3931 41.5061 64.5886 40.7174C57.0006 39.1442 47.289 35.892 37.2815 31.3177L35.6829 33.3341C45.8236 37.9692 55.7416 41.3027 63.6027 42.9325C67.5227 43.7452 71.0079 44.1507 73.7907 44.0513C76.4617 43.9559 79.0225 43.3694 80.3378 41.7104L77.9975 40.6407ZM37.2815 31.3177C27.2739 26.7435 18.9435 21.7491 13.5611 17.3938C10.8625 15.21 8.95978 13.2306 7.93886 11.5843C6.87028 9.86117 6.97665 8.86218 7.37453 8.3603L5.03423 7.29059C3.71897 8.94965 4.23497 10.9425 5.37409 12.7794C6.56089 14.6932 8.66399 16.842 11.4445 19.092C17.0206 23.6041 25.5422 28.699 35.6829 33.3341L37.2815 31.3177ZM24.1693 8.90451C25.0872 9.17104 31.174 11.0024 32.0563 11.2846L33.347 9.14936C32.4291 8.85583 26.3141 7.01621 25.3849 6.74639L24.1693 8.90451ZM32.0563 11.2846C33.0111 11.5899 33.9571 11.9077 34.9038 12.2408L36.2726 10.1318C35.3007 9.78989 34.3286 9.46327 33.347 9.14936L32.0563 11.2846ZM34.9038 12.2408C39.0202 13.6891 43.1551 15.4273 48.0906 17.6832L49.6891 15.6668C44.7157 13.3936 40.4986 11.6187 36.2726 10.1318L34.9038 12.2408ZM64.3026 26.3196C69.5081 29.5864 73.4852 32.7189 75.8566 35.3631C77.0459 36.6891 77.7838 37.8405 78.1014 38.7814C78.4213 39.7291 78.2671 40.3006 77.9975 40.6407L80.3378 41.7104C81.2567 40.5513 81.2693 39.2237 80.8428 37.9603C80.4141 36.69 79.4923 35.318 78.2172 33.8962C75.6598 31.0446 71.4887 27.7836 66.194 24.4607L64.3026 26.3196ZM48.0906 17.6832C51.7098 19.3375 55.1129 21.0482 58.2383 22.7654L60.0066 20.8342C56.8246 19.0859 53.3648 17.3469 49.6891 15.6668L48.0906 17.6832ZM58.2383 22.7654C60.4003 23.9532 62.4284 25.1435 64.3026 26.3196L66.194 24.4607C64.2773 23.2579 62.2079 22.0435 60.0066 20.8342L58.2383 22.7654Z" fill="#FFDA3E"/>
<circle cx="15.4881" cy="6.93144" r="5.04717" stroke="#FFDA3E" stroke-width="2.34276"/>
<circle cx="42.8167" cy="24.8773" r="15.868" fill="#0011F2" stroke="#0011F2" stroke-width="10.7216"/>
<path d="M7.37328 8.36005C7.81471 7.80323 7.64866 7.11238 7.00241 6.81699C6.35615 6.5216 5.4744 6.73353 5.03297 7.29034L7.37328 8.36005ZM77.9962 40.6404C77.5984 41.1423 76.4855 41.6812 73.9799 41.7707C71.5861 41.8562 68.3919 41.5059 64.5873 40.7171C56.9993 39.144 47.2878 35.8917 37.2802 31.3175L35.6817 33.3339C45.8223 37.969 55.7404 41.3025 63.6015 42.9322C67.5215 43.7449 71.0067 44.1504 73.7894 44.051C76.4604 43.9557 79.0213 43.3692 80.3365 41.7101L77.9962 40.6404ZM37.2802 31.3175C27.2727 26.7432 18.9422 21.7488 13.5599 17.3935C10.8612 15.2098 8.95852 13.2303 7.93761 11.5841C6.86902 9.86091 6.9754 8.86193 7.37328 8.36005L5.03297 7.29034C3.71771 8.9494 4.23371 10.9423 5.37284 12.7792C6.55964 14.693 8.66274 16.8418 11.4433 19.0918C17.0194 23.6039 25.541 28.6988 35.6817 33.3339L37.2802 31.3175Z" fill="#FFDA3E"/>
</svg>
