<svg width="280" height="239" viewBox="0 0 280 239" fill="none" xmlns="http://www.w3.org/2000/svg">
<path d="M56.2423 209.781C56.2423 212.379 55.3113 214.501 53.4492 216.147C51.5871 217.749 48.1228 218.55 43.0562 218.55C37.9896 218.55 34.5469 217.749 32.7282 216.147C30.9094 214.501 30 212.379 30 209.781V190.619C30 188.02 30.9094 185.92 32.7282 184.318C34.5469 182.672 37.9896 181.85 43.0562 181.85C48.1228 181.85 51.5871 182.672 53.4492 184.318C55.3113 185.92 56.2423 188.02 56.2423 190.619V209.781ZM30.6496 209.781C30.6496 212.206 31.5156 214.176 33.2478 215.692C34.98 217.164 38.2494 217.9 43.0562 217.9C47.863 217.9 51.1541 217.164 52.9296 215.692C54.705 214.176 55.5928 212.206 55.5928 209.781V190.619C55.5928 188.194 54.705 186.245 52.9296 184.773C51.1541 183.257 47.863 182.499 43.0562 182.499C38.2494 182.499 34.98 183.257 33.2478 184.773C31.5156 186.245 30.6496 188.194 30.6496 190.619V209.781Z" fill="black"/>
<path d="M98.5487 182.629V183.279H84.1284C82.3096 183.279 80.8589 183.777 79.7763 184.773C78.6937 185.769 78.1524 187.024 78.1524 188.54V193.867C78.1524 195.382 78.4555 196.443 79.0618 197.049C79.6681 197.656 80.4692 198.045 81.4652 198.219L95.171 201.012C96.4701 201.272 97.531 201.834 98.3538 202.701C99.2199 203.567 99.6529 205.126 99.6529 207.377V211.145C99.6529 213.05 99.0034 214.631 97.7043 215.887C96.4051 217.099 94.6513 217.705 92.4428 217.705H76.2687V217.056H92.4428C94.4348 217.056 96.0154 216.515 97.1846 215.432C98.3971 214.306 99.0034 212.877 99.0034 211.145V207.377C99.0034 205.342 98.6353 203.956 97.8991 203.22C97.2063 202.441 96.2536 201.921 95.041 201.661L81.3353 198.868C80.2094 198.652 79.2783 198.219 78.5421 197.569C77.8493 196.876 77.5028 195.642 77.5028 193.867V188.54C77.5028 186.808 78.1091 185.401 79.3216 184.318C80.5341 183.192 82.1364 182.629 84.1284 182.629H98.5487Z" fill="black"/>
<path d="M182.756 198.543C183.536 198.543 184.099 198.37 184.445 198.024C184.792 197.677 185.333 196.941 186.069 195.815L193.994 183.733C194.254 183.3 194.535 183.019 194.838 182.889C195.185 182.716 195.531 182.629 195.878 182.629H196.982C197.588 182.629 198.021 182.802 198.281 183.149C198.584 183.452 198.736 183.95 198.736 184.643V217.705H198.086V184.643C198.086 184.296 197.999 183.993 197.826 183.733C197.696 183.43 197.415 183.279 196.982 183.279H196.007C195.704 183.279 195.445 183.322 195.228 183.409C195.011 183.495 194.773 183.755 194.514 184.188L186.589 196.14C185.809 197.309 185.203 198.11 184.77 198.543C184.38 198.976 183.709 199.193 182.756 199.193C181.804 199.193 181.111 198.976 180.678 198.543C180.288 198.11 179.703 197.309 178.924 196.14L170.999 184.188C170.739 183.755 170.48 183.495 170.22 183.409C170.003 183.322 169.743 183.279 169.44 183.279H168.466C168.033 183.279 167.751 183.43 167.622 183.733C167.492 183.993 167.427 184.296 167.427 184.643V217.705H166.777V184.643C166.777 183.95 166.907 183.452 167.167 183.149C167.47 182.802 167.903 182.629 168.466 182.629H169.57C169.917 182.629 170.263 182.716 170.61 182.889C170.956 183.019 171.259 183.3 171.519 183.733L179.444 195.815C180.18 196.941 180.721 197.677 181.068 198.024C181.414 198.37 181.977 198.543 182.756 198.543Z" fill="black"/>
<path d="M222.096 217.705V182.629H222.746V217.056H245.35V204.26H246V217.705H222.096Z" fill="black"/>
<path d="M56.2423 209.781C56.2423 212.379 55.3113 214.501 53.4492 216.147C51.5871 217.749 48.1228 218.55 43.0562 218.55C37.9896 218.55 34.5469 217.749 32.7282 216.147C30.9094 214.501 30 212.379 30 209.781V190.619C30 188.02 30.9094 185.92 32.7282 184.318C34.5469 182.672 37.9896 181.85 43.0562 181.85C48.1228 181.85 51.5871 182.672 53.4492 184.318C55.3113 185.92 56.2423 188.02 56.2423 190.619V209.781ZM30.6496 209.781C30.6496 212.206 31.5156 214.176 33.2478 215.692C34.98 217.164 38.2494 217.9 43.0562 217.9C47.863 217.9 51.1541 217.164 52.9296 215.692C54.705 214.176 55.5928 212.206 55.5928 209.781V190.619C55.5928 188.194 54.705 186.245 52.9296 184.773C51.1541 183.257 47.863 182.499 43.0562 182.499C38.2494 182.499 34.98 183.257 33.2478 184.773C31.5156 186.245 30.6496 188.194 30.6496 190.619V209.781Z" stroke="#2EAADC" stroke-width="4.55834" stroke-linejoin="round"/>
<path d="M98.5487 182.629V183.279H84.1284C82.3096 183.279 80.8589 183.777 79.7763 184.773C78.6937 185.769 78.1524 187.024 78.1524 188.54V193.867C78.1524 195.382 78.4555 196.443 79.0618 197.049C79.6681 197.656 80.4692 198.045 81.4652 198.219L95.171 201.012C96.4701 201.272 97.531 201.834 98.3538 202.701C99.2199 203.567 99.6529 205.126 99.6529 207.377V211.145C99.6529 213.05 99.0034 214.631 97.7043 215.887C96.4051 217.099 94.6513 217.705 92.4428 217.705H76.2687V217.056H92.4428C94.4348 217.056 96.0154 216.515 97.1846 215.432C98.3971 214.306 99.0034 212.877 99.0034 211.145V207.377C99.0034 205.342 98.6353 203.956 97.8991 203.22C97.2063 202.441 96.2536 201.921 95.041 201.661L81.3353 198.868C80.2094 198.652 79.2783 198.219 78.5421 197.569C77.8493 196.876 77.5028 195.642 77.5028 193.867V188.54C77.5028 186.808 78.1091 185.401 79.3216 184.318C80.5341 183.192 82.1364 182.629 84.1284 182.629H98.5487Z" stroke="#2EAADC" stroke-width="4.55834" stroke-linejoin="round"/>
<path d="M182.756 198.543C183.536 198.543 184.099 198.37 184.445 198.024C184.792 197.677 185.333 196.941 186.069 195.815L193.994 183.733C194.254 183.3 194.535 183.019 194.838 182.889C195.185 182.716 195.531 182.629 195.878 182.629H196.982C197.588 182.629 198.021 182.802 198.281 183.149C198.584 183.452 198.736 183.95 198.736 184.643V217.705H198.086V184.643C198.086 184.296 197.999 183.993 197.826 183.733C197.696 183.43 197.415 183.279 196.982 183.279H196.007C195.704 183.279 195.445 183.322 195.228 183.409C195.011 183.495 194.773 183.755 194.514 184.188L186.589 196.14C185.809 197.309 185.203 198.11 184.77 198.543C184.38 198.976 183.709 199.193 182.756 199.193C181.804 199.193 181.111 198.976 180.678 198.543C180.288 198.11 179.703 197.309 178.924 196.14L170.999 184.188C170.739 183.755 170.48 183.495 170.22 183.409C170.003 183.322 169.743 183.279 169.44 183.279H168.466C168.033 183.279 167.751 183.43 167.622 183.733C167.492 183.993 167.427 184.296 167.427 184.643V217.705H166.777V184.643C166.777 183.95 166.907 183.452 167.167 183.149C167.47 182.802 167.903 182.629 168.466 182.629H169.57C169.917 182.629 170.263 182.716 170.61 182.889C170.956 183.019 171.259 183.3 171.519 183.733L179.444 195.815C180.18 196.941 180.721 197.677 181.068 198.024C181.414 198.37 181.977 198.543 182.756 198.543Z" stroke="#2EAADC" stroke-width="4.55834" stroke-linejoin="round"/>
<path d="M222.096 217.705V182.629H222.746V217.056H245.35V204.26H246V217.705H222.096Z" stroke="#2EAADC" stroke-width="4.55834" stroke-linejoin="round"/>
<path d="M143.264 217.705V206.208H127.739C125.271 206.208 123.452 205.645 122.283 204.519C121.114 203.35 120.529 201.639 120.529 199.388V182.629H121.179V199.388C121.179 201.466 121.72 203.025 122.803 204.064C123.885 205.06 125.531 205.558 127.739 205.558H143.264V182.629H143.913V217.705H143.264Z" fill="black" stroke="#FF9400" stroke-width="4.55834" stroke-linejoin="round"/>
<path d="M88.2048 43.9241C86.2217 43.3482 83.8507 44.2365 82.9091 45.9082C81.9675 47.5799 82.8119 49.4019 84.7951 49.9778L88.2048 43.9241ZM108.729 53.6593L106.919 56.654L108.729 53.6593ZM116.826 56.3785L118.746 53.4205L116.826 56.3785ZM200.025 96.2213L202.677 93.6141L202.677 93.6141L200.025 96.2213ZM182.841 86.1498L180.361 88.8584L182.841 86.1498ZM235.787 139C234.671 140.408 231.549 141.919 224.521 142.17C217.806 142.41 208.846 141.428 198.174 139.215C176.889 134.802 149.647 125.68 121.576 112.848L117.091 118.505C145.537 131.506 173.358 140.857 195.409 145.429C206.404 147.708 216.181 148.846 223.986 148.567C231.479 148.299 238.662 146.654 242.352 142.001L235.787 139ZM121.576 112.848C93.5037 100.017 70.1362 86.0077 55.0384 73.7907C47.4684 67.6652 42.1312 62.1127 39.2675 57.4948C36.27 52.6613 36.5684 49.8591 37.6845 48.4512L31.1198 45.4506C27.4304 50.1044 28.8778 55.6946 32.0731 60.8472C35.4022 66.2155 41.3015 72.2431 49.1012 78.5544C64.7424 91.2112 88.6461 105.503 117.091 118.505L121.576 112.848ZM84.7951 49.9778C87.3697 50.7254 104.444 55.8625 106.919 56.654L110.539 50.6646C107.964 49.8412 90.8112 44.681 88.2048 43.9241L84.7951 49.9778ZM106.919 56.654C109.597 57.5105 112.251 58.4021 114.906 59.3364L118.746 53.4205C116.019 52.4613 113.293 51.5451 110.539 50.6646L106.919 56.654ZM114.906 59.3364C126.453 63.3989 138.052 68.2748 151.896 74.6027L156.38 68.9465C142.429 62.5699 130.6 57.5913 118.746 53.4205L114.906 59.3364ZM197.372 98.8285C211.973 107.992 223.13 116.779 229.782 124.196C233.118 127.916 235.187 131.145 236.078 133.785C236.976 136.443 236.543 138.046 235.787 139L242.352 142.001C244.929 138.749 244.965 135.025 243.768 131.481C242.566 127.918 239.98 124.069 236.403 120.081C229.229 112.082 217.529 102.935 202.677 93.6141L197.372 98.8285ZM151.896 74.6027C162.048 79.2432 171.594 84.0418 180.361 88.8584L185.321 83.4413C176.395 78.5374 166.69 73.6593 156.38 68.9465L151.896 74.6027ZM180.361 88.8584C186.426 92.1903 192.115 95.5292 197.372 98.8285L202.677 93.6141C197.301 90.2399 191.496 86.8336 185.321 83.4413L180.361 88.8584Z" fill="#FF9400"/>
<circle cx="60.4435" cy="44.4435" r="14.1577" stroke="#FF9400" stroke-width="6.5716"/>
<circle cx="137.104" cy="94.7813" r="44.5109" fill="#2EAADC" stroke="#2EAADC" stroke-width="30.0749"/>
<path d="M37.6845 48.451C38.9228 46.8891 38.457 44.9512 36.6442 44.1226C34.8314 43.294 32.358 43.8885 31.1198 45.4504L37.6845 48.451ZM235.787 139C234.671 140.407 231.549 141.919 224.521 142.17C217.806 142.41 208.846 141.427 198.174 139.215C176.889 134.802 149.647 125.679 121.576 112.848L117.092 118.504C145.537 131.506 173.358 140.857 195.409 145.428C206.404 147.708 216.181 148.845 223.987 148.567C231.479 148.299 238.662 146.654 242.352 142L235.787 139ZM121.576 112.848C93.5037 100.017 70.1362 86.0075 55.0384 73.7904C47.4684 67.6649 42.1312 62.1125 39.2675 57.4946C36.2701 52.661 36.5684 49.8588 37.6845 48.451L31.1198 45.4504C27.4304 50.1042 28.8778 55.6943 32.0731 60.847C35.4022 66.2152 41.3016 72.2428 49.1012 78.5542C64.7424 91.2109 88.6462 105.503 117.092 118.504L121.576 112.848Z" fill="#FF9400"/>
</svg>
