<svg width="240" height="138" viewBox="0 0 240 138" fill="none" xmlns="http://www.w3.org/2000/svg">
<path d="M71.2052 18.9241C69.222 18.3482 66.8511 19.2365 65.9095 20.9082C64.9679 22.5799 65.8123 24.4019 67.7954 24.9778L71.2052 18.9241ZM91.7292 28.6593L89.919 31.654L89.919 31.654L91.7292 28.6593ZM99.8263 31.3785L101.746 28.4205L101.746 28.4205L99.8263 31.3785ZM183.025 71.2213L185.678 68.6141L185.678 68.6141L183.025 71.2213ZM165.842 61.1498L163.361 63.8584L163.361 63.8584L165.842 61.1498ZM218.787 114C217.671 115.408 214.55 116.919 207.521 117.17C200.806 117.41 191.846 116.428 181.174 114.215C159.889 109.802 132.648 100.68 104.576 87.8484L100.092 93.5046C128.537 106.506 156.358 115.857 178.409 120.429C189.405 122.708 199.181 123.846 206.987 123.567C214.479 123.299 221.663 121.654 225.352 117.001L218.787 114ZM104.576 87.8484C76.504 75.0173 53.1366 61.0077 38.0387 48.7907C30.4688 42.6652 25.1316 37.1127 22.2679 32.4948C19.2704 27.6613 19.5688 24.8591 20.6849 23.4512L14.1202 20.4506C10.4308 25.1044 11.8782 30.6946 15.0735 35.8472C18.4026 41.2155 24.3019 47.2431 32.1015 53.5544C47.7428 66.2112 71.6465 80.5028 100.092 93.5046L104.576 87.8484ZM67.7954 24.9778C70.37 25.7254 87.444 30.8625 89.919 31.654L93.5394 25.6646C90.9647 24.8412 73.8116 19.681 71.2052 18.9241L67.7954 24.9778ZM89.919 31.654C92.5972 32.5105 95.2509 33.4021 97.9065 34.3364L101.746 28.4205C99.0198 27.4613 96.293 26.5451 93.5394 25.6646L89.919 31.654ZM97.9065 34.3364C109.453 38.3989 121.052 43.2748 134.896 49.6027L139.38 43.9465C125.429 37.5699 113.6 32.5913 101.746 28.4205L97.9065 34.3364ZM180.372 73.8285C194.974 82.9921 206.13 91.7789 212.782 99.1959C216.118 102.916 218.188 106.145 219.079 108.785C219.976 111.443 219.543 113.046 218.787 114L225.352 117.001C227.93 113.749 227.965 110.025 226.769 106.481C225.566 102.918 222.98 99.0693 219.404 95.0811C212.23 87.0824 200.53 77.9349 185.678 68.6141L180.372 73.8285ZM134.896 49.6027C145.049 54.2432 154.594 59.0418 163.361 63.8584L168.322 58.4413C159.396 53.5374 149.691 48.6593 139.38 43.9465L134.896 49.6027ZM163.361 63.8584C169.426 67.1903 175.115 70.5292 180.372 73.8285L185.678 68.6141C180.301 65.2399 174.496 61.8336 168.322 58.4413L163.361 63.8584Z" fill="#FFDA3E"/>
<circle cx="43.4435" cy="19.4435" r="14.1577" stroke="#FFDA3E" stroke-width="6.5716"/>
<circle cx="120.104" cy="69.7818" r="44.5109" fill="var(--md-sys-color-primary)" stroke="var(--md-sys-color-primary)" stroke-width="30.0749"/>
<path d="M20.6847 23.4515C21.923 21.8896 21.4572 19.9517 19.6444 19.1231C17.8316 18.2945 15.3582 18.889 14.12 20.4509L20.6847 23.4515ZM218.787 114C217.671 115.408 214.549 116.92 207.521 117.171C200.806 117.41 191.846 116.428 181.174 114.215C159.889 109.803 132.648 100.68 104.576 87.8487L100.092 93.5048C128.537 106.507 156.358 115.857 178.409 120.429C189.405 122.709 199.181 123.846 206.987 123.567C214.479 123.3 221.662 121.655 225.352 117.001L218.787 114ZM104.576 87.8487C76.5039 75.0175 53.1364 61.008 38.0386 48.7909C30.4686 42.6654 25.1314 37.113 22.2677 32.4951C19.2702 27.6615 19.5686 24.8593 20.6847 23.4515L14.12 20.4509C10.4306 25.1046 11.878 30.6948 15.0733 35.8474C18.4024 41.2157 24.3017 47.2433 32.1014 53.5547C47.7426 66.2114 71.6463 80.503 100.092 93.5048L104.576 87.8487Z" fill="#FFDA3E"/>
</svg>
