<svg width="86" height="70" viewBox="0 0 86 70" fill="none" xmlns="http://www.w3.org/2000/svg">
<path d="M13.9896 65.8734C13.9896 66.7997 13.6577 67.5561 12.9939 68.1428C12.33 68.714 11.095 68.9996 9.28878 68.9996C7.48256 68.9996 6.25525 68.714 5.60686 68.1428C4.95847 67.5561 4.63428 66.7997 4.63428 65.8734V59.0422C4.63428 58.1159 4.95847 57.3672 5.60686 56.796C6.25525 56.2093 7.48256 55.916 9.28878 55.916C11.095 55.916 12.33 56.2093 12.9939 56.796C13.6577 57.3672 13.9896 58.1159 13.9896 59.0422V65.8734ZM4.86584 65.8734C4.86584 66.7379 5.1746 67.4404 5.79211 67.9807C6.40963 68.5056 7.57518 68.768 9.28878 68.768C11.0024 68.768 12.1757 68.5056 12.8086 67.9807C13.4416 67.4404 13.758 66.7379 13.758 65.8734V59.0422C13.758 58.1777 13.4416 57.483 12.8086 56.9581C12.1757 56.4177 11.0024 56.1476 9.28878 56.1476C7.57518 56.1476 6.40963 56.4177 5.79211 56.9581C5.1746 57.483 4.86584 58.1777 4.86584 59.0422V65.8734Z" fill="black"/>
<path d="M29.0717 56.1939V56.4255H23.9309C23.2825 56.4255 22.7653 56.603 22.3794 56.9581C21.9935 57.3131 21.8005 57.7608 21.8005 58.3012V60.2C21.8005 60.7403 21.9085 61.1186 22.1247 61.3347C22.3408 61.5508 22.6264 61.6898 22.9815 61.7515L27.8675 62.7473C28.3307 62.8399 28.7089 63.0406 29.0022 63.3493C29.311 63.6581 29.4654 64.2138 29.4654 65.0166V66.3597C29.4654 67.039 29.2338 67.6025 28.7707 68.0501C28.3075 68.4824 27.6823 68.6985 26.895 68.6985H21.1289V68.467H26.895C27.6051 68.467 28.1686 68.274 28.5854 67.8881C29.0177 67.4867 29.2338 66.9772 29.2338 66.3597V65.0166C29.2338 64.291 29.1026 63.797 28.8401 63.5346C28.5931 63.2567 28.2535 63.0714 27.8212 62.9788L22.9352 61.9831C22.5338 61.9059 22.2019 61.7515 21.9394 61.5199C21.6924 61.2729 21.5689 60.833 21.5689 60.2V58.3012C21.5689 57.6836 21.785 57.1819 22.2173 56.796C22.6496 56.3946 23.2208 56.1939 23.9309 56.1939H29.0717Z" fill="black"/>
<path d="M59.0915 61.8673C59.3694 61.8673 59.5701 61.8055 59.6936 61.682C59.8171 61.5585 60.0101 61.2961 60.2725 60.8947L63.0976 56.5876C63.1903 56.4332 63.2906 56.3328 63.3987 56.2865C63.5222 56.2248 63.6457 56.1939 63.7692 56.1939H64.1628C64.379 56.1939 64.5334 56.2556 64.626 56.3792C64.734 56.4872 64.7881 56.6648 64.7881 56.9118V68.6985H64.5565V56.9118C64.5565 56.7883 64.5256 56.6802 64.4639 56.5876C64.4176 56.4795 64.3172 56.4255 64.1628 56.4255H63.8155C63.7074 56.4255 63.6148 56.4409 63.5376 56.4718C63.4604 56.5027 63.3755 56.5953 63.2829 56.7497L60.4578 61.0105C60.1799 61.4273 59.9638 61.7129 59.8094 61.8673C59.6704 62.0217 59.4312 62.0989 59.0915 62.0989C58.7519 62.0989 58.5049 62.0217 58.3505 61.8673C58.2116 61.7129 58.0032 61.4273 57.7253 61.0105L54.9001 56.7497C54.8075 56.5953 54.7149 56.5027 54.6223 56.4718C54.5451 56.4409 54.4524 56.4255 54.3444 56.4255H53.997C53.8427 56.4255 53.7423 56.4795 53.696 56.5876C53.6497 56.6802 53.6265 56.7883 53.6265 56.9118V68.6985H53.395V56.9118C53.395 56.6648 53.4413 56.4872 53.5339 56.3792C53.642 56.2556 53.7963 56.1939 53.997 56.1939H54.3907C54.5142 56.1939 54.6377 56.2248 54.7612 56.2865C54.8847 56.3328 54.9928 56.4332 55.0854 56.5876L57.9105 60.8947C58.173 61.2961 58.3659 61.5585 58.4894 61.682C58.6129 61.8055 58.8136 61.8673 59.0915 61.8673Z" fill="black"/>
<path d="M73.116 68.6985V56.1939H73.3476V68.467H81.4061V63.9051H81.6377V68.6985H73.116Z" fill="black"/>
<path d="M13.9896 65.8734C13.9896 66.7997 13.6577 67.5561 12.9939 68.1428C12.33 68.714 11.095 68.9996 9.28878 68.9996C7.48256 68.9996 6.25525 68.714 5.60686 68.1428C4.95847 67.5561 4.63428 66.7997 4.63428 65.8734V59.0422C4.63428 58.1159 4.95847 57.3672 5.60686 56.796C6.25525 56.2093 7.48256 55.916 9.28878 55.916C11.095 55.916 12.33 56.2093 12.9939 56.796C13.6577 57.3672 13.9896 58.1159 13.9896 59.0422V65.8734ZM4.86584 65.8734C4.86584 66.7379 5.1746 67.4404 5.79211 67.9807C6.40963 68.5056 7.57518 68.768 9.28878 68.768C11.0024 68.768 12.1757 68.5056 12.8086 67.9807C13.4416 67.4404 13.758 66.7379 13.758 65.8734V59.0422C13.758 58.1777 13.4416 57.483 12.8086 56.9581C12.1757 56.4177 11.0024 56.1476 9.28878 56.1476C7.57518 56.1476 6.40963 56.4177 5.79211 56.9581C5.1746 57.483 4.86584 58.1777 4.86584 59.0422V65.8734Z" stroke="#98C2FF" stroke-width="1.62503" stroke-linejoin="round"/>
<path d="M29.0717 56.1939V56.4255H23.9309C23.2825 56.4255 22.7653 56.603 22.3794 56.9581C21.9935 57.3131 21.8005 57.7608 21.8005 58.3012V60.2C21.8005 60.7403 21.9085 61.1186 22.1247 61.3347C22.3408 61.5508 22.6264 61.6898 22.9815 61.7515L27.8675 62.7473C28.3307 62.8399 28.7089 63.0406 29.0022 63.3493C29.311 63.6581 29.4654 64.2138 29.4654 65.0166V66.3597C29.4654 67.039 29.2338 67.6025 28.7707 68.0501C28.3075 68.4824 27.6823 68.6985 26.895 68.6985H21.1289V68.467H26.895C27.6051 68.467 28.1686 68.274 28.5854 67.8881C29.0177 67.4867 29.2338 66.9772 29.2338 66.3597V65.0166C29.2338 64.291 29.1026 63.797 28.8401 63.5346C28.5931 63.2567 28.2535 63.0714 27.8212 62.9788L22.9352 61.9831C22.5338 61.9059 22.2019 61.7515 21.9394 61.5199C21.6924 61.2729 21.5689 60.833 21.5689 60.2V58.3012C21.5689 57.6836 21.785 57.1819 22.2173 56.796C22.6496 56.3946 23.2208 56.1939 23.9309 56.1939H29.0717Z" stroke="#98C2FF" stroke-width="1.62503" stroke-linejoin="round"/>
<path d="M59.0915 61.8673C59.3694 61.8673 59.5701 61.8055 59.6936 61.682C59.8171 61.5585 60.0101 61.2961 60.2725 60.8947L63.0976 56.5876C63.1903 56.4332 63.2906 56.3328 63.3987 56.2865C63.5222 56.2248 63.6457 56.1939 63.7692 56.1939H64.1628C64.379 56.1939 64.5334 56.2556 64.626 56.3792C64.734 56.4872 64.7881 56.6648 64.7881 56.9118V68.6985H64.5565V56.9118C64.5565 56.7883 64.5256 56.6802 64.4639 56.5876C64.4176 56.4795 64.3172 56.4255 64.1628 56.4255H63.8155C63.7074 56.4255 63.6148 56.4409 63.5376 56.4718C63.4604 56.5027 63.3755 56.5953 63.2829 56.7497L60.4578 61.0105C60.1799 61.4273 59.9638 61.7129 59.8094 61.8673C59.6704 62.0217 59.4312 62.0989 59.0915 62.0989C58.7519 62.0989 58.5049 62.0217 58.3505 61.8673C58.2116 61.7129 58.0032 61.4273 57.7253 61.0105L54.9001 56.7497C54.8075 56.5953 54.7149 56.5027 54.6223 56.4718C54.5451 56.4409 54.4524 56.4255 54.3444 56.4255H53.997C53.8427 56.4255 53.7423 56.4795 53.696 56.5876C53.6497 56.6802 53.6265 56.7883 53.6265 56.9118V68.6985H53.395V56.9118C53.395 56.6648 53.4413 56.4872 53.5339 56.3792C53.642 56.2556 53.7963 56.1939 53.997 56.1939H54.3907C54.5142 56.1939 54.6377 56.2248 54.7612 56.2865C54.8847 56.3328 54.9928 56.4332 55.0854 56.5876L57.9105 60.8947C58.173 61.2961 58.3659 61.5585 58.4894 61.682C58.6129 61.8055 58.8136 61.8673 59.0915 61.8673Z" stroke="#98C2FF" stroke-width="1.62503" stroke-linejoin="round"/>
<path d="M73.116 68.6985V56.1939H73.3476V68.467H81.4061V63.9051H81.6377V68.6985H73.116Z" stroke="#98C2FF" stroke-width="1.62503" stroke-linejoin="round"/>
<path d="M45.0126 68.698V64.5993H39.4781C38.5982 64.5993 37.9498 64.3986 37.5329 63.9972C37.1161 63.5804 36.9077 62.9706 36.9077 62.1678V56.1934H37.1393V62.1678C37.1393 62.9088 37.3323 63.4646 37.7182 63.8351C38.1041 64.1902 38.6908 64.3677 39.4781 64.3677H45.0126V56.1934H45.2441V68.698H45.0126Z" fill="black" stroke="#FFF865" stroke-width="1.62503" stroke-linejoin="round"/>
<path d="M25.3844 6.74639C24.6774 6.54109 23.8322 6.85778 23.4965 7.45372C23.1608 8.04967 23.4618 8.69921 24.1688 8.90451L25.3844 6.74639ZM32.7012 10.217L33.3465 9.14936L33.3465 9.14936L32.7012 10.217ZM35.5877 11.1863L34.9033 12.2408L34.9033 12.2408L35.5877 11.1863ZM65.2478 25.3902L66.1935 24.4607L66.1935 24.4607L65.2478 25.3902ZM59.122 21.7998L60.0062 20.8342L60.0062 20.8342L59.122 21.7998ZM77.997 40.6407C77.5991 41.1425 76.4863 41.6815 73.9807 41.7709C71.5869 41.8564 68.3926 41.5061 64.5881 40.7174C57.0001 39.1442 47.2885 35.892 37.281 31.3177L35.6824 33.3341C45.8231 37.9692 55.7411 41.3027 63.6022 42.9325C67.5222 43.7452 71.0074 44.1507 73.7902 44.0513C76.4612 43.9559 79.022 43.3694 80.3373 41.7104L77.997 40.6407ZM37.281 31.3177C27.2734 26.7435 18.943 21.7491 13.5606 17.3938C10.862 15.21 8.95929 13.2306 7.93837 11.5843C6.86979 9.86117 6.97616 8.86218 7.37404 8.3603L5.03374 7.29059C3.71848 8.94965 4.23448 10.9425 5.3736 12.7794C6.5604 14.6932 8.6635 16.842 11.444 19.092C17.0201 23.6041 25.5417 28.699 35.6824 33.3341L37.281 31.3177ZM24.1688 8.90451C25.0867 9.17104 31.1735 11.0024 32.0558 11.2846L33.3465 9.14936C32.4286 8.85583 26.3136 7.01621 25.3844 6.74639L24.1688 8.90451ZM32.0558 11.2846C33.0106 11.5899 33.9566 11.9077 34.9033 12.2408L36.2721 10.1318C35.3002 9.78989 34.3281 9.46327 33.3465 9.14936L32.0558 11.2846ZM34.9033 12.2408C39.0197 13.6891 43.1546 15.4273 48.0901 17.6832L49.6886 15.6668C44.7152 13.3936 40.4982 11.6187 36.2721 10.1318L34.9033 12.2408ZM64.3021 26.3196C69.5076 29.5864 73.4847 32.7189 75.8561 35.3631C77.0454 36.6891 77.7833 37.8405 78.1009 38.7814C78.4208 39.7291 78.2666 40.3006 77.997 40.6407L80.3373 41.7104C81.2562 40.5513 81.2688 39.2237 80.8423 37.9603C80.4136 36.69 79.4919 35.318 78.2167 33.8962C75.6593 31.0446 71.4883 27.7836 66.1935 24.4607L64.3021 26.3196ZM48.0901 17.6832C51.7093 19.3375 55.1124 21.0482 58.2378 22.7654L60.0062 20.8342C56.8241 19.0859 53.3643 17.3469 49.6886 15.6668L48.0901 17.6832ZM58.2378 22.7654C60.3998 23.9532 62.428 25.1435 64.3021 26.3196L66.1935 24.4607C64.2768 23.2579 62.2074 22.0435 60.0062 20.8342L58.2378 22.7654Z" fill="#FFF865"/>
<circle cx="15.4876" cy="6.93144" r="5.04717" stroke="#FFF865" stroke-width="2.34276"/>
<circle cx="42.8167" cy="24.8773" r="15.868" fill="#98C2FF" stroke="#98C2FF" stroke-width="10.7216"/>
<path d="M7.37377 8.36103C7.8152 7.80421 7.64915 7.11336 7.00289 6.81797C6.35664 6.52257 5.47489 6.7345 5.03346 7.29132L7.37377 8.36103ZM77.9967 40.6414C77.5988 41.1433 76.486 41.6822 73.9804 41.7717C71.5866 41.8571 68.3924 41.5069 64.5878 40.7181C56.9998 39.145 47.2883 35.8927 37.2807 31.3184L35.6821 33.3349C45.8228 37.97 55.7409 41.3034 63.602 42.9332C67.522 43.7459 71.0071 44.1514 73.7899 44.052C76.4609 43.9566 79.0218 43.3701 80.337 41.7111L77.9967 40.6414ZM37.2807 31.3184C27.2731 26.7442 18.9427 21.7498 13.5604 17.3945C10.8617 15.2107 8.95901 13.2313 7.9381 11.585C6.86951 9.86189 6.97589 8.86291 7.37377 8.36103L5.03346 7.29132C3.7182 8.95037 4.2342 10.9432 5.37333 12.7802C6.56013 14.6939 8.66323 16.8427 11.4438 19.0927C17.0198 23.6048 25.5415 28.6997 35.6821 33.3349L37.2807 31.3184Z" fill="#FFF865"/>
</svg>
