<svg width="1146" height="224" viewBox="0 0 1146 224" fill="none" xmlns="http://www.w3.org/2000/svg">
<path d="M499.161 106.933C499.161 115.671 496.029 122.808 489.767 128.342C483.504 133.731 471.853 136.426 454.812 136.426C437.772 136.426 426.193 133.731 420.076 128.342C413.959 122.808 410.901 115.671 410.901 106.933V42.4857C410.901 33.7471 413.959 26.6834 420.076 21.2946C426.193 15.7602 437.772 12.9929 454.812 12.9929C471.853 12.9929 483.504 15.7602 489.767 21.2946C496.029 26.6834 499.161 33.7471 499.161 42.4857V106.933ZM413.086 106.933C413.086 115.089 415.998 121.716 421.824 126.813C427.65 131.765 438.646 134.241 454.812 134.241C470.979 134.241 482.048 131.765 488.019 126.813C493.99 121.716 496.976 115.089 496.976 106.933V42.4857C496.976 34.3297 493.99 27.7757 488.019 22.8239C482.048 17.7263 470.979 15.1776 454.812 15.1776C438.646 15.1776 427.65 17.7263 421.824 22.8239C415.998 27.7757 413.086 34.3297 413.086 42.4857V106.933Z" fill="black"/>
<path d="M641.448 15.6145V17.7992H592.949C586.832 17.7992 581.953 19.4741 578.312 22.8239C574.67 26.1737 572.85 30.3973 572.85 35.4948V53.4089C572.85 58.5064 573.869 62.0747 575.908 64.1137C577.947 66.1527 580.642 67.4635 583.992 68.0461L630.088 77.4401C634.457 78.3139 638.025 80.2073 640.793 83.1202C643.705 86.033 645.162 91.2762 645.162 98.8496V111.521C645.162 117.929 642.977 123.245 638.608 127.469C634.239 131.547 628.34 133.586 620.912 133.586H566.514V131.401H620.912C627.612 131.401 632.928 129.58 636.86 125.939C640.938 122.153 642.977 117.346 642.977 111.521V98.8496C642.977 92.0044 641.739 87.3438 639.263 84.8679C636.933 82.2463 633.729 80.4986 629.651 79.6247L583.555 70.2307C579.768 69.5025 576.637 68.0461 574.161 65.8614C571.83 63.5311 570.665 59.3803 570.665 53.4089V35.4948C570.665 29.6691 572.704 24.9357 576.782 21.2946C580.86 17.5079 586.249 15.6145 592.949 15.6145H641.448Z" fill="black"/>
<path d="M924.66 69.1384C927.282 69.1384 929.175 68.5558 930.34 67.3907C931.506 66.2255 933.326 63.7496 935.802 59.9629L962.455 19.3284C963.329 17.872 964.275 16.9253 965.295 16.4884C966.46 15.9058 967.625 15.6145 968.79 15.6145H972.504C974.543 15.6145 976 16.1971 976.874 17.3622C977.893 18.3817 978.403 20.0566 978.403 22.3869V133.586H976.218V22.3869C976.218 21.2218 975.927 20.2023 975.344 19.3284C974.907 18.3089 973.961 17.7992 972.504 17.7992H969.227C968.208 17.7992 967.334 17.9448 966.606 18.2361C965.877 18.5274 965.076 19.4012 964.202 20.8577L937.55 61.0552C934.928 64.9876 932.889 67.682 931.433 69.1384C930.122 70.5948 927.865 71.3231 924.66 71.3231C921.456 71.3231 919.126 70.5948 917.669 69.1384C916.359 67.682 914.392 64.9876 911.771 61.0552L885.118 20.8577C884.244 19.4012 883.37 18.5274 882.497 18.2361C881.768 17.9448 880.895 17.7992 879.875 17.7992H876.598C875.142 17.7992 874.195 18.3089 873.758 19.3284C873.321 20.2023 873.103 21.2218 873.103 22.3869V133.586H870.918V22.3869C870.918 20.0566 871.355 18.3817 872.229 17.3622C873.248 16.1971 874.705 15.6145 876.598 15.6145H880.312C881.477 15.6145 882.642 15.9058 883.807 16.4884C884.973 16.9253 885.992 17.872 886.866 19.3284L913.519 59.9629C915.995 63.7496 917.815 66.2255 918.98 67.3907C920.145 68.5558 922.039 69.1384 924.66 69.1384Z" fill="black"/>
<path d="M1056.97 133.586V15.6145H1059.15V131.401H1135.18V88.3633H1137.36V133.586H1056.97Z" fill="black"/>
<path d="M499.161 106.933C499.161 115.671 496.029 122.808 489.767 128.342C483.504 133.731 471.853 136.426 454.812 136.426C437.772 136.426 426.193 133.731 420.076 128.342C413.959 122.808 410.901 115.671 410.901 106.933V42.4857C410.901 33.7471 413.959 26.6834 420.076 21.2946C426.193 15.7602 437.772 12.9929 454.812 12.9929C471.853 12.9929 483.504 15.7602 489.767 21.2946C496.029 26.6834 499.161 33.7471 499.161 42.4857V106.933ZM413.086 106.933C413.086 115.089 415.998 121.716 421.824 126.813C427.65 131.765 438.646 134.241 454.812 134.241C470.979 134.241 482.048 131.765 488.019 126.813C493.99 121.716 496.976 115.089 496.976 106.933V42.4857C496.976 34.3297 493.99 27.7757 488.019 22.8239C482.048 17.7263 470.979 15.1776 454.812 15.1776C438.646 15.1776 427.65 17.7263 421.824 22.8239C415.998 27.7757 413.086 34.3297 413.086 42.4857V106.933Z" stroke="#2EAADC" stroke-width="15.3309" stroke-linejoin="round"/>
<path d="M641.448 15.6145V17.7992H592.949C586.832 17.7992 581.953 19.4741 578.312 22.8239C574.67 26.1737 572.85 30.3973 572.85 35.4948V53.4089C572.85 58.5064 573.869 62.0747 575.908 64.1137C577.947 66.1527 580.642 67.4635 583.992 68.0461L630.088 77.4401C634.457 78.3139 638.025 80.2073 640.793 83.1202C643.705 86.033 645.162 91.2762 645.162 98.8496V111.521C645.162 117.929 642.977 123.245 638.608 127.469C634.239 131.547 628.34 133.586 620.912 133.586H566.514V131.401H620.912C627.612 131.401 632.928 129.58 636.86 125.939C640.938 122.153 642.977 117.346 642.977 111.521V98.8496C642.977 92.0044 641.739 87.3438 639.263 84.8679C636.933 82.2463 633.729 80.4986 629.651 79.6247L583.555 70.2307C579.768 69.5025 576.637 68.0461 574.161 65.8614C571.83 63.5311 570.665 59.3803 570.665 53.4089V35.4948C570.665 29.6691 572.704 24.9357 576.782 21.2946C580.86 17.5079 586.249 15.6145 592.949 15.6145H641.448Z" stroke="#2EAADC" stroke-width="15.3309" stroke-linejoin="round"/>
<path d="M924.66 69.1384C927.282 69.1384 929.175 68.5558 930.34 67.3907C931.506 66.2255 933.326 63.7496 935.802 59.9629L962.455 19.3284C963.329 17.872 964.275 16.9253 965.295 16.4884C966.46 15.9058 967.625 15.6145 968.79 15.6145H972.504C974.543 15.6145 976 16.1971 976.874 17.3622C977.893 18.3817 978.403 20.0566 978.403 22.3869V133.586H976.218V22.3869C976.218 21.2218 975.927 20.2023 975.344 19.3284C974.907 18.3089 973.961 17.7992 972.504 17.7992H969.227C968.208 17.7992 967.334 17.9448 966.606 18.2361C965.877 18.5274 965.076 19.4012 964.202 20.8577L937.55 61.0552C934.928 64.9876 932.889 67.682 931.433 69.1384C930.122 70.5948 927.865 71.3231 924.66 71.3231C921.456 71.3231 919.126 70.5948 917.669 69.1384C916.359 67.682 914.392 64.9876 911.771 61.0552L885.118 20.8577C884.244 19.4012 883.37 18.5274 882.497 18.2361C881.768 17.9448 880.895 17.7992 879.875 17.7992H876.598C875.142 17.7992 874.195 18.3089 873.758 19.3284C873.321 20.2023 873.103 21.2218 873.103 22.3869V133.586H870.918V22.3869C870.918 20.0566 871.355 18.3817 872.229 17.3622C873.248 16.1971 874.705 15.6145 876.598 15.6145H880.312C881.477 15.6145 882.642 15.9058 883.807 16.4884C884.973 16.9253 885.992 17.872 886.866 19.3284L913.519 59.9629C915.995 63.7496 917.815 66.2255 918.98 67.3907C920.145 68.5558 922.039 69.1384 924.66 69.1384Z" stroke="#2EAADC" stroke-width="15.3309" stroke-linejoin="round"/>
<path d="M1056.97 133.586V15.6145H1059.15V131.401H1135.18V88.3633H1137.36V133.586H1056.97Z" stroke="#2EAADC" stroke-width="15.3309" stroke-linejoin="round"/>
<path d="M791.837 133.586V94.9172H739.624C731.322 94.9172 725.205 93.0239 721.273 89.2371C717.34 85.3048 715.374 79.5519 715.374 71.9784V15.6145H717.559V71.9784C717.559 78.9693 719.379 84.2124 723.02 87.7079C726.662 91.0577 732.196 92.7326 739.624 92.7326H791.837V15.6145H794.022V133.586H791.837Z" fill="black" stroke="#FF9400" stroke-width="15.3309" stroke-linejoin="round"/>
<path d="M417.913 192.504C417.913 193.698 418.095 194.809 418.46 195.836C418.825 196.831 419.338 197.693 420.002 198.422C420.665 199.119 421.477 199.682 422.438 200.113C423.4 200.511 424.477 200.71 425.671 200.71C426.864 200.71 427.942 200.511 428.903 200.113C429.865 199.682 430.677 199.119 431.34 198.422C432.003 197.693 432.517 196.831 432.882 195.836C433.247 194.809 433.429 193.698 433.429 192.504C433.429 191.311 433.247 190.217 432.882 189.222C432.517 188.194 432.003 187.332 431.34 186.636C430.677 185.907 429.865 185.343 428.903 184.945C427.942 184.514 426.864 184.299 425.671 184.299C424.477 184.299 423.4 184.514 422.438 184.945C421.477 185.343 420.665 185.907 420.002 186.636C419.338 187.332 418.825 188.194 418.46 189.222C418.095 190.217 417.913 191.311 417.913 192.504ZM413.139 192.504C413.139 190.78 413.454 189.172 414.084 187.681C414.747 186.189 415.642 184.879 416.769 183.752C417.896 182.624 419.222 181.746 420.748 181.116C422.273 180.453 423.914 180.121 425.671 180.121C427.428 180.121 429.069 180.453 430.594 181.116C432.119 181.746 433.446 182.624 434.573 183.752C435.7 184.879 436.579 186.189 437.209 187.681C437.872 189.172 438.203 190.78 438.203 192.504C438.203 194.228 437.872 195.853 437.209 197.378C436.579 198.87 435.7 200.18 434.573 201.307C433.446 202.401 432.119 203.28 430.594 203.943C429.069 204.573 427.428 204.888 425.671 204.888C423.914 204.888 422.273 204.573 420.748 203.943C419.222 203.28 417.896 202.401 416.769 201.307C415.642 200.18 414.747 198.87 414.084 197.378C413.454 195.853 413.139 194.228 413.139 192.504ZM443.81 180.718H448.286V184.1H448.386C449.248 182.84 450.425 181.862 451.917 181.166C453.442 180.469 455 180.121 456.591 180.121C458.415 180.121 460.056 180.436 461.515 181.066C463.007 181.696 464.267 182.575 465.294 183.702C466.355 184.829 467.168 186.155 467.731 187.681C468.295 189.172 468.577 190.78 468.577 192.504C468.577 194.262 468.295 195.903 467.731 197.428C467.168 198.92 466.355 200.229 465.294 201.357C464.267 202.451 463.007 203.313 461.515 203.943C460.056 204.573 458.415 204.888 456.591 204.888C454.901 204.888 453.309 204.539 451.817 203.843C450.325 203.114 449.181 202.136 448.386 200.909H448.286V218.315H443.81V180.718ZM456.044 184.299C454.851 184.299 453.773 184.514 452.812 184.945C451.85 185.343 451.038 185.907 450.375 186.636C449.712 187.332 449.198 188.194 448.833 189.222C448.469 190.217 448.286 191.311 448.286 192.504C448.286 193.698 448.469 194.809 448.833 195.836C449.198 196.831 449.712 197.693 450.375 198.422C451.038 199.119 451.85 199.682 452.812 200.113C453.773 200.511 454.851 200.71 456.044 200.71C457.238 200.71 458.315 200.511 459.277 200.113C460.238 199.682 461.051 199.119 461.714 198.422C462.377 197.693 462.891 196.831 463.255 195.836C463.62 194.809 463.802 193.698 463.802 192.504C463.802 191.311 463.62 190.217 463.255 189.222C462.891 188.194 462.377 187.332 461.714 186.636C461.051 185.907 460.238 185.343 459.277 184.945C458.315 184.514 457.238 184.299 456.044 184.299ZM477.594 194.146C477.594 195.173 477.81 196.118 478.241 196.98C478.705 197.809 479.302 198.522 480.031 199.119C480.761 199.716 481.606 200.18 482.568 200.511C483.529 200.843 484.524 201.009 485.551 201.009C486.944 201.009 488.154 200.694 489.182 200.064C490.21 199.401 491.154 198.539 492.017 197.478L495.398 200.064C492.912 203.28 489.43 204.888 484.955 204.888C483.098 204.888 481.407 204.573 479.882 203.943C478.39 203.313 477.114 202.451 476.053 201.357C475.025 200.229 474.229 198.92 473.666 197.428C473.102 195.903 472.82 194.262 472.82 192.504C472.82 190.747 473.119 189.123 473.715 187.631C474.345 186.106 475.191 184.796 476.252 183.702C477.346 182.575 478.639 181.696 480.131 181.066C481.623 180.436 483.247 180.121 485.004 180.121C487.093 180.121 488.85 180.486 490.276 181.215C491.735 181.945 492.928 182.906 493.857 184.1C494.785 185.26 495.448 186.586 495.846 188.078C496.277 189.537 496.492 191.029 496.492 192.554V194.146H477.594ZM491.718 190.565C491.685 189.57 491.519 188.659 491.221 187.83C490.956 187.001 490.541 186.288 489.978 185.691C489.414 185.061 488.701 184.581 487.839 184.249C487.01 183.884 486.032 183.702 484.905 183.702C483.811 183.702 482.8 183.918 481.871 184.349C480.976 184.746 480.214 185.277 479.584 185.94C478.954 186.603 478.456 187.349 478.092 188.178C477.76 188.974 477.594 189.769 477.594 190.565H491.718ZM501.847 180.718H506.322V184.349H506.422C506.986 183.089 507.964 182.077 509.356 181.315C510.749 180.519 512.357 180.121 514.18 180.121C515.307 180.121 516.385 180.304 517.413 180.668C518.473 181 519.385 181.53 520.148 182.26C520.943 182.989 521.573 183.934 522.038 185.094C522.502 186.222 522.734 187.564 522.734 189.123V204.291H518.258V190.366C518.258 189.272 518.109 188.344 517.81 187.581C517.512 186.785 517.114 186.155 516.617 185.691C516.12 185.194 515.539 184.846 514.876 184.647C514.246 184.415 513.583 184.299 512.887 184.299C511.959 184.299 511.097 184.448 510.301 184.746C509.505 185.045 508.809 185.525 508.212 186.189C507.615 186.818 507.151 187.631 506.82 188.625C506.488 189.62 506.322 190.797 506.322 192.156V204.291H501.847V180.718ZM555.854 186.636C555.324 185.973 554.661 185.426 553.865 184.995C553.102 184.531 552.157 184.299 551.03 184.299C549.969 184.299 549.041 184.531 548.245 184.995C547.483 185.426 547.101 186.073 547.101 186.935C547.101 187.631 547.317 188.194 547.748 188.625C548.212 189.056 548.743 189.405 549.339 189.67C549.969 189.935 550.632 190.134 551.329 190.267C552.025 190.399 552.622 190.515 553.119 190.615C554.08 190.847 554.976 191.129 555.804 191.46C556.666 191.792 557.396 192.223 557.993 192.753C558.623 193.284 559.103 193.93 559.435 194.693C559.8 195.455 559.982 196.384 559.982 197.478C559.982 198.804 559.7 199.948 559.136 200.909C558.573 201.837 557.843 202.6 556.948 203.197C556.053 203.793 555.025 204.224 553.865 204.49C552.738 204.755 551.594 204.888 550.433 204.888C548.477 204.888 546.753 204.589 545.261 203.992C543.803 203.396 542.493 202.302 541.333 200.71L544.714 197.925C545.444 198.655 546.256 199.301 547.151 199.865C548.046 200.428 549.14 200.71 550.433 200.71C550.997 200.71 551.561 200.66 552.124 200.561C552.721 200.428 553.235 200.246 553.666 200.014C554.13 199.749 554.495 199.434 554.76 199.069C555.058 198.671 555.208 198.224 555.208 197.726C555.208 197.063 554.992 196.516 554.561 196.085C554.163 195.654 553.666 195.323 553.069 195.09C552.506 194.825 551.892 194.626 551.229 194.494C550.599 194.328 550.036 194.195 549.538 194.096C548.577 193.864 547.665 193.599 546.803 193.3C545.941 193.002 545.178 192.604 544.515 192.107C543.852 191.609 543.322 190.979 542.924 190.217C542.526 189.454 542.327 188.509 542.327 187.382C542.327 186.155 542.576 185.094 543.073 184.199C543.604 183.271 544.283 182.508 545.112 181.912C545.974 181.315 546.936 180.867 547.997 180.569C549.091 180.271 550.185 180.121 551.279 180.121C552.87 180.121 554.395 180.42 555.854 181.017C557.313 181.613 558.473 182.608 559.335 184L555.854 186.636ZM565.419 180.718H569.895V184.1H569.995C570.857 182.84 572.034 181.862 573.526 181.166C575.051 180.469 576.609 180.121 578.2 180.121C580.024 180.121 581.665 180.436 583.124 181.066C584.616 181.696 585.875 182.575 586.903 183.702C587.964 184.829 588.776 186.155 589.34 187.681C589.904 189.172 590.186 190.78 590.186 192.504C590.186 194.262 589.904 195.903 589.34 197.428C588.776 198.92 587.964 200.229 586.903 201.357C585.875 202.451 584.616 203.313 583.124 203.943C581.665 204.573 580.024 204.888 578.2 204.888C576.509 204.888 574.918 204.539 573.426 203.843C571.934 203.114 570.79 202.136 569.995 200.909H569.895V218.315H565.419V180.718ZM577.653 184.299C576.46 184.299 575.382 184.514 574.421 184.945C573.459 185.343 572.647 185.907 571.984 186.636C571.321 187.332 570.807 188.194 570.442 189.222C570.077 190.217 569.895 191.311 569.895 192.504C569.895 193.698 570.077 194.809 570.442 195.836C570.807 196.831 571.321 197.693 571.984 198.422C572.647 199.119 573.459 199.682 574.421 200.113C575.382 200.511 576.46 200.71 577.653 200.71C578.847 200.71 579.924 200.511 580.886 200.113C581.847 199.682 582.66 199.119 583.323 198.422C583.986 197.693 584.5 196.831 584.864 195.836C585.229 194.809 585.411 193.698 585.411 192.504C585.411 191.311 585.229 190.217 584.864 189.222C584.5 188.194 583.986 187.332 583.323 186.636C582.66 185.907 581.847 185.343 580.886 184.945C579.924 184.514 578.847 184.299 577.653 184.299ZM595.921 183.603C597.181 182.442 598.64 181.58 600.297 181.017C601.955 180.42 603.613 180.121 605.27 180.121C606.994 180.121 608.47 180.337 609.697 180.768C610.956 181.199 611.984 181.779 612.78 182.508C613.576 183.238 614.156 184.083 614.521 185.045C614.918 185.973 615.117 186.951 615.117 187.979V200.014C615.117 200.843 615.134 201.605 615.167 202.302C615.2 202.998 615.25 203.661 615.316 204.291H611.338C611.238 203.097 611.188 201.904 611.188 200.71H611.089C610.094 202.235 608.917 203.313 607.558 203.943C606.199 204.573 604.624 204.888 602.834 204.888C601.74 204.888 600.695 204.738 599.701 204.44C598.706 204.142 597.827 203.694 597.065 203.097C596.335 202.5 595.755 201.771 595.324 200.909C594.893 200.014 594.678 198.986 594.678 197.826C594.678 196.301 595.009 195.024 595.672 193.996C596.369 192.969 597.297 192.14 598.457 191.51C599.651 190.847 601.027 190.383 602.585 190.117C604.176 189.819 605.867 189.67 607.658 189.67H610.94V188.675C610.94 188.078 610.824 187.482 610.592 186.885C610.36 186.288 610.012 185.758 609.547 185.293C609.083 184.796 608.503 184.415 607.807 184.15C607.111 183.851 606.282 183.702 605.32 183.702C604.458 183.702 603.696 183.785 603.033 183.951C602.403 184.116 601.822 184.332 601.292 184.597C600.761 184.829 600.281 185.111 599.85 185.443C599.419 185.774 599.004 186.089 598.606 186.387L595.921 183.603ZM608.553 192.952C607.492 192.952 606.398 193.018 605.27 193.151C604.176 193.25 603.165 193.466 602.237 193.797C601.342 194.129 600.596 194.593 599.999 195.19C599.435 195.787 599.153 196.549 599.153 197.478C599.153 198.837 599.601 199.815 600.496 200.412C601.425 201.009 602.668 201.307 604.226 201.307C605.453 201.307 606.497 201.108 607.359 200.71C608.221 200.279 608.917 199.732 609.448 199.069C609.978 198.406 610.36 197.677 610.592 196.881C610.824 196.052 610.94 195.24 610.94 194.444V192.952H608.553ZM638.469 186.984C637.64 186.122 636.761 185.476 635.833 185.045C634.938 184.581 633.86 184.349 632.601 184.349C631.374 184.349 630.296 184.581 629.368 185.045C628.473 185.476 627.71 186.089 627.08 186.885C626.484 187.647 626.019 188.543 625.688 189.57C625.39 190.565 625.24 191.609 625.24 192.703C625.24 193.797 625.423 194.842 625.787 195.836C626.152 196.798 626.666 197.643 627.329 198.373C627.992 199.102 628.788 199.682 629.716 200.113C630.644 200.511 631.689 200.71 632.849 200.71C634.109 200.71 635.187 200.495 636.082 200.064C636.977 199.599 637.806 198.936 638.568 198.074L641.751 201.257C640.591 202.55 639.231 203.479 637.673 204.042C636.148 204.606 634.524 204.888 632.8 204.888C630.976 204.888 629.302 204.589 627.777 203.992C626.285 203.396 624.992 202.567 623.898 201.506C622.804 200.412 621.958 199.119 621.361 197.627C620.765 196.102 620.466 194.427 620.466 192.604C620.466 190.78 620.765 189.106 621.361 187.581C621.958 186.056 622.787 184.746 623.848 183.652C624.942 182.558 626.235 181.713 627.727 181.116C629.252 180.486 630.943 180.171 632.8 180.171C634.524 180.171 636.165 180.486 637.723 181.116C639.314 181.713 640.69 182.641 641.851 183.901L638.469 186.984ZM648.983 194.146C648.983 195.173 649.199 196.118 649.63 196.98C650.094 197.809 650.691 198.522 651.42 199.119C652.149 199.716 652.995 200.18 653.956 200.511C654.918 200.843 655.912 201.009 656.94 201.009C658.333 201.009 659.543 200.694 660.571 200.064C661.598 199.401 662.543 198.539 663.405 197.478L666.787 200.064C664.3 203.28 660.819 204.888 656.343 204.888C654.487 204.888 652.796 204.573 651.271 203.943C649.779 203.313 648.502 202.451 647.442 201.357C646.414 200.229 645.618 198.92 645.054 197.428C644.491 195.903 644.209 194.262 644.209 192.504C644.209 190.747 644.507 189.123 645.104 187.631C645.734 186.106 646.58 184.796 647.64 183.702C648.735 182.575 650.028 181.696 651.52 181.066C653.011 180.436 654.636 180.121 656.393 180.121C658.482 180.121 660.239 180.486 661.665 181.215C663.123 181.945 664.317 182.906 665.245 184.1C666.174 185.26 666.837 186.586 667.235 188.078C667.666 189.537 667.881 191.029 667.881 192.554V194.146H648.983ZM663.107 190.565C663.074 189.57 662.908 188.659 662.61 187.83C662.344 187.001 661.93 186.288 661.366 185.691C660.803 185.061 660.09 184.581 659.228 184.249C658.399 183.884 657.421 183.702 656.294 183.702C655.2 183.702 654.188 183.918 653.26 184.349C652.365 184.746 651.602 185.277 650.972 185.94C650.343 186.603 649.845 187.349 649.481 188.178C649.149 188.974 648.983 189.769 648.983 190.565H663.107ZM688.817 184.597H683.745V180.718H688.817V175.447C688.817 172.297 689.414 169.96 690.608 168.434C691.834 166.876 693.923 166.097 696.874 166.097C697.371 166.097 697.885 166.114 698.415 166.147C698.979 166.18 699.576 166.279 700.206 166.445L699.708 170.424C699.277 170.258 698.863 170.142 698.465 170.076C698.067 170.009 697.636 169.976 697.172 169.976C696.343 169.976 695.68 170.109 695.183 170.374C694.686 170.606 694.288 170.954 693.989 171.418C693.724 171.883 693.542 172.446 693.442 173.109C693.376 173.739 693.343 174.469 693.343 175.297V180.718H698.664V184.597H693.293V204.291H688.817V184.597ZM707.268 192.504C707.268 193.698 707.45 194.809 707.815 195.836C708.18 196.831 708.694 197.693 709.357 198.422C710.02 199.119 710.832 199.682 711.794 200.113C712.755 200.511 713.833 200.71 715.026 200.71C716.22 200.71 717.297 200.511 718.259 200.113C719.22 199.682 720.032 199.119 720.695 198.422C721.359 197.693 721.872 196.831 722.237 195.836C722.602 194.809 722.784 193.698 722.784 192.504C722.784 191.311 722.602 190.217 722.237 189.222C721.872 188.194 721.359 187.332 720.695 186.636C720.032 185.907 719.22 185.343 718.259 184.945C717.297 184.514 716.22 184.299 715.026 184.299C713.833 184.299 712.755 184.514 711.794 184.945C710.832 185.343 710.02 185.907 709.357 186.636C708.694 187.332 708.18 188.194 707.815 189.222C707.45 190.217 707.268 191.311 707.268 192.504ZM702.494 192.504C702.494 190.78 702.809 189.172 703.439 187.681C704.102 186.189 704.997 184.879 706.124 183.752C707.251 182.624 708.578 181.746 710.103 181.116C711.628 180.453 713.269 180.121 715.026 180.121C716.783 180.121 718.424 180.453 719.95 181.116C721.475 181.746 722.801 182.624 723.928 183.752C725.055 184.879 725.934 186.189 726.564 187.681C727.227 189.172 727.558 190.78 727.558 192.504C727.558 194.228 727.227 195.853 726.564 197.378C725.934 198.87 725.055 200.18 723.928 201.307C722.801 202.401 721.475 203.28 719.95 203.943C718.424 204.573 716.783 204.888 715.026 204.888C713.269 204.888 711.628 204.573 710.103 203.943C708.578 203.28 707.251 202.401 706.124 201.307C704.997 200.18 704.102 198.87 703.439 197.378C702.809 195.853 702.494 194.228 702.494 192.504ZM733.166 180.718H737.641V184.349H737.741C738.039 183.719 738.437 183.155 738.934 182.658C739.432 182.127 739.979 181.68 740.576 181.315C741.206 180.95 741.885 180.668 742.615 180.469C743.344 180.237 744.073 180.121 744.803 180.121C745.532 180.121 746.195 180.221 746.792 180.42L746.593 185.244C746.228 185.144 745.864 185.061 745.499 184.995C745.134 184.929 744.77 184.896 744.405 184.896C742.217 184.896 740.542 185.509 739.382 186.736C738.222 187.962 737.641 189.869 737.641 192.455V204.291H733.166V180.718ZM765.413 180.718H769.591V184.398H769.69C769.79 184.067 770.038 183.652 770.436 183.155C770.867 182.658 771.398 182.193 772.028 181.762C772.691 181.298 773.453 180.917 774.315 180.619C775.21 180.287 776.188 180.121 777.249 180.121C779.007 180.121 780.482 180.486 781.676 181.215C782.869 181.945 783.847 183.039 784.61 184.498C785.372 183.039 786.45 181.945 787.842 181.215C789.235 180.486 790.644 180.121 792.069 180.121C793.893 180.121 795.385 180.42 796.545 181.017C797.706 181.613 798.617 182.409 799.28 183.404C799.944 184.365 800.391 185.476 800.623 186.736C800.888 187.962 801.021 189.239 801.021 190.565V204.291H796.545V191.162C796.545 190.267 796.479 189.405 796.346 188.576C796.247 187.747 796.015 187.017 795.65 186.387C795.285 185.758 794.771 185.26 794.108 184.896C793.445 184.498 792.567 184.299 791.473 184.299C789.318 184.299 787.776 184.962 786.848 186.288C785.919 187.614 785.455 189.322 785.455 191.41V204.291H780.979V191.957C780.979 190.83 780.913 189.802 780.78 188.874C780.681 187.946 780.449 187.15 780.084 186.487C779.753 185.791 779.255 185.26 778.592 184.896C777.962 184.498 777.1 184.299 776.006 184.299C775.21 184.299 774.431 184.465 773.669 184.796C772.939 185.094 772.293 185.559 771.729 186.189C771.166 186.818 770.718 187.631 770.386 188.625C770.055 189.587 769.889 190.731 769.889 192.057V204.291H765.413V180.718ZM807.862 183.603C809.122 182.442 810.581 181.58 812.239 181.017C813.896 180.42 815.554 180.121 817.212 180.121C818.936 180.121 820.411 180.337 821.638 180.768C822.898 181.199 823.925 181.779 824.721 182.508C825.517 183.238 826.097 184.083 826.462 185.045C826.86 185.973 827.059 186.951 827.059 187.979V200.014C827.059 200.843 827.075 201.605 827.108 202.302C827.141 202.998 827.191 203.661 827.257 204.291H823.279C823.179 203.097 823.13 201.904 823.13 200.71H823.03C822.036 202.235 820.859 203.313 819.499 203.943C818.14 204.573 816.565 204.888 814.775 204.888C813.681 204.888 812.636 204.738 811.642 204.44C810.647 204.142 809.769 203.694 809.006 203.097C808.277 202.5 807.696 201.771 807.265 200.909C806.834 200.014 806.619 198.986 806.619 197.826C806.619 196.301 806.95 195.024 807.614 193.996C808.31 192.969 809.238 192.14 810.399 191.51C811.592 190.847 812.968 190.383 814.526 190.117C816.118 189.819 817.808 189.67 819.599 189.67H822.881V188.675C822.881 188.078 822.765 187.482 822.533 186.885C822.301 186.288 821.953 185.758 821.489 185.293C821.024 184.796 820.444 184.415 819.748 184.15C819.052 183.851 818.223 183.702 817.261 183.702C816.399 183.702 815.637 183.785 814.974 183.951C814.344 184.116 813.764 184.332 813.233 184.597C812.703 184.829 812.222 185.111 811.791 185.443C811.36 185.774 810.946 186.089 810.548 186.387L807.862 183.603ZM820.494 192.952C819.433 192.952 818.339 193.018 817.212 193.151C816.118 193.25 815.106 193.466 814.178 193.797C813.283 194.129 812.537 194.593 811.94 195.19C811.377 195.787 811.095 196.549 811.095 197.478C811.095 198.837 811.542 199.815 812.437 200.412C813.366 201.009 814.609 201.307 816.167 201.307C817.394 201.307 818.438 201.108 819.3 200.71C820.162 200.279 820.859 199.732 821.389 199.069C821.92 198.406 822.301 197.677 822.533 196.881C822.765 196.052 822.881 195.24 822.881 194.444V192.952H820.494ZM850.41 186.984C849.581 186.122 848.703 185.476 847.774 185.045C846.879 184.581 845.802 184.349 844.542 184.349C843.315 184.349 842.238 184.581 841.309 185.045C840.414 185.476 839.652 186.089 839.022 186.885C838.425 187.647 837.961 188.543 837.629 189.57C837.331 190.565 837.182 191.609 837.182 192.703C837.182 193.797 837.364 194.842 837.729 195.836C838.093 196.798 838.607 197.643 839.27 198.373C839.933 199.102 840.729 199.682 841.657 200.113C842.586 200.511 843.63 200.71 844.791 200.71C846.05 200.71 847.128 200.495 848.023 200.064C848.918 199.599 849.747 198.936 850.51 198.074L853.692 201.257C852.532 202.55 851.173 203.479 849.614 204.042C848.089 204.606 846.465 204.888 844.741 204.888C842.917 204.888 841.243 204.589 839.718 203.992C838.226 203.396 836.933 202.567 835.839 201.506C834.745 200.412 833.899 199.119 833.303 197.627C832.706 196.102 832.407 194.427 832.407 192.604C832.407 190.78 832.706 189.106 833.303 187.581C833.899 186.056 834.728 184.746 835.789 183.652C836.883 182.558 838.176 181.713 839.668 181.116C841.193 180.486 842.884 180.171 844.741 180.171C846.465 180.171 848.106 180.486 849.664 181.116C851.256 181.713 852.632 182.641 853.792 183.901L850.41 186.984ZM857.543 166.694H862.019V184.349H862.118C862.682 183.089 863.66 182.077 865.052 181.315C866.445 180.519 868.053 180.121 869.876 180.121C871.003 180.121 872.081 180.304 873.109 180.668C874.17 181 875.081 181.53 875.844 182.26C876.64 182.989 877.27 183.934 877.734 185.094C878.198 186.222 878.43 187.564 878.43 189.123V204.291H873.954V190.366C873.954 189.272 873.805 188.344 873.507 187.581C873.208 186.785 872.81 186.155 872.313 185.691C871.816 185.194 871.235 184.846 870.572 184.647C869.942 184.415 869.279 184.299 868.583 184.299C867.655 184.299 866.793 184.448 865.997 184.746C865.201 185.045 864.505 185.525 863.908 186.189C863.312 186.818 862.847 187.631 862.516 188.625C862.184 189.62 862.019 190.797 862.019 192.156V204.291H857.543V166.694ZM885.525 180.718H890.001V204.291H885.525V180.718ZM884.48 172.264C884.48 171.369 884.795 170.606 885.425 169.976C886.088 169.313 886.868 168.982 887.763 168.982C888.658 168.982 889.42 169.313 890.05 169.976C890.713 170.606 891.045 171.369 891.045 172.264C891.045 173.159 890.713 173.938 890.05 174.601C889.42 175.231 888.658 175.546 887.763 175.546C886.868 175.546 886.088 175.231 885.425 174.601C884.795 173.938 884.48 173.159 884.48 172.264ZM897.124 180.718H901.6V184.349H901.699C902.263 183.089 903.241 182.077 904.633 181.315C906.026 180.519 907.634 180.121 909.457 180.121C910.585 180.121 911.662 180.304 912.69 180.668C913.751 181 914.663 181.53 915.425 182.26C916.221 182.989 916.851 183.934 917.315 185.094C917.779 186.222 918.011 187.564 918.011 189.123V204.291H913.535V190.366C913.535 189.272 913.386 188.344 913.088 187.581C912.789 186.785 912.391 186.155 911.894 185.691C911.397 185.194 910.817 184.846 910.154 184.647C909.524 184.415 908.861 184.299 908.164 184.299C907.236 184.299 906.374 184.448 905.578 184.746C904.783 185.045 904.086 185.525 903.49 186.189C902.893 186.818 902.429 187.631 902.097 188.625C901.765 189.62 901.6 190.797 901.6 192.156V204.291H897.124V180.718ZM928.14 194.146C928.14 195.173 928.355 196.118 928.786 196.98C929.25 197.809 929.847 198.522 930.576 199.119C931.306 199.716 932.151 200.18 933.113 200.511C934.074 200.843 935.069 201.009 936.097 201.009C937.489 201.009 938.699 200.694 939.727 200.064C940.755 199.401 941.7 198.539 942.562 197.478L945.943 200.064C943.457 203.28 939.976 204.888 935.5 204.888C933.643 204.888 931.952 204.573 930.427 203.943C928.935 203.313 927.659 202.451 926.598 201.357C925.57 200.229 924.774 198.92 924.211 197.428C923.647 195.903 923.365 194.262 923.365 192.504C923.365 190.747 923.664 189.123 924.261 187.631C924.89 186.106 925.736 184.796 926.797 183.702C927.891 182.575 929.184 181.696 930.676 181.066C932.168 180.436 933.792 180.121 935.55 180.121C937.638 180.121 939.395 180.486 940.821 181.215C942.28 181.945 943.473 182.906 944.402 184.1C945.33 185.26 945.993 186.586 946.391 188.078C946.822 189.537 947.038 191.029 947.038 192.554V194.146H928.14ZM942.263 190.565C942.23 189.57 942.064 188.659 941.766 187.83C941.501 187.001 941.086 186.288 940.523 185.691C939.959 185.061 939.246 184.581 938.384 184.249C937.555 183.884 936.577 183.702 935.45 183.702C934.356 183.702 933.345 183.918 932.416 184.349C931.521 184.746 930.759 185.277 930.129 185.94C929.499 186.603 929.002 187.349 928.637 188.178C928.305 188.974 928.14 189.769 928.14 190.565H942.263ZM966.581 166.694H971.057V204.291H966.581V166.694ZM981.562 194.146C981.562 195.173 981.777 196.118 982.209 196.98C982.673 197.809 983.269 198.522 983.999 199.119C984.728 199.716 985.574 200.18 986.535 200.511C987.497 200.843 988.491 201.009 989.519 201.009C990.911 201.009 992.122 200.694 993.149 200.064C994.177 199.401 995.122 198.539 995.984 197.478L999.366 200.064C996.879 203.28 993.398 204.888 988.922 204.888C987.066 204.888 985.375 204.573 983.85 203.943C982.358 203.313 981.081 202.451 980.02 201.357C978.993 200.229 978.197 198.92 977.633 197.428C977.07 195.903 976.788 194.262 976.788 192.504C976.788 190.747 977.086 189.123 977.683 187.631C978.313 186.106 979.158 184.796 980.219 183.702C981.313 182.575 982.606 181.696 984.098 181.066C985.59 180.436 987.215 180.121 988.972 180.121C991.061 180.121 992.818 180.486 994.244 181.215C995.702 181.945 996.896 182.906 997.824 184.1C998.752 185.26 999.416 186.586 999.813 188.078C1000.24 189.537 1000.46 191.029 1000.46 192.554V194.146H981.562ZM995.686 190.565C995.653 189.57 995.487 188.659 995.188 187.83C994.923 187.001 994.509 186.288 993.945 185.691C993.381 185.061 992.669 184.581 991.807 184.249C990.978 183.884 990 183.702 988.873 183.702C987.778 183.702 986.767 183.918 985.839 184.349C984.944 184.746 984.181 185.277 983.551 185.94C982.921 186.603 982.424 187.349 982.059 188.178C981.728 188.974 981.562 189.769 981.562 190.565H995.686ZM1005.91 183.603C1007.17 182.442 1008.63 181.58 1010.29 181.017C1011.95 180.42 1013.61 180.121 1015.26 180.121C1016.99 180.121 1018.46 180.337 1019.69 180.768C1020.95 181.199 1021.98 181.779 1022.77 182.508C1023.57 183.238 1024.15 184.083 1024.51 185.045C1024.91 185.973 1025.11 186.951 1025.11 187.979V200.014C1025.11 200.843 1025.13 201.605 1025.16 202.302C1025.19 202.998 1025.24 203.661 1025.31 204.291H1021.33C1021.23 203.097 1021.18 201.904 1021.18 200.71H1021.08C1020.09 202.235 1018.91 203.313 1017.55 203.943C1016.19 204.573 1014.62 204.888 1012.83 204.888C1011.73 204.888 1010.69 204.738 1009.69 204.44C1008.7 204.142 1007.82 203.694 1007.06 203.097C1006.33 202.5 1005.75 201.771 1005.32 200.909C1004.89 200.014 1004.67 198.986 1004.67 197.826C1004.67 196.301 1005 195.024 1005.66 193.996C1006.36 192.969 1007.29 192.14 1008.45 191.51C1009.64 190.847 1011.02 190.383 1012.58 190.117C1014.17 189.819 1015.86 189.67 1017.65 189.67H1020.93V188.675C1020.93 188.078 1020.82 187.482 1020.58 186.885C1020.35 186.288 1020 185.758 1019.54 185.293C1019.08 184.796 1018.5 184.415 1017.8 184.15C1017.1 183.851 1016.27 183.702 1015.31 183.702C1014.45 183.702 1013.69 183.785 1013.03 183.951C1012.4 184.116 1011.82 184.332 1011.28 184.597C1010.75 184.829 1010.27 185.111 1009.84 185.443C1009.41 185.774 1009 186.089 1008.6 186.387L1005.91 183.603ZM1018.55 192.952C1017.48 192.952 1016.39 193.018 1015.26 193.151C1014.17 193.25 1013.16 193.466 1012.23 193.797C1011.33 194.129 1010.59 194.593 1009.99 195.19C1009.43 195.787 1009.15 196.549 1009.15 197.478C1009.15 198.837 1009.59 199.815 1010.49 200.412C1011.42 201.009 1012.66 201.307 1014.22 201.307C1015.45 201.307 1016.49 201.108 1017.35 200.71C1018.21 200.279 1018.91 199.732 1019.44 199.069C1019.97 198.406 1020.35 197.677 1020.58 196.881C1020.82 196.052 1020.93 195.24 1020.93 194.444V192.952H1018.55ZM1031.6 180.718H1036.08V184.349H1036.18C1036.48 183.719 1036.87 183.155 1037.37 182.658C1037.87 182.127 1038.42 181.68 1039.01 181.315C1039.64 180.95 1040.32 180.668 1041.05 180.469C1041.78 180.237 1042.51 180.121 1043.24 180.121C1043.97 180.121 1044.63 180.221 1045.23 180.42L1045.03 185.244C1044.67 185.144 1044.3 185.061 1043.94 184.995C1043.57 184.929 1043.21 184.896 1042.84 184.896C1040.65 184.896 1038.98 185.509 1037.82 186.736C1036.66 187.962 1036.08 189.869 1036.08 192.455V204.291H1031.6V180.718ZM1050.01 180.718H1054.48V184.349H1054.58C1055.15 183.089 1056.13 182.077 1057.52 181.315C1058.91 180.519 1060.52 180.121 1062.34 180.121C1063.47 180.121 1064.55 180.304 1065.58 180.668C1066.64 181 1067.55 181.53 1068.31 182.26C1069.11 182.989 1069.74 183.934 1070.2 185.094C1070.66 186.222 1070.9 187.564 1070.9 189.123V204.291H1066.42V190.366C1066.42 189.272 1066.27 188.344 1065.97 187.581C1065.67 186.785 1065.28 186.155 1064.78 185.691C1064.28 185.194 1063.7 184.846 1063.04 184.647C1062.41 184.415 1061.75 184.299 1061.05 184.299C1060.12 184.299 1059.26 184.448 1058.46 184.746C1057.67 185.045 1056.97 185.525 1056.37 186.189C1055.78 186.818 1055.31 187.631 1054.98 188.625C1054.65 189.62 1054.48 190.797 1054.48 192.156V204.291H1050.01V180.718ZM1077.99 180.718H1082.47V204.291H1077.99V180.718ZM1076.95 172.264C1076.95 171.369 1077.26 170.606 1077.89 169.976C1078.55 169.313 1079.33 168.982 1080.23 168.982C1081.12 168.982 1081.89 169.313 1082.52 169.976C1083.18 170.606 1083.51 171.369 1083.51 172.264C1083.51 173.159 1083.18 173.938 1082.52 174.601C1081.89 175.231 1081.12 175.546 1080.23 175.546C1079.33 175.546 1078.55 175.231 1077.89 174.601C1077.26 173.938 1076.95 173.159 1076.95 172.264ZM1089.59 180.718H1094.07V184.349H1094.17C1094.73 183.089 1095.71 182.077 1097.1 181.315C1098.49 180.519 1100.1 180.121 1101.92 180.121C1103.05 180.121 1104.13 180.304 1105.16 180.668C1106.22 181 1107.13 181.53 1107.89 182.26C1108.69 182.989 1109.32 183.934 1109.78 185.094C1110.25 186.222 1110.48 187.564 1110.48 189.123V204.291H1106V190.366C1106 189.272 1105.85 188.344 1105.55 187.581C1105.26 186.785 1104.86 186.155 1104.36 185.691C1103.86 185.194 1103.28 184.846 1102.62 184.647C1101.99 184.415 1101.33 184.299 1100.63 184.299C1099.7 184.299 1098.84 184.448 1098.04 184.746C1097.25 185.045 1096.55 185.525 1095.96 186.189C1095.36 186.818 1094.89 187.631 1094.56 188.625C1094.23 189.62 1094.07 190.797 1094.07 192.156V204.291H1089.59V180.718ZM1140.85 204.092C1140.85 205.882 1140.53 207.507 1139.9 208.966C1139.3 210.457 1138.44 211.734 1137.32 212.795C1136.19 213.889 1134.83 214.734 1133.24 215.331C1131.65 215.928 1129.89 216.226 1127.97 216.226C1125.71 216.226 1123.64 215.911 1121.75 215.281C1119.89 214.652 1118.12 213.557 1116.43 211.999L1119.46 208.22C1120.62 209.479 1121.88 210.424 1123.24 211.054C1124.6 211.717 1126.14 212.049 1127.87 212.049C1129.52 212.049 1130.9 211.8 1131.99 211.303C1133.09 210.839 1133.95 210.225 1134.58 209.463C1135.24 208.7 1135.71 207.822 1135.97 206.827C1136.24 205.866 1136.37 204.888 1136.37 203.893V200.412H1136.22C1135.36 201.837 1134.18 202.898 1132.69 203.595C1131.23 204.258 1129.69 204.589 1128.07 204.589C1126.34 204.589 1124.73 204.291 1123.24 203.694C1121.78 203.064 1120.52 202.219 1119.46 201.158C1118.4 200.064 1117.57 198.787 1116.98 197.328C1116.38 195.836 1116.08 194.228 1116.08 192.504C1116.08 190.78 1116.36 189.172 1116.93 187.681C1117.49 186.155 1118.29 184.829 1119.31 183.702C1120.37 182.575 1121.63 181.696 1123.09 181.066C1124.58 180.436 1126.24 180.121 1128.07 180.121C1129.66 180.121 1131.2 180.469 1132.69 181.166C1134.22 181.862 1135.41 182.84 1136.27 184.1H1136.37V180.718H1140.85V204.092ZM1128.61 184.299C1127.42 184.299 1126.34 184.514 1125.38 184.945C1124.42 185.343 1123.61 185.907 1122.94 186.636C1122.28 187.332 1121.77 188.194 1121.4 189.222C1121.04 190.217 1120.85 191.311 1120.85 192.504C1120.85 194.892 1121.55 196.815 1122.94 198.273C1124.34 199.699 1126.23 200.412 1128.61 200.412C1131 200.412 1132.89 199.699 1134.28 198.273C1135.67 196.815 1136.37 194.892 1136.37 192.504C1136.37 191.311 1136.19 190.217 1135.82 189.222C1135.46 188.194 1134.95 187.332 1134.28 186.636C1133.62 185.907 1132.81 185.343 1131.85 184.945C1130.88 184.514 1129.81 184.299 1128.61 184.299Z" fill="#666666"/>
<path d="M115.645 30.7349C112.424 29.7996 108.573 31.2424 107.044 33.9573C105.515 36.6723 106.886 39.6315 110.107 40.5668L115.645 30.7349ZM148.978 46.546L146.038 51.4097L146.038 51.4097L148.978 46.546ZM162.129 50.9622L159.011 55.7662L162.129 50.9622ZM297.253 115.671L292.944 119.906L297.253 115.671ZM269.345 99.3143L265.317 103.713L269.345 99.3143ZM355.335 185.149C353.522 187.435 348.452 189.891 337.037 190.298C326.132 190.688 311.58 189.092 294.247 185.498C259.678 178.331 215.435 163.515 169.843 142.676L162.56 151.862C208.758 172.978 253.943 188.165 289.756 195.59C307.614 199.292 323.492 201.14 336.17 200.687C348.338 200.252 360.005 197.58 365.997 190.022L355.335 185.149ZM169.843 142.676C124.251 121.837 86.2993 99.0835 61.7787 79.2416C49.4843 69.2931 40.8161 60.2753 36.165 52.7753C31.2968 44.9251 31.7814 40.3739 33.5941 38.0875L22.9322 33.2142C16.9402 40.7724 19.291 49.8515 24.4806 58.2199C29.8873 66.9386 39.4685 76.7281 52.136 86.9785C77.5392 107.534 116.362 130.746 162.56 151.862L169.843 142.676ZM110.107 40.5668C114.288 41.781 142.018 50.1243 146.038 51.4097L151.918 41.6822C147.736 40.345 119.878 31.9642 115.645 30.7349L110.107 40.5668ZM146.038 51.4097C150.388 52.8007 154.698 54.2488 159.011 55.7662L165.247 46.1582C160.819 44.6003 156.39 43.1123 151.918 41.6822L146.038 51.4097ZM159.011 55.7662C177.764 62.3643 196.601 70.2831 219.086 80.5605L226.369 71.3742C203.711 61.0177 184.499 52.932 165.247 46.1582L159.011 55.7662ZM292.944 119.906C316.659 134.789 334.778 149.059 345.581 161.105C351 167.147 354.361 172.392 355.808 176.678C357.266 180.996 356.563 183.6 355.335 185.149L365.997 190.022C370.183 184.742 370.24 178.694 368.298 172.938C366.344 167.151 362.145 160.9 356.336 154.423C344.685 141.432 325.683 126.575 301.561 111.437L292.944 119.906ZM219.086 80.5605C235.575 88.0971 251.078 95.8906 265.317 103.713L273.373 94.9153C258.876 86.9508 243.114 79.0282 226.369 71.3742L219.086 80.5605ZM265.317 103.713C275.166 109.125 284.406 114.547 292.944 119.906L301.561 111.437C292.829 105.957 283.401 100.425 273.373 94.9153L265.317 103.713Z" fill="#FF9400"/>
<circle cx="70.5571" cy="31.5784" r="22.9936" stroke="#FF9400" stroke-width="10.673"/>
<circle cx="195.063" cy="113.333" r="72.2907" fill="#2EAADC" stroke="#2EAADC" stroke-width="48.8451"/>
<path d="M33.5941 38.0874C35.6051 35.5507 34.8486 32.4034 31.9044 31.0576C28.9603 29.7119 24.9432 30.6774 22.9322 33.2141L33.5941 38.0874ZM355.335 185.149C353.522 187.435 348.452 189.89 337.037 190.298C326.132 190.687 311.58 189.092 294.247 185.498C259.678 178.331 215.435 163.515 169.843 142.676L162.56 151.862C208.758 172.978 253.943 188.165 289.756 195.59C307.614 199.292 323.492 201.139 336.17 200.687C348.338 200.252 360.005 197.58 365.997 190.022L355.335 185.149ZM169.843 142.676C124.251 121.837 86.2993 99.0834 61.7787 79.2416C49.4842 69.2931 40.816 60.2753 36.165 52.7752C31.2968 44.925 31.7814 40.3739 33.5941 38.0874L22.9322 33.2141C16.9402 40.7724 19.291 49.8514 24.4805 58.2199C29.8873 66.9386 39.4685 76.7281 52.136 86.9784C77.5392 107.534 116.362 130.746 162.56 151.862L169.843 142.676Z" fill="#FF9400"/>
</svg>
