<svg width="848" height="169" viewBox="0 0 848 169" fill="none" xmlns="http://www.w3.org/2000/svg">
<path d="M10.2 13.7C11.8 11.9 13.7 11 15.9 11C18.1 11 20 11.9 21.6 13.7C23.2 15.5 23.9 17.7 23.9 20.3V53.2C23.9 55.5 24.1 58.1 24.6 60.8C25.1 63.6 26 66.1 27.4 68.4C28.8 70.7 30.7 72.7 33.1 74.3C35.5 75.9 38.6 76.7 42.5 76.7H81.3C79.5 73.1 78.2001 69.2 77.3 65.2C76.4 61.1 76 57.1 76 53.1V20.3C76 17.7 76.8 15.5 78.3 13.7C79.9 11.9 81.8 11 84 11C86.2 11 88.1 11.9 89.7 13.7C91.3 15.5 92 17.7 92 20.3V53.2C92 55.5 92.3 58 92.8 60.7C93.3 63.4 94.2 66 95.5 68.3C96.8 70.7 98.6001 72.7 100.8 74.3C103.1 75.9 106 76.7 109.6 76.7H125.5C129.3 76.7 132.4 75.9 134.9 74.3C137.4 72.7 139.3 70.7 140.7 68.4C142.1 66.1 143 63.5 143.5 60.8C144 58 144.3 55.5 144.3 53.2V20.3C144.3 17.7 145.1 15.5 146.6 13.7C148.2 11.9 150.1 11 152.3 11C154.5 11 156.4 11.9 158 13.7C159.6 15.5 160.3 17.7 160.3 20.3V53.2C160.3 58.1 159.6 63 158.2 68C156.8 73 154.8 77.5 152.1 81.5C149.4 85.6 146.2 88.9 142.4 91.5C138.6 94.1 134.3 95.4 129.5 95.4H36.9001C32.3001 95.4 28.3001 94.1 24.7001 91.5C21.1 88.9 18.1 85.6 15.6 81.5C13.1 77.4 11.2 72.9 9.80005 67.9C8.50005 62.9 7.80005 58 7.80005 53.2V20.3C7.80005 17.7 8.60005 15.5 10.2 13.7Z" fill="black" fill-opacity="0.6"/>
<path d="M337 53.1C337 58 336.2 62.9 334.6 67.9C333 72.9 330.6 77.4 327.5 81.4C324.4 85.5 320.7 88.8 316.3 91.4C311.9 94 307 95.3 301.4 95.3H213.3C208 95 203.3 93.6 199.2 91C195.1 88.4 191.6 85 188.7 81.1C185.8 77.1 183.6 72.7 182 67.8C180.5 62.9 179.7 58.1 179.7 53.3C179.7 48.4 180.5 43.5 182.1 38.5C183.7 33.5 186.1 29 189.2 25C192.3 20.9 196 17.6 200.4 15C204.8 12.4 209.7 11.1 215.3 11.1H303.4C308.7 11.4 313.4 12.8 317.5 15.5C321.6 18.1 325.1 21.5 328 25.4C330.9 29.4 333.1 33.8 334.7 38.7C336.2 43.5 337 48.4 337 53.1ZM308.2 74.3C311 72.7 313.2 70.7 314.9 68.4C316.5 66.1 317.6 63.5 318.2 60.8C318.8 58 319.1 55.5 319.1 53.2C319.1 50.9 318.8 48.3 318.2 45.6C317.6 42.8 316.5 40.3 314.9 38C313.3 35.7 311.1 33.7 308.2 32.1C305.4 30.5 301.7 29.7 297.4 29.7H219.3C214.8 29.7 211.1 30.5 208.4 32.1C205.6 33.7 203.4 35.7 201.8 38C200.2 40.3 199.1 42.9 198.5 45.6C197.9 48.4 197.6 50.9 197.6 53.2C197.6 55.5 197.9 58.1 198.5 60.8C199.1 63.6 200.2 66.1 201.8 68.4C203.4 70.7 205.6 72.7 208.4 74.3C211.2 75.9 214.8 76.7 219.3 76.7H297.4C301.7 76.7 305.3 75.9 308.2 74.3Z" fill="black" fill-opacity="0.6"/>
<path d="M407.3 53.1C407.3 50.5 408.2 48.3 410 46.5C411.8 44.7 414 43.8 416.6 43.8H490.6C493.8 43.8 496.9 44.4 499.7 45.6C502.5 46.8 505 48.5 507.1 50.6C509.2 52.7 510.9 55.2 512 58.1C513.2 61 513.7 64.1 513.7 67.3V71.6C513.7 74.8 513.1 77.9 512 80.8C510.8 83.7 509.2 86.2 507.1 88.3C505 90.4 502.5 92.1 499.7 93.3C496.9 94.5 493.8 95.1 490.6 95.1H389.9C384.6 95.1 379.9 93.8 375.8 91.2C371.7 88.6 368.2 85.3 365.3 81.2C362.4 77.1 360.2 72.6 358.6 67.6C357.1 62.6 356.3 57.7 356.3 52.9C356.3 48 357.1 43.1 358.7 38.1C360.3 33.1 362.7 28.6 365.8 24.6C368.9 20.5 372.6 17.2 377 14.6C381.4 12 386.3 10.7 391.9 10.7H504.6C507.2 10.7 509.4 11.6 511.2 13.4C513 15.2 513.9 17.4 513.9 20C513.9 22.6 513 24.8 511.2 26.6C509.4 28.4 507.2 29.3 504.6 29.3H396.1C391.6 29.3 388 30.1 385.2 31.7C382.4 33.3 380.2 35.3 378.6 37.6C377 39.9 375.9 42.5 375.3 45.2C374.7 48 374.4 50.5 374.4 52.8C374.4 55.1 374.7 57.7 375.3 60.4C375.9 63.2 377 65.7 378.6 68C380.2 70.3 382.4 72.3 385.2 73.9C388 75.5 391.6 76.3 396.1 76.3H489.8C491.3 76.3 492.7 75.6 494 74.2C495.2 72.8 495.8 71.1 495.8 69.2C495.8 67.3 495.3 65.6 494.2 64.2C493.1 62.8 491.7 62.1 489.9 62.1H416.6C414 62.1 411.8 61.2 410 59.4C408.2 57.9 407.3 55.7 407.3 53.1Z" fill="#2EAADC"/>
<path d="M684.3 86C684.3 88.6 683.4 90.8 681.6 92.6C679.8 94.4 677.6 95.3 675 95.3C673.7 95.3 672.6 95 671.5 94.5C670.5 94 669.5 93.3 668.6 92.6C667.8 91.8 667.3 91.2 666.9 90.7C661.6 84.1 656.2 79 650.6 75.2C645 71.5 639.1 68.6 632.9 66.7C626.7 64.8 620.2 63.6 613.3 63.1C606.4 62.7 599 62.4 591.2 62.4H551.8V86C551.8 88.6 550.9 90.8 549 92.6C547.1 94.4 545 95.3 542.5 95.3C539.9 95.3 537.7 94.4 535.9 92.6C534.1 90.8 533.2 88.6 533.2 86V36.3C533.2 32.4 533.9 29 535.3 25.9C536.7 22.8 538.5 20.2 540.7 18C542.9 15.8 545.4 14.1 548.2 12.9C551 11.7 553.9 11.1 556.7 11.1H657.6C661.2 11.1 664.6 11.8 667.8 13.1C671 14.5 673.9 16.3 676.3 18.6C678.7 20.9 680.7 23.6 682.1 26.7C683.5 29.8 684.2 33.2 684.2 36.8C684.2 39.4 683.3 41.6 681.5 43.4C679.7 45.2 677.5 46.1 674.9 46.1C672.3 46.1 670.1 45.2 668.3 43.4C666.5 41.6 665.6 39.4 665.6 36.8C665.6 34.9 664.9 33.3 663.6 32C662.2 30.7 660.7 29.9 658.9 29.7H557.7C556 29.7 554.7 30.1 553.6 31C552.6 31.8 551.9 32.8 551.7 34V44.1H591.1C602.4 44.1 612.7 44.7 621.8 46C630.9 47.3 639.2 49.4 646.6 52.3C654 55.2 660.6 59 666.5 63.7C672.4 68.4 677.6 74.2 682.3 81C683.6 82.4 684.3 84.2 684.3 86Z" fill="#2EAADC"/>
<path d="M720 91.8C718.1 94.1 715.7 95.3 712.8 95.3C710.2 95.3 708 94.4 706.2 92.6C704.4 90.8 703.5 88.6 703.5 86C703.5 83.7 704.1 81.8 705.4 80.4L752.4 17.2C754.6 14.2 757.5 11.8 761.1 9.9C764.7 8 768.6 7.1 772.7 7.1C776.6 7.1 780.2 7.9 783.7 9.6C787.2 11.3 790 13.6 792.2 16.6L839.2 79.4C840 80.3 840.6 81.3 841.1 82.4C841.6 83.5 841.9 84.7 841.9 86C841.9 88.6 841 90.8 839.2 92.6C837.4 94.4 835.2 95.3 832.6 95.3C829.5 95.3 827.1 94.1 825.3 91.6L780.3 31.5C779.4 30.5 778.3 29.3 776.9 28.1C775.6 26.9 774.2 26.3 772.7 26.3C771.3 26.3 769.9 26.9 768.5 28.1C767.1 29.3 766.1 30.5 765.3 31.5L720 91.8ZM760.8 74.4C760.8 71.1 762 68.2 764.3 65.9C766.6 63.6 769.4 62.4 772.8 62.4C776.1 62.4 779 63.6 781.3 65.9C783.6 68.2 784.8 71.1 784.8 74.4C784.8 77.8 783.6 80.6 781.3 82.9C779 85.2 776.1 86.4 772.8 86.4C769.4 86.4 766.6 85.2 764.3 82.9C762 80.6 760.8 77.7 760.8 74.4Z" fill="#2EAADC"/>
<path d="M377.4 140.7H362.2C362.3 142.8 363 144.4 364.3 145.6C365.6 146.8 367.2 147.4 369.2 147.4C372 147.4 374.6 146.5 377 144.8V149C375.7 149.9 374.4 150.5 373.1 150.9C371.8 151.3 370.3 151.5 368.6 151.5C366.2 151.5 364.3 151 362.8 150C361.3 149 360.2 147.7 359.3 146C358.4 144.3 358 142.4 358 140.2C358 136.9 358.9 134.3 360.8 132.2C362.7 130.1 365.1 129.1 368 129.1C370.9 129.1 373.1 130.1 374.8 132.1C376.5 134.1 377.4 136.8 377.4 140.1V140.7ZM362.3 138.1H373.2C373.1 136.4 372.6 135.1 371.7 134.2C370.8 133.3 369.6 132.8 368 132.8C366.4 132.8 365.2 133.3 364.2 134.2C363.2 135.1 362.6 136.4 362.3 138.1Z" fill="black" fill-opacity="0.6"/>
<path d="M400.6 135.4V151.1H396.3V139.1C396.3 136.7 396 135 395.3 134.1C394.6 133.2 393.5 132.7 391.9 132.7C391 132.7 390.2 132.9 389.5 133.3C388.8 133.7 387.9 134.4 387 135.5V151.2H382.7V129.6H387V132.4C389.2 130.2 391.3 129.1 393.4 129.1C396.1 129.1 398.3 130.4 399.8 133C402.1 130.4 404.5 129.1 406.9 129.1C409 129.1 410.7 129.9 412.1 131.4C413.5 132.9 414.1 135.3 414.1 138.4V151.1H409.8V138.3C409.8 136.5 409.4 135.1 408.7 134.2C408 133.3 406.9 132.8 405.5 132.8C403.8 132.7 402.2 133.6 400.6 135.4Z" fill="black" fill-opacity="0.6"/>
<path d="M420.7 162.1V129.5H428.2C432 129.5 435 130.5 437.1 132.4C439.2 134.3 440.3 137 440.3 140.4C440.3 143.6 439.3 146.3 437.3 148.4C435.3 150.5 432.7 151.5 429.6 151.5C428.2 151.5 426.7 151.2 425 150.6V162.1H420.7ZM428 133.5H425V146.8C426.3 147.5 427.7 147.8 429.1 147.8C431.1 147.8 432.7 147.1 434 145.7C435.3 144.3 435.9 142.5 435.9 140.3C435.9 138.9 435.6 137.7 435 136.6C434.4 135.5 433.6 134.7 432.5 134.2C431.4 133.7 430 133.5 428 133.5Z" fill="black" fill-opacity="0.6"/>
<path d="M456.2 129.5C459.5 129.5 462.2 130.6 464.4 132.7C466.6 134.8 467.7 137.5 467.7 140.7C467.7 143.8 466.6 146.4 464.4 148.4C462.2 150.4 459.4 151.5 456.1 151.5C452.9 151.5 450.2 150.5 448 148.4C445.8 146.3 444.7 143.7 444.7 140.6C444.7 137.4 445.8 134.8 448 132.7C450.2 130.6 452.9 129.5 456.2 129.5ZM456 133.3C454 133.3 452.3 134 451 135.3C449.7 136.6 449 138.4 449 140.4C449 142.5 449.7 144.1 451 145.5C452.3 146.9 454.1 147.5 456.2 147.5C458.3 147.5 460 146.8 461.3 145.5C462.6 144.2 463.3 142.5 463.3 140.4C463.3 138.4 462.6 136.7 461.2 135.3C459.8 133.9 458.1 133.3 456 133.3Z" fill="black" fill-opacity="0.6"/>
<path d="M499.8 129.5H504.4L494.9 151.4H493.5L487.1 136.4L480.8 151.4H479.4L469.8 129.5H474.4L480 142.6L485.5 129.5H488.7L494.1 142.6L499.8 129.5Z" fill="black" fill-opacity="0.6"/>
<path d="M525.8 140.7H510.6C510.7 142.8 511.4 144.4 512.7 145.6C514 146.8 515.6 147.4 517.6 147.4C520.4 147.4 523 146.5 525.4 144.8V149C524.1 149.9 522.8 150.5 521.5 150.9C520.2 151.3 518.7 151.5 517 151.5C514.6 151.5 512.7 151 511.2 150C509.7 149 508.6 147.7 507.7 146C506.8 144.3 506.4 142.4 506.4 140.2C506.4 136.9 507.3 134.3 509.2 132.2C511.1 130.1 513.5 129.1 516.4 129.1C519.3 129.1 521.5 130.1 523.2 132.1C524.9 134.1 525.8 136.8 525.8 140.1V140.7ZM510.7 138.1H521.6C521.5 136.4 521 135.1 520.1 134.2C519.2 133.3 518 132.8 516.4 132.8C514.8 132.8 513.6 133.3 512.6 134.2C511.6 135.1 511 136.4 510.7 138.1Z" fill="black" fill-opacity="0.6"/>
<path d="M535.9 129.5V134.4L536.1 134C538.2 130.7 540.2 129 542.3 129C543.9 129 545.6 129.8 547.3 131.4L545 135.2C543.5 133.8 542.1 133.1 540.9 133.1C539.5 133.1 538.3 133.8 537.3 135.1C536.3 136.4 535.8 138 535.8 139.8V151.1H531.5V129.5H535.9Z" fill="black" fill-opacity="0.6"/>
<path d="M553.5 120.4C554.2 120.4 554.8 120.6 555.3 121.1C555.8 121.6 556.1 122.2 556.1 122.9C556.1 123.6 555.8 124.2 555.3 124.7C554.8 125.2 554.2 125.5 553.5 125.5C552.8 125.5 552.3 125.2 551.8 124.7C551.3 124.2 551 123.6 551 122.9C551 122.2 551.3 121.7 551.8 121.2C552.3 120.7 552.9 120.4 553.5 120.4ZM551.4 129.5H555.7V151.1H551.4V129.5Z" fill="black" fill-opacity="0.6"/>
<path d="M567.1 129.5V132.2C569 130.1 571.2 129 573.6 129C574.9 129 576.2 129.3 577.4 130C578.6 130.7 579.4 131.6 580 132.9C580.6 134.2 580.9 136 580.9 138.7V151H576.6V138.7C576.6 136.5 576.3 134.9 575.6 134C574.9 133.1 573.8 132.6 572.2 132.6C570.2 132.6 568.5 133.6 567.1 135.6V151H562.7V129.4H567.1V129.5Z" fill="black" fill-opacity="0.6"/>
<path d="M586.7 137C586.7 134.7 587.5 132.9 589.2 131.6C590.9 130.3 593.2 129.6 596.1 129.6H605V132.9H600.6C601.4 133.8 602 134.5 602.4 135.2C602.8 135.9 602.9 136.7 602.9 137.6C602.9 138.7 602.6 139.8 601.9 140.9C601.2 142 600.4 142.8 599.4 143.4C598.4 144 596.7 144.4 594.4 144.8C592.8 145 592 145.6 592 146.5C592 147 592.3 147.4 592.9 147.7C593.5 148 594.6 148.4 596.2 148.7C598.8 149.3 600.5 149.7 601.3 150.1C602.1 150.5 602.7 150.9 603.4 151.5C604.4 152.5 604.9 153.8 604.9 155.4C604.9 157.4 604 159.1 602.2 160.3C600.4 161.5 597.9 162.1 594.9 162.1C591.8 162.1 589.4 161.5 587.5 160.3C585.6 159.1 584.7 157.4 584.7 155.4C584.7 152.5 586.5 150.6 590.1 149.8C588.7 148.9 587.9 148 587.9 147.1C587.9 146.4 588.2 145.8 588.8 145.2C589.4 144.6 590.2 144.2 591.3 144C588.2 142.4 586.7 140.1 586.7 137ZM593.7 152.1C592.3 152.1 591.1 152.4 590.2 153C589.3 153.6 588.8 154.4 588.8 155.3C588.8 157.5 590.8 158.6 594.8 158.6C596.7 158.6 598.2 158.3 599.2 157.8C600.2 157.3 600.8 156.5 600.8 155.4C600.8 154.4 600.1 153.6 598.8 153C597.5 152.4 595.7 152.1 593.7 152.1ZM594.7 133.2C593.5 133.2 592.6 133.6 591.7 134.4C590.8 135.2 590.5 136.1 590.5 137.2C590.5 138.3 590.9 139.2 591.7 140C592.5 140.8 593.5 141.1 594.7 141.1C595.9 141.1 596.9 140.7 597.7 140C598.5 139.3 598.9 138.3 598.9 137.2C598.9 136.1 598.5 135.1 597.7 134.4C596.9 133.7 595.9 133.2 594.7 133.2Z" fill="black" fill-opacity="0.6"/>
<path d="M637.2 151.1V148.3C636.3 149.3 635.3 150.1 634.1 150.6C632.9 151.1 631.8 151.4 630.6 151.4C629.2 151.4 628 151.1 626.8 150.4C625.6 149.7 624.8 148.8 624.2 147.6C623.6 146.4 623.3 144.5 623.3 141.8V129.4H627.6V141.7C627.6 144 627.9 145.5 628.6 146.4C629.2 147.3 630.4 147.7 632 147.7C634 147.7 635.8 146.7 637.2 144.7V129.3H641.5V150.9H637.2V151.1Z" fill="black" fill-opacity="0.6"/>
<path d="M652.7 129.5V132.2C654.6 130.1 656.8 129 659.2 129C660.5 129 661.8 129.3 663 130C664.2 130.7 665 131.6 665.6 132.9C666.2 134.2 666.5 136 666.5 138.7V151H662.2V138.7C662.2 136.5 661.9 134.9 661.2 134C660.5 133.1 659.4 132.6 657.8 132.6C655.8 132.6 654.1 133.6 652.7 135.6V151H648.3V129.4H652.7V129.5Z" fill="black" fill-opacity="0.6"/>
<path d="M675.6 120.4C676.3 120.4 676.9 120.6 677.4 121.1C677.9 121.6 678.2 122.2 678.2 122.9C678.2 123.6 677.9 124.2 677.4 124.7C676.9 125.2 676.3 125.5 675.6 125.5C674.9 125.5 674.4 125.2 673.9 124.7C673.4 124.2 673.1 123.6 673.1 122.9C673.1 122.2 673.4 121.7 673.9 121.2C674.4 120.7 675 120.4 675.6 120.4ZM673.5 129.5H677.8V151.1H673.5V129.5Z" fill="black" fill-opacity="0.6"/>
<path d="M695.1 129.5H703.2V162.1H698.9V150.7C697 151.2 695.5 151.5 694.2 151.5C691.1 151.5 688.6 150.5 686.6 148.4C684.6 146.3 683.6 143.7 683.6 140.5C683.6 137.1 684.6 134.5 686.7 132.5C688.8 130.5 691.6 129.5 695.1 129.5ZM698.9 147V133.5H696.2C694.4 133.5 693.1 133.6 692.5 133.7C691.9 133.9 691.3 134.1 690.9 134.4C690.4 134.7 690 135 689.7 135.5C688.5 136.8 687.9 138.5 687.9 140.4C687.9 142.6 688.6 144.4 689.9 145.8C691.2 147.2 692.9 147.9 695 147.9C695.5 147.9 695.9 147.9 696.2 147.8C696.5 147.7 697.2 147.5 698.3 147.2L698.6 147.1L698.9 147Z" fill="black" fill-opacity="0.6"/>
<path d="M723.6 151.1V148.3C722.7 149.3 721.7 150.1 720.5 150.6C719.3 151.1 718.2 151.4 717 151.4C715.6 151.4 714.4 151.1 713.2 150.4C712 149.7 711.2 148.8 710.6 147.6C710 146.4 709.7 144.5 709.7 141.8V129.4H714V141.7C714 144 714.3 145.5 715 146.4C715.6 147.3 716.8 147.7 718.4 147.7C720.4 147.7 722.2 146.7 723.6 144.7V129.3H727.9V150.9H723.6V151.1Z" fill="black" fill-opacity="0.6"/>
<path d="M753.2 140.7H738C738.1 142.8 738.8 144.4 740.1 145.6C741.4 146.8 743 147.4 745 147.4C747.8 147.4 750.4 146.5 752.8 144.8V149C751.5 149.9 750.2 150.5 748.9 150.9C747.6 151.3 746.1 151.5 744.4 151.5C742 151.5 740.1 151 738.6 150C737.1 149 736 147.7 735.1 146C734.2 144.3 733.8 142.4 733.8 140.2C733.8 136.9 734.7 134.3 736.6 132.2C738.5 130.1 740.9 129.1 743.8 129.1C746.7 129.1 748.9 130.1 750.6 132.1C752.3 134.1 753.2 136.8 753.2 140.1V140.7ZM738.1 138.1H749C748.9 136.4 748.4 135.1 747.5 134.2C746.6 133.3 745.4 132.8 743.8 132.8C742.2 132.8 741 133.3 740 134.2C739 135.1 738.4 136.4 738.1 138.1Z" fill="black" fill-opacity="0.6"/>
<path d="M763 129.5V132.2C764.9 130.1 767.1 129 769.5 129C770.8 129 772.1 129.3 773.3 130C774.5 130.7 775.3 131.6 775.9 132.9C776.5 134.2 776.8 136 776.8 138.7V151H772.5V138.7C772.5 136.5 772.2 134.9 771.5 134C770.8 133.1 769.7 132.6 768.1 132.6C766.1 132.6 764.4 133.6 763 135.6V151H758.6V129.4H763V129.5Z" fill="black" fill-opacity="0.6"/>
<path d="M802.1 140.7H787C787.1 142.8 787.8 144.4 789.1 145.6C790.4 146.8 792 147.4 794 147.4C796.8 147.4 799.4 146.5 801.8 144.8V149C800.5 149.9 799.2 150.5 797.9 150.9C796.6 151.3 795.1 151.5 793.4 151.5C791 151.5 789.1 151 787.6 150C786.1 149 785 147.7 784.1 146C783.2 144.3 782.8 142.4 782.8 140.2C782.8 136.9 783.7 134.3 785.6 132.2C787.5 130.1 789.9 129.1 792.8 129.1C795.7 129.1 797.9 130.1 799.6 132.1C801.3 134.1 802.2 136.8 802.2 140.1V140.7H802.1ZM787 138.1H797.9C797.8 136.4 797.3 135.1 796.4 134.2C795.5 133.3 794.3 132.8 792.7 132.8C791.1 132.8 789.9 133.3 788.9 134.2C787.9 135.1 787.3 136.4 787 138.1Z" fill="black" fill-opacity="0.6"/>
<path d="M806.6 149.5V144.9C807.8 145.7 809 146.4 810.3 147C811.6 147.6 812.6 147.8 813.5 147.8C814.4 147.8 815.2 147.6 815.8 147.1C816.4 146.6 816.8 146.1 816.8 145.5C816.8 144.9 816.6 144.4 816.2 143.9C815.8 143.4 814.9 142.9 813.5 142.1C810.7 140.6 808.9 139.3 808.1 138.2C807.3 137.1 806.8 135.9 806.8 134.6C806.8 132.9 807.4 131.6 808.7 130.5C810 129.4 811.6 128.9 813.7 128.9C815.8 128.9 818 129.5 820.2 130.7V134.9C817.7 133.4 815.6 132.6 814 132.6C813.2 132.6 812.5 132.8 812 133.1C811.5 133.5 811.2 133.9 811.2 134.5C811.2 135 811.4 135.5 811.9 135.9C812.4 136.4 813.2 136.9 814.3 137.5L815.8 138.4C819.4 140.4 821.2 142.7 821.2 145.1C821.2 146.9 820.5 148.3 819.1 149.4C817.7 150.5 815.9 151.1 813.8 151.1C812.5 151.1 811.4 151 810.4 150.7C809.4 150.4 808.2 150.3 806.6 149.5Z" fill="black" fill-opacity="0.6"/>
<path d="M826.1 149.5V144.9C827.3 145.7 828.5 146.4 829.8 147C831.1 147.6 832.1 147.8 833 147.8C833.9 147.8 834.7 147.6 835.3 147.1C835.9 146.6 836.3 146.1 836.3 145.5C836.3 144.9 836.1 144.4 835.7 143.9C835.3 143.4 834.4 142.9 833 142.1C830.2 140.6 828.4 139.3 827.6 138.2C826.8 137.1 826.3 135.9 826.3 134.6C826.3 132.9 826.9 131.6 828.2 130.5C829.5 129.4 831.1 128.9 833.2 128.9C835.3 128.9 837.5 129.5 839.7 130.7V134.9C837.2 133.4 835.1 132.6 833.5 132.6C832.7 132.6 832 132.8 831.5 133.1C831 133.5 830.7 133.9 830.7 134.5C830.7 135 830.9 135.5 831.4 135.9C831.9 136.4 832.7 136.9 833.8 137.5L835.3 138.4C838.9 140.4 840.7 142.7 840.7 145.1C840.7 146.9 840 148.3 838.6 149.4C837.2 150.5 835.4 151.1 833.3 151.1C832 151.1 830.9 151 829.9 150.7C828.9 150.4 827.6 150.3 826.1 149.5Z" fill="black" fill-opacity="0.6"/>
</svg>
