<svg width="133" height="122" viewBox="0 0 133 122" fill="none" xmlns="http://www.w3.org/2000/svg">
<path d="M121.039 55.4576C121.039 62.6732 119.33 68.6127 116.366 73.7008C115.387 75.3766 114.276 76.9717 113.044 78.4708C102.146 91.8002 81.8838 99.0958 63.5709 110.913C9.51451 145.795 3.65917 89.9004 6.10061 55.4576C7.0854 41.5599 12.4976 28.8295 21.096 19.0822C22.9018 17.0322 24.8524 15.1145 26.9329 13.3438C36.6945 5.0306 49.3059 0 63.5709 0C88.0448 0 108.945 14.7615 117.231 35.563C119.751 41.8931 121.043 48.6446 121.039 55.4576V55.4576Z" fill="#2EAADC"/>
<path d="M75.8151 12.4985L21.096 19.0822C22.9018 17.0322 24.8524 15.1145 26.9329 13.3438L75.8151 12.4985Z" fill="white" fill-opacity="0.74"/>
<path d="M116.366 73.7008C115.387 75.3767 114.276 76.9718 113.044 78.4708L66.1724 72.8329L116.366 73.7008Z" fill="white" fill-opacity="0.74"/>
<path d="M119.143 41.2829L39.7063 30.9796L117.231 35.563C117.976 37.4321 118.614 39.3418 119.143 41.2829V41.2829Z" fill="white" fill-opacity="0.74"/>
<path d="M11.4891 14.7722C11.4891 14.9137 11.485 15.0532 11.4727 15.1907C11.4106 16.0427 11.1592 16.8701 10.7369 17.6127C10.3145 18.3552 9.73189 18.9942 9.03137 19.4831C8.33086 19.972 7.5301 20.2986 6.68745 20.4389C5.84479 20.5792 4.98145 20.5298 4.1603 20.2943C3.33915 20.0587 2.58088 19.643 1.94071 19.0774C1.30054 18.5117 0.79459 17.8105 0.45972 17.0246C0.12485 16.2387 -0.0305117 15.388 0.00495221 14.5345C0.0404161 13.6809 0.265816 12.8461 0.664726 12.0907C0.788234 11.854 0.929518 11.6269 1.08736 11.4116C1.77435 10.4588 2.73702 9.73955 3.84553 9.35094C4.95405 8.96233 6.15507 8.92304 7.28662 9.23835C8.41817 9.55366 9.4258 10.2084 10.1736 11.1143C10.9214 12.0202 11.3734 13.1336 11.4686 14.3044C11.483 14.4583 11.4891 14.6142 11.4891 14.7722Z" fill="#2EAADC"/>
<path d="M11.4891 14.7722C11.4891 14.9137 11.485 15.0532 11.4727 15.1907L2.87228 14.1567L11.4686 14.3044C11.483 14.4582 11.4891 14.6142 11.4891 14.7722Z" fill="white" fill-opacity="0.74"/>
<path d="M9.4375 17.667L1.48127 18.6251C1.25543 18.3733 1.05222 18.1022 0.873993 17.8147L9.4375 17.667Z" fill="white" fill-opacity="0.74"/>
<path d="M7.18071 11.307L0.664734 12.0907C0.788242 11.854 0.929525 11.627 1.08737 11.4116L7.18071 11.307Z" fill="white" fill-opacity="0.74"/>
<path d="M90.217 118.2C90.1506 118.325 90.0816 118.447 90.0063 118.562C89.552 119.286 88.9421 119.899 88.2209 120.357C87.4998 120.815 86.6856 121.106 85.8376 121.209C84.9897 121.313 84.1293 121.226 83.3192 120.955C82.5091 120.684 81.7696 120.235 81.1547 119.642C80.5398 119.049 80.0648 118.327 79.7645 117.527C79.4642 116.727 79.346 115.871 79.4186 115.019C79.4913 114.168 79.7528 113.344 80.1842 112.607C80.6157 111.869 81.2061 111.238 81.9126 110.757C82.1327 110.606 82.3639 110.472 82.6043 110.356C83.6577 109.836 84.8452 109.652 86.0066 109.828C87.1679 110.005 88.2472 110.533 89.0989 111.342C89.9506 112.151 90.5338 113.202 90.7697 114.352C91.0056 115.503 90.8829 116.699 90.4182 117.777C90.3587 117.92 90.291 118.061 90.217 118.2Z" fill="#2EAADC"/>
<path d="M90.217 118.2C90.1506 118.325 90.0816 118.447 90.0063 118.562L82.8941 113.617L90.4182 117.777C90.3587 117.92 90.2911 118.061 90.217 118.2Z" fill="white" fill-opacity="0.74"/>
<path d="M87.0477 119.795L79.5707 116.912C79.4892 116.584 79.4368 116.249 79.4142 115.912L87.0477 119.795Z" fill="white" fill-opacity="0.74"/>
<path d="M88.0357 113.12L81.9126 110.757C82.1327 110.606 82.3639 110.472 82.6043 110.356L88.0357 113.12Z" fill="white" fill-opacity="0.74"/>
<path d="M130.903 19.173C131.002 19.2743 131.097 19.3771 131.184 19.4841C131.734 20.1374 132.132 20.9053 132.348 21.7317C132.564 22.5582 132.593 23.4225 132.433 24.2616C132.273 25.1007 131.928 25.8935 131.422 26.5823C130.917 27.2711 130.264 27.8386 129.512 28.2433C128.76 28.648 127.927 28.8798 127.073 28.9218C126.22 28.9639 125.368 28.815 124.58 28.4862C123.792 28.1574 123.086 27.6569 122.516 27.0211C121.945 26.3853 121.524 25.6302 121.282 24.8109C121.205 24.5552 121.148 24.294 121.11 24.0297C120.937 22.8679 121.124 21.6808 121.646 20.6287C122.168 19.5765 123.001 18.7098 124.031 18.1455C125.061 17.5812 126.24 17.3464 127.408 17.4728C128.575 17.5992 129.676 18.0807 130.562 18.8524C130.68 18.9526 130.793 19.0599 130.903 19.173Z" fill="#2EAADC"/>
<path d="M130.903 19.173C131.002 19.2743 131.097 19.3771 131.184 19.4841L124.305 24.7486L130.562 18.8524C130.68 18.9526 130.793 19.0599 130.903 19.173Z" fill="white" fill-opacity="0.74"/>
<path d="M131.456 22.6779L126.429 28.9188C126.091 28.8963 125.757 28.844 125.428 28.7627L131.456 22.6779Z" fill="white" fill-opacity="0.74"/>
<path d="M125.4 19.7004L121.282 24.8109C121.205 24.5552 121.148 24.2941 121.11 24.0297L125.4 19.7004Z" fill="white" fill-opacity="0.74"/>
<path d="M17.5108 66.3049L17.4155 66.2923L17.6479 67.1758C17.8676 68.4085 18.1867 69.6213 18.6019 70.8025L25.4188 96.7162C25.6363 97.5432 26.0906 98.2888 26.7259 98.8614C27.3612 99.4339 28.1498 99.8086 28.9949 99.9393L42.8967 102.09C43.7956 102.229 44.7155 102.086 45.5294 101.679C46.3433 101.273 47.0109 100.624 47.4403 99.8225L60.6515 75.1463C61.0643 74.4626 61.4415 73.7581 61.7816 73.0355L62.2302 72.1977L62.1602 72.1884C63.5607 68.8755 64.1771 65.2839 63.9615 61.6936C63.7459 58.1033 62.704 54.6113 60.9171 51.4898C59.1302 48.3683 56.6465 45.7016 53.6597 43.6977C50.6729 41.6938 47.2637 40.4067 43.6977 39.9368C40.1318 39.4669 36.5055 39.8269 33.1015 40.9887C29.6976 42.1505 26.6079 44.0828 24.0734 46.6348C21.5389 49.1869 19.6279 52.2898 18.4896 55.7017C17.3513 59.1136 17.0163 62.7422 17.5108 66.3049H17.5108Z" fill="black" fill-opacity="0.6"/>
<path d="M43.7498 103.783C43.505 103.783 43.2605 103.764 43.0185 103.727L28.4873 101.478C27.5643 101.336 26.7031 100.927 26.0094 100.302C25.3157 99.6763 24.8196 98.8621 24.5822 97.9589L17.4568 70.872C17.0213 69.632 16.6866 68.3588 16.456 67.065L16.2758 65.88C15.791 62.0943 16.1927 58.2477 17.4494 54.644C18.706 51.0402 20.7831 47.7778 23.5167 45.1144C26.2504 42.451 29.5657 40.4595 33.2009 39.297C36.8362 38.1346 40.6919 37.833 44.4637 38.4162L44.4008 38.8217C40.6701 38.2468 36.8566 38.5517 33.2647 39.7121C29.6728 40.8726 26.4017 42.8564 23.7126 45.5053C21.0234 48.1543 18.9905 51.395 17.776 54.9691C16.5616 58.5431 16.1992 62.3515 16.7179 66.0904L16.8564 66.9768C17.0853 68.2598 17.4172 69.5222 17.8488 70.7518L24.9791 97.8545C25.1962 98.6804 25.6497 99.425 26.2841 99.9968C26.9185 100.569 27.706 100.943 28.55 101.073L43.0812 103.321C43.9788 103.459 44.897 103.315 45.7095 102.91C46.522 102.504 47.1889 101.857 47.6183 101.057L47.9801 101.25C47.5695 102.015 46.9594 102.655 46.2145 103.101C45.4697 103.547 44.6179 103.782 43.7498 103.783V103.783Z" fill="white" fill-opacity="0.74"/>
<path d="M47.4358 72.1949L38.5941 96.3366L39.0924 96.5191L47.9342 72.3775L47.4358 72.1949Z" fill="white" fill-opacity="0.74"/>
<path d="M32.9993 69.9611L32.4691 69.9844L33.5976 95.6695L34.1278 95.6462L32.9993 69.9611Z" fill="white" fill-opacity="0.74"/>
<path d="M42.5214 116.063L23.9013 113.182C23.7628 113.16 23.6388 113.084 23.5563 112.971C23.4738 112.857 23.4395 112.716 23.461 112.577C23.4824 112.439 23.5578 112.314 23.6707 112.231C23.7836 112.148 23.9249 112.113 24.0636 112.133L42.6836 115.014C42.7528 115.024 42.8193 115.048 42.8793 115.084C42.9392 115.12 42.9914 115.168 43.0329 115.224C43.0744 115.28 43.1043 115.344 43.121 115.412C43.1377 115.48 43.1408 115.551 43.1301 115.62C43.1194 115.689 43.0951 115.756 43.0587 115.815C43.0223 115.875 42.9744 115.927 42.9178 115.968C42.8612 116.009 42.7971 116.039 42.729 116.055C42.661 116.071 42.5904 116.074 42.5214 116.063V116.063Z" fill="black" fill-opacity="0.6"/>
<path d="M42.9988 112.109L24.3788 109.228C24.3096 109.218 24.2431 109.194 24.1831 109.158C24.1232 109.122 24.071 109.074 24.0295 109.018C23.988 108.962 23.9581 108.898 23.9414 108.83C23.9247 108.762 23.9216 108.691 23.9323 108.622C23.943 108.553 23.9673 108.487 24.0037 108.427C24.0401 108.367 24.088 108.315 24.1446 108.274C24.2012 108.233 24.2653 108.203 24.3334 108.187C24.4014 108.171 24.472 108.168 24.541 108.179L43.1611 111.06C43.2303 111.07 43.2968 111.094 43.3567 111.13C43.4167 111.166 43.4689 111.214 43.5104 111.27C43.5519 111.326 43.5818 111.39 43.5985 111.458C43.6152 111.526 43.6182 111.597 43.6075 111.666C43.5968 111.735 43.5726 111.801 43.5362 111.861C43.4997 111.921 43.4519 111.973 43.3953 112.014C43.3387 112.055 43.2746 112.085 43.2065 112.101C43.1385 112.117 43.0679 112.12 42.9988 112.109V112.109Z" fill="black" fill-opacity="0.6"/>
<path d="M43.4763 108.155L24.8562 105.274C24.7178 105.252 24.5937 105.176 24.5112 105.062C24.4287 104.949 24.3944 104.808 24.4159 104.669C24.4373 104.53 24.5127 104.406 24.6256 104.323C24.7386 104.24 24.8798 104.205 25.0185 104.225L43.6386 107.106C43.777 107.128 43.901 107.204 43.9835 107.318C44.066 107.431 44.1003 107.572 44.0789 107.711C44.0574 107.85 43.982 107.974 43.8691 108.057C43.7562 108.14 43.615 108.175 43.4763 108.155H43.4763Z" fill="black" fill-opacity="0.6"/>
<path d="M32.6325 118.364C36.3259 118.935 39.6384 117.34 40.0313 114.801L26.6563 112.732C26.2635 115.271 28.9391 117.793 32.6325 118.364Z" fill="black" fill-opacity="0.6"/>
<path d="M114.627 67.1088C113.833 66.986 113.176 66.358 112.815 65.9371C112.697 65.7991 112.582 65.6559 112.467 65.5125C112.047 64.9901 111.651 64.4968 111.099 64.2395C109.881 63.6712 108.446 64.465 107.203 65.3166L106.903 64.8789C108.269 63.9423 109.862 63.0771 111.323 63.7584C111.987 64.068 112.441 64.6333 112.88 65.18C112.992 65.3192 113.104 65.458 113.218 65.5919C113.593 66.0295 114.34 66.7385 115.141 66.575C115.479 66.4766 115.792 66.3105 116.063 66.0867C116.27 65.9326 116.488 65.7949 116.716 65.6749C117.178 65.4532 117.696 65.3732 118.204 65.445C118.711 65.5167 119.186 65.737 119.569 66.0781C119.706 66.2074 119.835 66.3441 119.956 66.4876C120.195 66.7598 120.421 67.0166 120.714 67.11C121.148 67.2487 121.606 67.0007 122.092 66.7388C122.593 66.4684 123.111 66.1888 123.698 66.2578C123.718 66.26 123.737 66.2626 123.756 66.2656C124.801 66.4273 125.283 67.5835 125.556 68.4463L125.05 68.6061C124.679 67.4332 124.228 66.85 123.636 66.7849C123.215 66.7354 122.792 66.9639 122.344 67.2058C121.782 67.5091 121.201 67.8226 120.553 67.6157C120.119 67.4776 119.833 67.1523 119.557 66.8377C119.449 66.7089 119.333 66.5861 119.211 66.4698C118.906 66.2029 118.53 66.0305 118.129 65.9738C117.728 65.917 117.319 65.9784 116.952 66.1505C116.749 66.2585 116.554 66.3821 116.37 66.52C116.04 66.7886 115.658 66.9845 115.248 67.095C115.043 67.1366 114.833 67.1412 114.627 67.1088Z" fill="white" fill-opacity="0.74"/>
</svg>
