<svg width="145" height="141" viewBox="0 0 145 141" fill="none" xmlns="http://www.w3.org/2000/svg">
<g clip-path="url(#clip0_360_3105)">
<path d="M91.7665 31.7104H52.8164C51.9288 31.7115 51.0779 32.0643 50.4503 32.6915C49.8227 33.3187 49.4696 34.1691 49.4685 35.056V121.562L49.0221 121.698L39.467 124.622C39.0142 124.76 38.5251 124.713 38.107 124.491C37.689 124.269 37.3762 123.89 37.2374 123.438L8.8154 30.6644C8.67709 30.2119 8.72423 29.723 8.94647 29.3052C9.16871 28.8873 9.54785 28.5748 10.0006 28.4362L24.7249 23.9308L67.4113 10.8741L82.1356 6.36864C82.3596 6.29973 82.5951 6.27565 82.8285 6.29778C83.0619 6.31991 83.2887 6.38782 83.4958 6.49761C83.7029 6.60741 83.8863 6.75694 84.0355 6.93766C84.1847 7.11837 84.2968 7.32671 84.3653 7.55076L91.6304 31.2644L91.7665 31.7104Z" fill="#F2F2F2"/>
<path d="M100.266 31.2652L91.5105 2.68491C91.3648 2.20871 91.1266 1.76586 90.8096 1.38167C90.4926 0.997475 90.103 0.679472 89.6629 0.445829C89.2229 0.212185 88.7411 0.0674776 88.245 0.0199815C87.749 -0.0275146 87.2485 0.0231312 86.772 0.16902L66.0705 6.50112L23.3864 19.5601L2.68492 25.8944C1.72324 26.1895 0.918007 26.8539 0.445977 27.7416C-0.0260528 28.6294 -0.126319 29.668 0.167192 30.6296L30.0934 128.305C30.3319 129.082 30.813 129.761 31.4661 130.244C32.1193 130.727 32.9102 130.988 33.7227 130.989C34.0987 130.989 34.4726 130.932 34.8319 130.821L49.0228 126.481L49.4692 126.343V125.877L49.0228 126.013L34.7003 130.395C33.8514 130.654 32.9345 130.565 32.1508 130.149C31.3671 129.733 30.7806 129.024 30.5198 128.176L0.595822 30.498C0.466611 30.078 0.421578 29.6366 0.463299 29.1992C0.50502 28.7618 0.632673 28.3369 0.838956 27.9488C1.04524 27.5608 1.3261 27.2172 1.66545 26.9378C2.00479 26.6584 2.39597 26.4486 2.81656 26.3204L23.5181 19.9861L66.2023 6.92936L86.9038 0.59503C87.2228 0.49774 87.5545 0.448133 87.888 0.447823C88.6038 0.449429 89.3003 0.680043 89.8755 1.10589C90.4506 1.53173 90.8743 2.13042 91.0842 2.81428L99.8 31.2652L99.9384 31.7113H100.403L100.266 31.2652Z" fill="#3F3D56"/>
<path d="M27.382 28.5091C26.9518 28.5088 26.533 28.3708 26.1871 28.1152C25.8412 27.8596 25.5864 27.5 25.46 27.0891L22.5851 17.7054C22.5079 17.4534 22.4811 17.1886 22.5062 16.9261C22.5314 16.6637 22.6081 16.4088 22.7318 16.176C22.8556 15.9432 23.024 15.7371 23.2275 15.5693C23.431 15.4016 23.6656 15.2755 23.9179 15.1984L63.1869 3.18463C63.6963 3.02929 64.2466 3.08227 64.717 3.33194C65.1873 3.58161 65.5394 4.00757 65.6958 4.51634L68.5707 13.9001C68.726 14.4092 68.6729 14.959 68.4231 15.4291C68.1733 15.8991 67.7471 16.2509 67.238 16.4073L27.9689 28.421C27.7787 28.4794 27.5809 28.509 27.382 28.5091Z" fill="#2EAADC"/>
<path d="M42.4417 10.0267C44.907 10.0267 46.9056 8.02952 46.9056 5.56589C46.9056 3.10226 44.907 1.10509 42.4417 1.10509C39.9763 1.10509 37.9777 3.10226 37.9777 5.56589C37.9777 8.02952 39.9763 10.0267 42.4417 10.0267Z" fill="#6E00EE"/>
<path d="M42.4417 8.39059C44.0028 8.39059 45.2684 7.12592 45.2684 5.56587C45.2684 4.00583 44.0028 2.74116 42.4417 2.74116C40.8805 2.74116 39.615 4.00583 39.615 5.56587C39.615 7.12592 40.8805 8.39059 42.4417 8.39059Z" fill="white"/>
<path d="M134.507 129.848H59.066C58.563 129.847 58.0808 129.647 57.7251 129.292C57.3695 128.937 57.1694 128.455 57.1688 127.952V37.621C57.1694 37.1184 57.3694 36.6365 57.7251 36.2811C58.0808 35.9256 58.563 35.7257 59.066 35.7252H134.507C135.009 35.7257 135.492 35.9257 135.847 36.2811C136.203 36.6365 136.403 37.1184 136.404 37.621V127.952C136.403 128.455 136.203 128.937 135.847 129.292C135.492 129.647 135.009 129.847 134.507 129.848Z" fill="#E6E6E6"/>
<path d="M99.7994 31.2644H52.8164C51.8106 31.2658 50.8463 31.6657 50.135 32.3765C49.4237 33.0873 49.0235 34.0509 49.0221 35.056V126.012L49.4685 125.876V35.056C49.4696 34.1691 49.8226 33.3187 50.4503 32.6915C51.0779 32.0643 51.9288 31.7115 52.8164 31.7104H99.9378L99.7994 31.2644ZM140.756 31.2644H52.8164C51.8106 31.2658 50.8463 31.6657 50.135 32.3765C49.4237 33.0873 49.0235 34.0509 49.0221 35.056V137.208C49.0235 138.214 49.4237 139.177 50.135 139.888C50.8463 140.599 51.8106 140.999 52.8164 141H140.756C141.762 140.999 142.726 140.599 143.437 139.888C144.149 139.177 144.549 138.214 144.55 137.208V35.056C144.549 34.0509 144.149 33.0873 143.437 32.3765C142.726 31.6657 141.762 31.2658 140.756 31.2644ZM144.104 137.208C144.103 138.095 143.75 138.946 143.122 139.573C142.495 140.2 141.644 140.553 140.756 140.554H52.8164C51.9288 140.553 51.0779 140.2 50.4503 139.573C49.8226 138.946 49.4696 138.095 49.4685 137.208V35.056C49.4696 34.1691 49.8226 33.3187 50.4503 32.6915C51.0779 32.0643 51.9288 31.7115 52.8164 31.7104H140.756C141.644 31.7115 142.495 32.0643 143.122 32.6915C143.75 33.3187 144.103 34.1691 144.104 35.056V137.208Z" fill="#3F3D56"/>
<path d="M117.32 41.0781H76.2522C75.7196 41.0775 75.209 40.8658 74.8324 40.4895C74.4558 40.1132 74.244 39.603 74.2434 39.0708V29.257C74.244 28.7248 74.4558 28.2146 74.8324 27.8382C75.209 27.4619 75.7196 27.2502 76.2522 27.2496H117.32C117.853 27.2502 118.364 27.4619 118.74 27.8382C119.117 28.2146 119.329 28.7248 119.329 29.257V39.0708C119.329 39.603 119.117 40.1132 118.74 40.4895C118.364 40.8658 117.853 41.0775 117.32 41.0781Z" fill="#2EAADC"/>
<path d="M96.7862 27.9188C99.2516 27.9188 101.25 25.9216 101.25 23.458C101.25 20.9943 99.2516 18.9972 96.7862 18.9972C94.3208 18.9972 92.3223 20.9943 92.3223 23.458C92.3223 25.9216 94.3208 27.9188 96.7862 27.9188Z" fill="#6E00EE"/>
<path d="M96.7862 26.175C98.2878 26.175 99.5052 24.9586 99.5052 23.458C99.5052 21.9574 98.2878 20.7409 96.7862 20.7409C95.2846 20.7409 94.0673 21.9574 94.0673 23.458C94.0673 24.9586 95.2846 26.175 96.7862 26.175Z" fill="white"/>
</g>
<defs>
<clipPath id="clip0_360_3105">
<rect width="144.55" height="141" fill="white"/>
</clipPath>
</defs>
</svg>
