<svg width="133" height="122" viewBox="0 0 133 122" fill="none" xmlns="http://www.w3.org/2000/svg">
<g clip-path="url(#clip0_1230_13167)">
<path d="M203.829 151.156H191.925V151.246H203.829V151.156Z" fill="#EBEBEB"/>
<path d="M161.181 152.131H158.056V152.221H161.181V152.131Z" fill="#EBEBEB"/>
<path d="M191.564 147.82H184.669V147.91H191.564V147.82Z" fill="#EBEBEB"/>
<path d="M76.5235 148.422H61.001V148.512H76.5235V148.422Z" fill="#EBEBEB"/>
<path d="M81.9962 148.422H79.7202V148.512H81.9962V148.422Z" fill="#EBEBEB"/>
<path d="M123.061 149.939H89.3965V150.029H123.061V149.939Z" fill="#EBEBEB"/>
<path d="M127.324 129.341H57.9302C56.7982 129.341 55.877 128.419 55.877 127.287V29.7505C55.877 28.6185 56.7982 27.6973 57.9302 27.6973H127.324C128.456 27.6973 129.377 28.6185 129.377 29.7505V127.293C129.377 128.425 128.456 129.347 127.324 129.347V129.341ZM57.9302 27.7876C56.8464 27.7876 55.9673 28.6667 55.9673 29.7505V127.293C55.9673 128.377 56.8464 129.256 57.9302 129.256H127.324C128.408 129.256 129.287 128.377 129.287 127.293V29.7505C129.287 28.6667 128.408 27.7876 127.324 27.7876H57.9302Z" fill="#EBEBEB"/>
<path d="M205.051 129.341H135.657C134.525 129.341 133.604 128.419 133.604 127.287V29.7505C133.604 28.6185 134.525 27.6973 135.657 27.6973H205.051C206.183 27.6973 207.104 28.6185 207.104 29.7505V127.293C207.104 128.425 206.183 129.347 205.051 129.347V129.341ZM135.657 27.7876C134.573 27.7876 133.694 28.6667 133.694 29.7505V127.293C133.694 128.377 134.573 129.256 135.657 129.256H205.051C206.135 129.256 207.014 128.377 207.014 127.293V29.7505C207.014 28.6667 206.135 27.7876 205.051 27.7876H135.657Z" fill="#EBEBEB"/>
<path d="M221.832 145.369H42.1484V145.459H221.832V145.369Z" fill="#EBEBEB"/>
<path d="M68.5515 143.243H99.0366V102.679H68.5515V143.243Z" fill="#F0F0F0"/>
<path d="M62.7353 143.243H68.5518V102.679H62.7353L62.7353 143.243Z" fill="#E6E6E6"/>
<path d="M70.5262 115.54H96.8989V105.69H70.5262V115.54Z" fill="#FAFAFA"/>
<path d="M87.1506 105.69L87.0362 107.002C87.0001 107.436 86.6328 107.767 86.1992 107.767H81.2258C80.7922 107.767 80.431 107.436 80.3888 107.002L80.2744 105.69H87.1506Z" fill="#EBEBEB"/>
<path d="M70.5262 126.469H96.8989V116.618H70.5262V126.469Z" fill="#FAFAFA"/>
<path d="M87.1506 116.618L87.0362 117.931C87.0001 118.364 86.6328 118.695 86.1992 118.695H81.2258C80.7922 118.695 80.431 118.364 80.3888 117.931L80.2744 116.618H87.1506Z" fill="#EBEBEB"/>
<path d="M70.5262 137.391H96.8989V127.54H70.5262V137.391Z" fill="#FAFAFA"/>
<path d="M87.1506 127.546L87.0362 128.859C87.0001 129.293 86.6328 129.624 86.1992 129.624H81.2258C80.7922 129.624 80.431 129.293 80.3888 128.859L80.2744 127.546H87.1506Z" fill="#EBEBEB"/>
<path d="M70.5264 145.273H96.58L96.8991 143.243H70.5264V145.273Z" fill="#E6E6E6"/>
<path d="M65.0834 145.273H70.5266V143.243H64.7583L65.0834 145.273Z" fill="#E0E0E0"/>
<path d="M82.7737 102.721H93.1843L92.0283 89.5227H81.6177L82.7737 102.721Z" fill="#FAFAFA"/>
<path d="M82.7735 102.721H82.2737L81.1177 89.5227H81.6174L82.7735 102.721Z" fill="#EBEBEB"/>
<path d="M83.7126 101.378H92.0037L91.0825 90.8655H82.7974L83.7126 101.378Z" fill="#F0F0F0"/>
<path d="M84.3208 100.511H91.2452L90.4745 91.7324H83.5562L84.3208 100.511Z" fill="#E6E6E6"/>
<path d="M79.8473 102.721L80.5638 94.5503H70.2014L69.4849 102.721H79.8473Z" fill="#F0F0F0"/>
<path d="M79.8472 102.721L80.5637 94.5503H81.1176L80.4071 102.721H79.8472Z" fill="#E0E0E0"/>
<path d="M78.8659 101.89L79.4318 95.3872H71.1829L70.6108 101.89H78.8659Z" fill="#EBEBEB"/>
<path d="M78.2336 101.354L78.7093 95.9172H71.815L71.3394 101.354H78.2336Z" fill="#F5F5F5"/>
<path d="M125.542 109.29H127.992V144.61C127.992 145.002 127.673 145.327 127.276 145.327H126.252C125.861 145.327 125.536 145.008 125.536 144.61V109.29H125.542Z" fill="#F0F0F0"/>
<path d="M196.79 106.087H191.154V105.587C191.154 104.606 191.979 103.823 192.961 103.877L195.164 103.998C196.074 104.046 196.784 104.798 196.784 105.708V106.087H196.79Z" fill="#F0F0F0"/>
<path d="M181.581 94.442C181.557 93.9964 181.195 93.6472 180.75 93.6472H175.06C174.614 93.6472 174.247 93.9964 174.229 94.442L175.578 106.304H184.074L181.581 94.442Z" fill="#E0E0E0"/>
<path d="M197.043 76.2038H194.924L192.54 98.6085H194.659C195.008 98.6085 195.327 98.3255 195.363 97.9703L197.609 76.836C197.645 76.4868 197.393 76.1978 197.043 76.1978V76.2038Z" fill="#E0E0E0"/>
<path d="M193.762 98.6085H161.97C161.621 98.6085 161.362 98.3255 161.404 97.9703L163.65 76.836C163.686 76.4868 164.005 76.1978 164.354 76.1978H196.146C196.495 76.1978 196.754 76.4807 196.712 76.836L194.466 97.9703C194.43 98.3195 194.111 98.6085 193.762 98.6085Z" fill="#EBEBEB"/>
<path d="M193.166 96.5376H163.187C162.879 96.5376 162.657 96.2908 162.693 95.9837L164.656 77.5469C164.686 77.2398 164.963 76.9929 165.27 76.9929H195.249C195.556 76.9929 195.779 77.2398 195.743 77.5469L193.78 95.9837C193.75 96.2908 193.473 96.5376 193.166 96.5376Z" fill="#E0E0E0"/>
<path d="M184.393 105.382H173.946C173.69 105.382 173.482 105.589 173.482 105.843C173.482 106.097 173.69 106.304 173.946 106.304H184.393C184.649 106.304 184.856 106.097 184.856 105.843C184.856 105.589 184.649 105.382 184.393 105.382Z" fill="#E0E0E0"/>
<path d="M163.078 96.5373L171.989 88.7941C172.832 88.0595 173.916 88.0595 174.409 88.7941L179.57 96.5373H163.084H163.078Z" fill="#EBEBEB"/>
<path d="M171.989 88.7943L163.078 96.5375H171.622C170.767 96.104 168.762 95.8752 169.002 94.8937C169.316 93.6112 173.284 94.0568 173.579 92.8405C173.874 91.6242 171.038 92.0035 171.399 90.5284C171.586 89.7516 172.32 88.9147 172.976 88.2825C172.645 88.3547 172.302 88.5233 171.989 88.7943Z" fill="#F5F5F5"/>
<path d="M176.186 96.5373L180.136 92.6296C180.509 92.2563 180.991 92.2563 181.208 92.6296L183.496 96.5373H176.186Z" fill="#EBEBEB"/>
<path d="M180.136 92.6295L176.186 96.5373H179.973C179.594 96.3205 178.709 96.2061 178.811 95.7063C178.95 95.056 180.708 95.2849 180.84 94.6707C180.973 94.0565 179.714 94.2492 179.871 93.5026C179.955 93.1112 180.28 92.6897 180.569 92.3706C180.419 92.4067 180.268 92.491 180.13 92.6295H180.136Z" fill="#FAFAFA"/>
<path d="M182.942 96.5373L188.475 92.6296C188.999 92.2563 189.673 92.2563 189.974 92.6296L193.178 96.5373H182.936H182.942Z" fill="#EBEBEB"/>
<path d="M188.475 92.6295L182.941 96.5373H188.246C187.716 96.3205 186.47 96.2061 186.62 95.7063C186.813 95.056 189.282 95.2849 189.462 94.6707C189.643 94.0565 187.885 94.2492 188.108 93.5026C188.222 93.1112 188.68 92.6897 189.089 92.3706C188.884 92.4067 188.668 92.491 188.475 92.6295Z" fill="#FAFAFA"/>
<path d="M189.878 84.8383C189.463 86.8072 187.53 88.3968 185.561 88.3968C183.592 88.3968 182.34 86.8012 182.755 84.8383C183.171 82.8694 185.104 81.2798 187.073 81.2798C189.041 81.2798 190.294 82.8754 189.878 84.8383Z" fill="#F0F0F0"/>
<path opacity="0.8" d="M189.878 84.8383C189.463 86.8072 187.53 88.3968 185.561 88.3968C183.592 88.3968 182.34 86.8012 182.755 84.8383C183.171 82.8694 185.104 81.2798 187.073 81.2798C189.041 81.2798 190.294 82.8754 189.878 84.8383Z" fill="white"/>
<path d="M201.39 106.087H180.154V109.29H201.39V106.087Z" fill="#E6E6E6"/>
<path d="M140.721 109.29H143.171V144.61C143.171 145.002 142.852 145.327 142.455 145.327H141.431C141.04 145.327 140.715 145.008 140.715 144.61V109.29H140.721Z" fill="#E6E6E6"/>
<path d="M197.525 109.29H199.975V144.61C199.975 145.002 199.656 145.327 199.259 145.327H198.235C197.844 145.327 197.519 145.008 197.519 144.61V109.29H197.525Z" fill="#E6E6E6"/>
<path d="M186.211 106.087H124.126V109.29H186.211V106.087Z" fill="#F5F5F5"/>
<path d="M182.345 109.29H184.796V144.61C184.796 145.002 184.477 145.327 184.079 145.327H183.056C182.664 145.327 182.339 145.008 182.339 144.61V109.29H182.345Z" fill="#F0F0F0"/>
<path d="M165.101 105.334H164.306C164.222 105.334 164.155 105.268 164.155 105.184V104.347C164.155 104.263 164.222 104.196 164.306 104.196H164.878C164.944 104.196 165.004 104.244 165.022 104.311L165.245 105.148C165.269 105.244 165.197 105.34 165.101 105.34V105.334Z" fill="#F5F5F5"/>
<path d="M166.197 105.334H165.402C165.318 105.334 165.251 105.268 165.251 105.184V104.347C165.251 104.263 165.318 104.196 165.402 104.196H165.974C166.04 104.196 166.1 104.244 166.119 104.311L166.341 105.148C166.365 105.244 166.293 105.34 166.197 105.34V105.334Z" fill="#F5F5F5"/>
<path d="M167.292 105.334H166.498C166.413 105.334 166.347 105.268 166.347 105.184V104.347C166.347 104.263 166.413 104.196 166.498 104.196H167.07C167.136 104.196 167.196 104.244 167.214 104.311L167.437 105.148C167.461 105.244 167.389 105.34 167.292 105.34V105.334Z" fill="#F5F5F5"/>
<path d="M168.388 105.334H167.593C167.509 105.334 167.443 105.268 167.443 105.184V104.347C167.443 104.263 167.509 104.196 167.593 104.196H168.165C168.232 104.196 168.292 104.244 168.31 104.311L168.533 105.148C168.557 105.244 168.485 105.34 168.388 105.34V105.334Z" fill="#F5F5F5"/>
<path d="M169.484 105.334H168.689C168.605 105.334 168.539 105.268 168.539 105.184V104.347C168.539 104.263 168.605 104.196 168.689 104.196H169.261C169.327 104.196 169.388 104.244 169.406 104.311L169.628 105.148C169.652 105.244 169.58 105.34 169.484 105.34V105.334Z" fill="#F5F5F5"/>
<path d="M170.58 105.334H169.785C169.701 105.334 169.635 105.268 169.635 105.184V104.347C169.635 104.263 169.701 104.196 169.785 104.196H170.357C170.424 104.196 170.484 104.244 170.502 104.311L170.725 105.148C170.749 105.244 170.676 105.34 170.58 105.34V105.334Z" fill="#F5F5F5"/>
<path d="M171.676 105.334H170.881C170.797 105.334 170.73 105.268 170.73 105.184V104.347C170.73 104.263 170.797 104.196 170.881 104.196H171.453C171.519 104.196 171.579 104.244 171.598 104.311L171.82 105.148C171.844 105.244 171.772 105.34 171.676 105.34V105.334Z" fill="#F5F5F5"/>
<path d="M172.771 105.334H171.977C171.892 105.334 171.826 105.268 171.826 105.184V104.347C171.826 104.263 171.892 104.196 171.977 104.196H172.549C172.615 104.196 172.675 104.244 172.693 104.311L172.916 105.148C172.94 105.244 172.868 105.34 172.771 105.34V105.334Z" fill="#F5F5F5"/>
<path d="M173.868 105.334H173.073C172.989 105.334 172.922 105.268 172.922 105.184V104.347C172.922 104.263 172.989 104.196 173.073 104.196H173.645C173.711 104.196 173.771 104.244 173.789 104.311L174.012 105.148C174.036 105.244 173.964 105.34 173.868 105.34V105.334Z" fill="#F5F5F5"/>
<path d="M174.963 105.334H174.169C174.084 105.334 174.018 105.268 174.018 105.184V104.347C174.018 104.263 174.084 104.196 174.169 104.196H174.741C174.807 104.196 174.867 104.244 174.885 104.311L175.108 105.148C175.132 105.244 175.06 105.34 174.963 105.34V105.334Z" fill="#F5F5F5"/>
<path d="M176.059 105.334H175.264C175.18 105.334 175.114 105.268 175.114 105.184V104.347C175.114 104.263 175.18 104.196 175.264 104.196H175.836C175.903 104.196 175.963 104.244 175.981 104.311L176.204 105.148C176.228 105.244 176.155 105.34 176.059 105.34V105.334Z" fill="#F5F5F5"/>
<path d="M177.155 105.334H176.36C176.276 105.334 176.21 105.268 176.21 105.184V104.347C176.21 104.263 176.276 104.196 176.36 104.196H176.933C176.999 104.196 177.059 104.244 177.077 104.311L177.3 105.148C177.324 105.244 177.252 105.34 177.155 105.34V105.334Z" fill="#F5F5F5"/>
<path d="M178.251 105.334H177.456C177.372 105.334 177.306 105.268 177.306 105.184V104.347C177.306 104.263 177.372 104.196 177.456 104.196H178.028C178.094 104.196 178.155 104.244 178.173 104.311L178.395 105.148C178.42 105.244 178.347 105.34 178.251 105.34V105.334Z" fill="#F5F5F5"/>
<path d="M179.347 105.334H178.552C178.468 105.334 178.401 105.268 178.401 105.184V104.347C178.401 104.263 178.468 104.196 178.552 104.196H179.124C179.19 104.196 179.25 104.244 179.268 104.311L179.491 105.148C179.515 105.244 179.443 105.34 179.347 105.34V105.334Z" fill="#F5F5F5"/>
<path d="M180.442 105.334H179.648C179.563 105.334 179.497 105.268 179.497 105.184V104.347C179.497 104.263 179.563 104.196 179.648 104.196H180.22C180.286 104.196 180.346 104.244 180.364 104.311L180.587 105.148C180.611 105.244 180.539 105.34 180.442 105.34V105.334Z" fill="#F5F5F5"/>
<path d="M181.237 104.762H163.511V106.081H181.237V104.762Z" fill="#EBEBEB"/>
<path d="M130.612 159.964C169.093 159.964 200.288 158.142 200.288 155.894C200.288 153.646 169.093 151.824 130.612 151.824C92.13 151.824 60.9346 153.646 60.9346 155.894C60.9346 158.142 92.13 159.964 130.612 159.964Z" fill="#F5F5F5"/>
<path d="M30.2327 110.441H168.779L161.538 6.97485H23L30.2327 110.441Z" fill="#2EAADC"/>
<g opacity="0.6">
<path d="M30.2327 110.441H168.779L161.538 6.97485H23L30.2327 110.441Z" fill="white"/>
</g>
<path d="M138.815 19.915C138.882 19.915 138.949 19.8984 139.007 19.8567L141.232 18.4485C141.332 18.3818 141.398 18.2735 141.398 18.1485C141.398 18.0235 141.34 17.9152 141.232 17.8402L138.899 16.3153C138.732 16.207 138.507 16.257 138.399 16.4153C138.29 16.582 138.34 16.807 138.507 16.9153L140.374 18.1319L138.624 19.2401C138.457 19.3484 138.407 19.5651 138.515 19.74C138.582 19.8484 138.699 19.9067 138.824 19.9067L138.815 19.915Z" fill="#263238"/>
<path d="M137.607 18.5152H141.032C141.232 18.5152 141.39 18.3569 141.39 18.1569C141.39 17.9569 141.232 17.7986 141.032 17.7986H137.607C137.407 17.7986 137.249 17.9569 137.249 18.1569C137.249 18.3569 137.407 18.5152 137.607 18.5152Z" fill="#263238"/>
<path d="M132.182 19.9154C132.299 19.9154 132.416 19.857 132.482 19.7487C132.591 19.5821 132.541 19.3571 132.374 19.2488L130.507 18.0322L132.257 16.924C132.424 16.8156 132.474 16.599 132.366 16.424C132.257 16.2574 132.041 16.2074 131.866 16.3157L129.641 17.7239C129.541 17.7906 129.474 17.8989 129.474 18.0239C129.474 18.1489 129.532 18.2572 129.641 18.3322L131.974 19.857C132.032 19.8987 132.107 19.9154 132.174 19.9154H132.182Z" fill="#263238"/>
<path d="M129.85 18.3902H133.274C133.474 18.3902 133.633 18.2319 133.633 18.0319C133.633 17.8319 133.474 17.6736 133.274 17.6736H129.85C129.65 17.6736 129.491 17.8319 129.491 18.0319C129.491 18.2319 129.65 18.3902 129.85 18.3902Z" fill="#263238"/>
<path d="M123.633 20.6485C124.241 20.6485 124.799 20.4068 125.208 19.9735C125.616 19.5403 125.816 18.9653 125.766 18.3487C125.683 17.1071 124.6 16.0989 123.366 16.0989C122.758 16.0989 122.2 16.3405 121.791 16.7738C121.383 17.2071 121.183 17.7821 121.233 18.3987C121.25 18.5987 121.416 18.7403 121.616 18.732C121.816 18.7153 121.966 18.5487 121.95 18.3487C121.925 17.9404 122.05 17.5571 122.325 17.2654C122.591 16.9821 122.966 16.8238 123.375 16.8238C124.241 16.8238 124.999 17.5321 125.058 18.3987C125.083 18.807 124.958 19.1903 124.691 19.4819C124.425 19.7652 124.05 19.9236 123.641 19.9236C123.441 19.9236 123.283 20.0819 123.283 20.2819C123.283 20.4818 123.441 20.6402 123.641 20.6402L123.633 20.6485Z" fill="#263238"/>
<path d="M121.591 18.7818C121.591 18.7818 121.658 18.7818 121.691 18.7651L122.849 18.4235C123.041 18.3652 123.149 18.1652 123.091 17.9735C123.033 17.7819 122.833 17.6735 122.641 17.7319L121.749 17.9902L121.333 17.3069C121.224 17.1403 121.008 17.0819 120.841 17.1903C120.674 17.2902 120.616 17.5152 120.724 17.6819L121.291 18.5985C121.358 18.7068 121.474 18.7735 121.599 18.7735L121.591 18.7818Z" fill="#263238"/>
<path d="M62.5294 19.2153C62.1628 18.8737 61.9378 18.3987 61.9211 17.9071C61.9044 17.4488 62.0628 17.0155 62.3711 16.6905C62.6711 16.3656 63.096 16.1739 63.5543 16.1573C64.0459 16.1406 64.5376 16.3322 64.9042 16.6739C65.2708 17.0155 65.4958 17.4988 65.5125 17.9821C65.5291 18.4404 65.3708 18.8737 65.0625 19.1987C64.7625 19.5236 64.3376 19.7153 63.8793 19.7319C63.8626 19.7319 63.8376 19.7319 63.821 19.7319C63.3543 19.7319 62.8877 19.5486 62.5377 19.2153H62.5294ZM63.5793 16.8739C63.3127 16.8822 63.071 16.9905 62.896 17.1822C62.721 17.3655 62.6294 17.6155 62.6377 17.8821C62.6461 18.1821 62.7877 18.4737 63.0127 18.6904C63.2377 18.907 63.546 19.0237 63.8459 19.0153C64.1126 19.007 64.3542 18.8987 64.5292 18.707C64.7042 18.5237 64.7959 18.2737 64.7875 18.0071C64.7792 17.7071 64.6375 17.4155 64.4126 17.1988C64.1959 16.9905 63.9043 16.8739 63.621 16.8739C63.6126 16.8739 63.596 16.8739 63.5876 16.8739H63.5793Z" fill="#263238"/>
<path d="M61.5301 20.6487C61.6301 20.6487 61.7217 20.607 61.7967 20.532L63.0466 19.1904C63.1799 19.0488 63.1716 18.8155 63.0299 18.6822C62.8883 18.5488 62.655 18.5572 62.5216 18.6988L61.2718 20.0404C61.1384 20.182 61.1468 20.4153 61.2884 20.5487C61.3551 20.6153 61.4467 20.6487 61.5301 20.6487Z" fill="#263238"/>
<path d="M23.4083 12.7994H161.947L161.538 6.97485H23L23.4083 12.7994Z" fill="#2EAADC"/>
<path opacity="0.4" d="M23.4083 12.7994H161.947L161.538 6.97485H23L23.4083 12.7994Z" fill="black"/>
<path d="M36.8242 9.88263C36.8909 10.8409 37.7241 11.6242 38.6907 11.6242C39.6573 11.6242 40.3739 10.8409 40.3073 9.88263C40.2406 8.92438 39.4073 8.14111 38.4491 8.14111C37.4908 8.14111 36.7659 8.92438 36.8325 9.88263H36.8242Z" fill="white"/>
<path d="M31.4911 9.88263C31.5578 10.8409 32.3911 11.6242 33.3493 11.6242C34.3076 11.6242 35.0325 10.8409 34.9659 9.88263C34.8992 8.92438 34.0659 8.14111 33.0993 8.14111C32.1328 8.14111 31.4162 8.92438 31.4828 9.88263H31.4911Z" fill="white"/>
<path d="M26.1498 9.88263C26.2164 10.8409 27.0497 11.6242 28.0079 11.6242C28.9662 11.6242 29.6911 10.8409 29.6245 9.88263C29.5578 8.92438 28.7245 8.14111 27.7663 8.14111C26.808 8.14111 26.0831 8.92438 26.1498 9.88263Z" fill="white"/>
<path d="M151.323 16.1072L155.731 16.1738" stroke="#263238" stroke-width="0.903175" stroke-linecap="round" stroke-linejoin="round"/>
<path d="M151.498 18.0818L155.906 18.1484" stroke="#263238" stroke-width="0.903175" stroke-linecap="round" stroke-linejoin="round"/>
<path d="M151.672 20.0652L156.08 20.1318" stroke="#263238" stroke-width="0.903175" stroke-linecap="round" stroke-linejoin="round"/>
<path d="M71.7208 20.2902H113.942C115.15 20.2902 116.067 19.3069 115.984 18.0987C115.9 16.8905 114.85 15.9072 113.634 15.9072H71.4125C70.2042 15.9072 69.2877 16.8905 69.371 18.0987C69.4543 19.3069 70.5042 20.2902 71.7208 20.2902Z" fill="white"/>
<path opacity="0.1" d="M140.123 6.97485L168.421 110.591H161.763L133.682 6.97485H140.123Z" fill="white"/>
<path opacity="0.1" d="M47.2561 6.97485L75.5537 110.591H68.8959L40.8149 6.97485H47.2561Z" fill="white"/>
<path opacity="0.1" d="M129.841 6.97485L158.147 110.591H142.531L114.442 6.97485H129.841Z" fill="white"/>
<path d="M76.4706 48.421H118.009C120.559 48.421 122.483 46.3545 122.3 43.8048L121.992 39.3968C121.817 36.847 119.6 34.7805 117.05 34.7805H75.5124C72.9626 34.7805 71.0377 36.847 71.2211 39.3968L71.5294 43.8048C71.7044 46.3545 73.9208 48.421 76.4706 48.421Z" fill="#2DAADC"/>
<path d="M123.775 53.4287L119.325 51.2289C119.325 51.2289 118.159 49.879 119.384 49.3041C119.867 49.0791 120.434 49.1291 120.9 49.3874L122.55 50.279L115.201 42.9296C114.784 42.513 114.784 41.8297 115.201 41.4131C115.617 40.9964 116.301 40.9964 116.717 41.4131L121.85 46.546L119.517 44.2128L120.292 43.4379C120.667 43.0629 121.275 43.0629 121.65 43.4379L123.625 45.4127L121.542 43.3296L122.442 42.4296C122.817 42.0547 123.425 42.0547 123.8 42.4296L125.525 44.1545L123.883 42.513L124.408 41.988C124.783 41.613 125.391 41.613 125.766 41.988L129.908 46.1293C130.099 46.321 130.274 46.5376 130.416 46.7793L131.108 47.9292C131.383 48.3875 131.533 48.9208 131.533 49.454L127.333 53.6537L125.466 53.762C124.883 53.7953 124.308 53.6787 123.783 53.4204L123.775 53.4287Z" fill="white"/>
<path d="M112.102 38.3137L113.618 39.8303" stroke="white" stroke-width="1.20423" stroke-linecap="round" stroke-linejoin="round"/>
<path d="M110.451 42.2878H112.593" stroke="white" stroke-width="1.20423" stroke-linecap="round" stroke-linejoin="round"/>
<path d="M118.542 39.8303L120.059 38.3137" stroke="white" stroke-width="1.20423" stroke-linecap="round" stroke-linejoin="round"/>
<path d="M112.102 46.2712L113.61 44.7546" stroke="white" stroke-width="1.20423" stroke-linecap="round" stroke-linejoin="round"/>
<path d="M116.076 38.8134V36.6636" stroke="white" stroke-width="1.20423" stroke-linecap="round" stroke-linejoin="round"/>
<path d="M80.137 93.5504H123.65L120.267 54.9287H76.7539L80.137 93.5504Z" fill="#2EAADC"/>
<path opacity="0.9" d="M80.137 93.5504H123.65L120.267 54.9287H76.7539L80.137 93.5504Z" fill="white"/>
<path d="M80.5956 79.8519H120.742L118.726 56.7705H78.5791L80.5956 79.8519Z" fill="#2DAADC"/>
<path d="M108.152 83.9678H118.634L118.418 81.4597H107.935L108.152 83.9678Z" fill="#2EAADC"/>
<path d="M95.8109 83.9678H106.302L106.077 81.4597H95.5942L95.8109 83.9678Z" fill="#2EAADC"/>
<path d="M83.4706 83.9678H93.9613L93.7364 81.4597H83.2539L83.4706 83.9678Z" fill="#2EAADC"/>
<path opacity="0.5" d="M108.152 83.9678H118.634L118.418 81.4597H107.935L108.152 83.9678Z" fill="white"/>
<path opacity="0.5" d="M95.8109 83.9678H106.302L106.077 81.4597H95.5942L95.8109 83.9678Z" fill="white"/>
<path opacity="0.5" d="M83.2539 81.4597L83.4706 83.9678H93.9613L93.7364 81.4597" fill="white"/>
<path d="M114.151 87.5677H115.767L115.642 86.1345H114.026L114.151 87.5677Z" fill="#2EAADC"/>
<path d="M107.21 87.5677H113.209L113.084 86.1345H107.085L107.21 87.5677Z" fill="#2EAADC"/>
<path d="M100.144 87.5677H106.143L106.018 86.1345H100.019L100.144 87.5677Z" fill="#2EAADC"/>
<path d="M86.9868 87.5677H89.9866L89.8616 86.1345H86.8618L86.9868 87.5677Z" fill="#2EAADC"/>
<path d="M90.8613 87.5677H99.0523L98.9273 86.1345H90.7363L90.8613 87.5677Z" fill="#2EAADC"/>
<path d="M94.6279 90.0091H88.6284L88.5034 88.5759H94.5029L94.6279 90.0091Z" fill="#2EAADC"/>
<path d="M101.686 90.0091H95.6865L95.5615 88.5759H101.561L101.686 90.0091Z" fill="#2EAADC"/>
<path d="M114.851 90.0091H111.852L111.727 88.5759H114.726L114.851 90.0091Z" fill="#2EAADC"/>
<path d="M110.968 90.0091H102.786L102.661 88.5759H110.843L110.968 90.0091Z" fill="#2EAADC"/>
<g opacity="0.6">
<path d="M114.151 87.5677H115.767L115.642 86.1345H114.026L114.151 87.5677Z" fill="white"/>
<path d="M107.21 87.5677H113.209L113.084 86.1345H107.085L107.21 87.5677Z" fill="white"/>
<path d="M100.144 87.5677H106.143L106.018 86.1345H100.019L100.144 87.5677Z" fill="white"/>
<path d="M86.9868 87.5677H89.9866L89.8616 86.1345H86.8618L86.9868 87.5677Z" fill="white"/>
<path d="M90.8613 87.5677H99.0523L98.9273 86.1345H90.7363L90.8613 87.5677Z" fill="white"/>
</g>
<g opacity="0.6">
<path d="M94.6279 90.0091H88.6284L88.5034 88.5759H94.5029L94.6279 90.0091Z" fill="white"/>
<path d="M101.686 90.0091H95.6865L95.5615 88.5759H101.561L101.686 90.0091Z" fill="white"/>
<path d="M114.851 90.0091H111.852L111.727 88.5759H114.726L114.851 90.0091Z" fill="white"/>
<path d="M110.968 90.0091H102.786L102.661 88.5759H110.843L110.968 90.0091Z" fill="white"/>
</g>
<path d="M120.743 79.9017L106.46 67.2278L100.703 79.9017H120.743Z" fill="white"/>
<path d="M106.66 79.9016L88.0946 63.428L80.6035 79.9016H106.66Z" fill="white"/>
<path d="M96.1527 63.5946C96.3027 65.2695 97.7775 66.636 99.4607 66.636C101.144 66.636 102.377 65.2778 102.235 63.5946C102.086 61.9198 100.611 60.5532 98.9274 60.5532C97.2443 60.5532 96.011 61.9114 96.1527 63.5946Z" fill="white"/>
<path d="M192.96 145.393L192.659 145.429C192.641 145.279 190.816 130.039 194.573 117.587C198.307 105.208 195.736 97.3262 195.711 97.248L196.001 97.1516C196.025 97.2299 198.626 105.208 194.869 117.678C191.129 130.069 192.942 145.243 192.96 145.399V145.393Z" fill="#2EAADC"/>
<path d="M196.248 98.9458C195.597 98.1691 194.7 97.6151 193.719 97.3863L193.785 97.0913C194.833 97.3382 195.79 97.9283 196.476 98.7532L196.242 98.9458H196.248Z" fill="#2EAADC"/>
<path d="M197.535 100.207L196.67 100.696L196.819 100.958L197.683 100.469L197.535 100.207Z" fill="#2EAADC"/>
<path d="M195.922 107.231C195.176 105.527 193.761 104.148 192.033 103.456L192.147 103.173C193.947 103.895 195.423 105.328 196.199 107.104L195.922 107.225V107.231Z" fill="#2EAADC"/>
<path d="M195.116 116.75H194.815C194.802 115.522 194.212 114.336 193.249 113.571L193.436 113.336C194.471 114.155 195.098 115.432 195.116 116.75Z" fill="#2EAADC"/>
<path d="M194.441 119.183L194.158 119.075C194.459 118.304 195.104 117.672 195.88 117.377L195.989 117.66C195.296 117.925 194.718 118.491 194.441 119.183Z" fill="#2EAADC"/>
<path d="M192.478 134.627L192.244 134.435C192.611 133.989 192.888 132.303 193.038 131.394C193.075 131.177 193.105 130.991 193.129 130.858L193.424 130.912C193.4 131.045 193.37 131.225 193.333 131.442C193.111 132.797 192.858 134.158 192.472 134.627H192.478Z" fill="#2EAADC"/>
<path d="M192.304 139.48C191.913 138.288 190.672 137.427 189.42 137.487L189.408 137.186C190.793 137.12 192.165 138.065 192.593 139.384L192.304 139.48Z" fill="#2EAADC"/>
<path d="M194.621 142.648L192.491 145.032L192.715 145.233L194.846 142.849L194.621 142.648Z" fill="#2EAADC"/>
<path d="M196.121 127.089C196.603 128.654 193.237 131.629 193.237 131.629C193.237 131.629 188.776 131.069 188.294 129.509C187.812 127.944 188.938 125.391 191.1 124.722C193.261 124.054 195.634 125.529 196.121 127.095V127.089Z" fill="#2EAADC"/>
<path d="M199.861 108.122C199.433 109.784 196.242 110.964 196.242 110.964C196.242 110.964 194.02 108.393 194.448 106.731C194.875 105.069 196.639 103.245 198.133 103.624C199.626 104.01 200.288 106.46 199.861 108.122Z" fill="#2EAADC"/>
<path d="M187.059 132.929C189.064 133.712 190.293 137.253 190.293 137.253C190.293 137.253 186.993 139.035 184.988 138.252C182.983 137.469 180.864 135.278 181.436 133.802C182.008 132.333 185.054 132.147 187.059 132.929Z" fill="#2EAADC"/>
<path d="M191.455 113.439C191.876 113.752 192.316 114.071 192.822 114.209C193.333 114.348 193.936 114.264 194.279 113.866C194.706 113.372 194.592 112.608 194.321 112.012C193.785 110.831 191.81 108.832 190.299 109.404C188.113 110.235 190.473 112.71 191.449 113.433L191.455 113.439Z" fill="#2EAADC"/>
<path d="M195.935 116.443C195.646 116.799 195.345 117.25 195.501 117.678C195.64 118.057 196.11 118.232 196.507 118.171C196.91 118.111 197.26 117.87 197.591 117.641C198.361 117.106 199.945 115.98 198.933 114.926C197.88 113.83 196.537 115.691 195.929 116.443H195.935Z" fill="#2EAADC"/>
<path d="M189.468 101.462C189.137 101.499 188.8 101.721 188.746 102.047C188.679 102.432 188.999 102.763 189.306 103.004C190.07 103.594 192.376 105.19 192.894 103.654C193.382 102.197 190.486 101.354 189.468 101.462Z" fill="#2EAADC"/>
<path d="M193.719 96.3989C193.243 96.4471 192.767 96.2725 192.292 96.3026C191.816 96.3327 191.286 96.718 191.395 97.1817C191.491 97.6152 192.027 97.7537 192.466 97.7838C193.219 97.832 193.978 97.7838 194.712 97.6272C194.881 97.5911 195.068 97.5429 195.17 97.3984C195.363 97.1154 195.056 96.7361 194.73 96.6337C194.405 96.5314 194.032 96.5675 193.731 96.3989H193.719Z" fill="#2EAADC"/>
<path d="M198.367 99.6744C198.843 99.6864 199.306 99.4817 199.782 99.4817C200.258 99.4817 200.812 99.8309 200.739 100.301C200.667 100.734 200.143 100.915 199.71 100.975C198.963 101.071 198.205 101.071 197.458 100.969C197.283 100.945 197.097 100.909 196.988 100.77C196.778 100.499 197.061 100.102 197.38 99.9754C197.699 99.855 198.072 99.861 198.361 99.6744H198.373H198.367Z" fill="#2EAADC"/>
<path d="M197.898 134.868C198.018 134.766 198.151 134.663 198.301 134.669C198.506 134.669 198.669 134.862 198.705 135.067C198.741 135.265 198.687 135.476 198.626 135.669C198.301 136.753 194.664 144.598 193.834 143.189C193.34 142.358 194.556 139.595 194.911 138.818C195.604 137.306 196.621 135.946 197.892 134.874L197.898 134.868Z" fill="#2EAADC"/>
<path d="M195.724 96.6941C196.013 96.0438 196.326 95.3694 196.898 94.954C197.47 94.5385 198.391 94.5084 198.807 95.0804C199.277 95.7187 198.807 96.6941 198.09 97.0373C197.374 97.3805 196.537 97.2781 195.754 97.1637C195.748 97.0493 195.742 96.9289 195.736 96.8145L195.724 96.7001V96.6941Z" fill="#2EAADC"/>
<g opacity="0.6">
<path d="M192.96 145.393L192.659 145.429C192.641 145.279 190.816 130.039 194.573 117.587C198.307 105.208 195.736 97.3262 195.711 97.248L196.001 97.1516C196.025 97.2299 198.626 105.208 194.869 117.678C191.129 130.069 192.942 145.243 192.96 145.399V145.393Z" fill="white"/>
<path d="M196.248 98.9458C195.597 98.1691 194.7 97.6151 193.719 97.3863L193.785 97.0913C194.833 97.3382 195.79 97.9283 196.476 98.7532L196.242 98.9458H196.248Z" fill="white"/>
<path d="M197.535 100.207L196.67 100.696L196.819 100.958L197.683 100.469L197.535 100.207Z" fill="white"/>
<path d="M195.922 107.231C195.176 105.527 193.761 104.148 192.033 103.456L192.147 103.173C193.947 103.895 195.423 105.328 196.199 107.104L195.922 107.225V107.231Z" fill="white"/>
<path d="M195.116 116.75H194.815C194.802 115.522 194.212 114.336 193.249 113.571L193.436 113.336C194.471 114.155 195.098 115.432 195.116 116.75Z" fill="white"/>
<path d="M194.441 119.183L194.158 119.075C194.459 118.304 195.104 117.672 195.88 117.377L195.989 117.66C195.296 117.925 194.718 118.491 194.441 119.183Z" fill="white"/>
<path d="M192.478 134.627L192.244 134.435C192.611 133.989 192.888 132.303 193.038 131.394C193.075 131.177 193.105 130.991 193.129 130.858L193.424 130.912C193.4 131.045 193.37 131.225 193.333 131.442C193.111 132.797 192.858 134.158 192.472 134.627H192.478Z" fill="white"/>
<path d="M192.304 139.48C191.913 138.288 190.672 137.427 189.42 137.487L189.408 137.186C190.793 137.12 192.165 138.065 192.593 139.384L192.304 139.48Z" fill="white"/>
<path d="M194.621 142.648L192.491 145.032L192.715 145.233L194.846 142.849L194.621 142.648Z" fill="white"/>
<path d="M196.121 127.089C196.603 128.654 193.237 131.629 193.237 131.629C193.237 131.629 188.776 131.069 188.294 129.509C187.812 127.944 188.938 125.391 191.1 124.722C193.261 124.054 195.634 125.529 196.121 127.095V127.089Z" fill="white"/>
<path d="M199.861 108.122C199.433 109.784 196.242 110.964 196.242 110.964C196.242 110.964 194.02 108.393 194.448 106.731C194.875 105.069 196.639 103.245 198.133 103.624C199.626 104.01 200.288 106.46 199.861 108.122Z" fill="white"/>
<path d="M187.059 132.929C189.064 133.712 190.293 137.253 190.293 137.253C190.293 137.253 186.993 139.035 184.988 138.252C182.983 137.469 180.864 135.278 181.436 133.802C182.008 132.333 185.054 132.147 187.059 132.929Z" fill="white"/>
<path d="M191.455 113.439C191.876 113.752 192.316 114.071 192.822 114.209C193.333 114.348 193.936 114.264 194.279 113.866C194.706 113.372 194.592 112.608 194.321 112.012C193.785 110.831 191.81 108.832 190.299 109.404C188.113 110.235 190.473 112.71 191.449 113.433L191.455 113.439Z" fill="white"/>
<path d="M195.935 116.443C195.646 116.799 195.345 117.25 195.501 117.678C195.64 118.057 196.11 118.232 196.507 118.171C196.91 118.111 197.26 117.87 197.591 117.641C198.361 117.106 199.945 115.98 198.933 114.926C197.88 113.83 196.537 115.691 195.929 116.443H195.935Z" fill="white"/>
<path d="M189.468 101.462C189.137 101.499 188.8 101.721 188.746 102.047C188.679 102.432 188.999 102.763 189.306 103.004C190.07 103.594 192.376 105.19 192.894 103.654C193.382 102.197 190.486 101.354 189.468 101.462Z" fill="white"/>
<path d="M193.719 96.3989C193.243 96.4471 192.767 96.2725 192.292 96.3026C191.816 96.3327 191.286 96.718 191.395 97.1817C191.491 97.6152 192.027 97.7537 192.466 97.7838C193.219 97.832 193.978 97.7838 194.712 97.6272C194.881 97.5911 195.068 97.5429 195.17 97.3984C195.363 97.1154 195.056 96.7361 194.73 96.6337C194.405 96.5314 194.032 96.5675 193.731 96.3989H193.719Z" fill="white"/>
<path d="M198.367 99.6744C198.843 99.6864 199.306 99.4817 199.782 99.4817C200.258 99.4817 200.812 99.8309 200.739 100.301C200.667 100.734 200.143 100.915 199.71 100.975C198.963 101.071 198.205 101.071 197.458 100.969C197.283 100.945 197.097 100.909 196.988 100.77C196.778 100.499 197.061 100.102 197.38 99.9754C197.699 99.855 198.072 99.861 198.361 99.6744H198.373H198.367Z" fill="white"/>
<path d="M197.898 134.868C198.018 134.766 198.151 134.663 198.301 134.669C198.506 134.669 198.669 134.862 198.705 135.067C198.741 135.265 198.687 135.476 198.626 135.669C198.301 136.753 194.664 144.598 193.834 143.189C193.34 142.358 194.556 139.595 194.911 138.818C195.604 137.306 196.621 135.946 197.892 134.874L197.898 134.868Z" fill="white"/>
<path d="M195.724 96.6941C196.013 96.0438 196.326 95.3694 196.898 94.954C197.47 94.5385 198.391 94.5084 198.807 95.0804C199.277 95.7187 198.807 96.6941 198.09 97.0373C197.374 97.3805 196.537 97.2781 195.754 97.1637C195.748 97.0493 195.742 96.9289 195.736 96.8145L195.724 96.7001V96.6941Z" fill="white"/>
</g>
<path d="M198.187 155.683C194.406 156.58 190.359 156.58 186.578 155.683L184.778 142.358H199.993L198.193 155.683H198.187Z" fill="#263238"/>
<g opacity="0.8">
<path d="M198.187 155.683C194.406 156.58 190.359 156.58 186.578 155.683L184.778 142.358H199.993L198.193 155.683H198.187Z" fill="white"/>
</g>
<path d="M156.376 79.5395C155.587 82.0203 156.454 88.0956 153.98 89.6732C151.782 91.0761 150.638 93.2798 150.716 95.887C152.33 93.6592 155.003 92.3947 157.713 91.9371C160.422 91.4795 163.198 91.7505 165.926 92.0696C167.214 92.2201 173.217 94.1288 172.892 95.3812C174.825 92.5031 172.621 79.5516 171.748 76.1978C171.483 75.1923 171.995 73.7652 170.995 73.4582C168.689 72.7537 163.704 71.3387 158.658 74.5901C156.629 75.8967 156.87 77.95 156.37 79.5395H156.376Z" fill="#2EAADC"/>
<g opacity="0.5">
<path d="M156.376 79.5395C155.587 82.0203 156.454 88.0956 153.98 89.6732C151.782 91.0761 150.638 93.2798 150.716 95.887C152.33 93.6592 155.003 92.3947 157.713 91.9371C160.422 91.4795 163.198 91.7505 165.926 92.0696C167.214 92.2201 173.217 94.1288 172.892 95.3812C174.825 92.5031 172.621 79.5516 171.748 76.1978C171.483 75.1923 171.995 73.7652 170.995 73.4582C168.689 72.7537 163.704 71.3387 158.658 74.5901C156.629 75.8967 156.87 77.95 156.37 79.5395H156.376Z" fill="black"/>
</g>
<path d="M144.225 75.5053L142.894 72.1274L141.263 74.6624C141.263 74.6624 142.124 76.3784 143.165 76.4446L144.219 75.5053H144.225Z" fill="#DD8C6A"/>
<path d="M140.619 71.3692L140.113 71.9412C139.806 72.2904 139.794 72.8082 140.083 73.1695L141.269 74.6507L142.901 72.1218L141.973 71.2909C141.582 70.9356 140.974 70.9718 140.625 71.3692H140.619Z" fill="#DD8C6A"/>
<path d="M141.702 74.2591L141.281 74.0062C141.07 73.8797 140.871 73.7232 140.703 73.5425L140.643 73.2475C140.745 73.097 140.944 73.0307 141.118 73.091L141.474 73.2114L143.256 73.4582V74.2169L142.678 74.9936H142.497C142.088 74.9816 141.744 74.6625 141.708 74.253L141.702 74.2591Z" fill="#DD8C6A"/>
<path d="M155.66 76.5049C155.66 76.5049 152.264 79.0699 149.669 81.4543C149.669 81.4543 144.84 76.4567 144.147 75.2043L142.792 76.3845C143.244 77.8958 144.117 80.1658 144.918 81.5266C145.351 82.2612 145.875 82.9295 146.483 83.5196C146.851 83.8688 147.272 84.1638 147.736 84.3806C148.32 84.6576 148.97 84.7479 149.602 84.6395C149.765 84.6094 149.928 84.5673 150.084 84.5131L150.391 84.3987L150.945 84.1879C151.318 84.0494 151.674 83.8808 152.035 83.7303C152.758 83.3992 153.468 83.0319 154.148 82.6224C154.841 82.207 155.503 81.7554 156.141 81.2677C156.473 81.0148 156.774 80.7498 157.081 80.4668C157.231 80.3284 157.388 80.1778 157.538 80.0273L157.761 79.7865C157.839 79.6961 157.9 79.6299 158.014 79.4974L155.654 76.5109L155.66 76.5049Z" fill="#2DAADC"/>
<path d="M158.977 74.5601C157.749 74.2591 149.084 81.9661 149.084 81.9661L150.397 84.3927C150.397 84.3927 158.261 81.1111 160.675 77.5767C160.477 75.8787 160.766 75.0057 158.977 74.5661V74.5601Z" fill="#2EAADC"/>
<path opacity="0.2" d="M158.778 77.2275L157.743 80.3585C153.48 83.3149 152.035 83.7244 152.035 83.7244L158.778 77.2336V77.2275Z" fill="black"/>
<path d="M159.874 153.811L156.918 153.913L156.412 147.049L159.368 146.94L159.874 153.811Z" fill="#DD8C6A"/>
<path d="M155.72 154.293C155.72 154.293 155.774 154.268 155.78 154.238C155.78 154.208 155.768 154.178 155.744 154.166C155.611 154.094 154.449 153.45 154.082 153.642C154.01 153.678 153.961 153.745 153.955 153.823C153.931 153.949 153.973 154.076 154.07 154.166C154.281 154.311 154.527 154.389 154.786 154.371C155.099 154.371 155.412 154.347 155.726 154.293H155.72ZM154.274 153.745C154.702 153.823 155.117 153.973 155.497 154.196C154.834 154.28 154.347 154.238 154.178 154.076C154.118 154.016 154.094 153.931 154.106 153.847C154.106 153.817 154.13 153.787 154.16 153.775C154.202 153.757 154.244 153.751 154.293 153.757H154.281L154.274 153.745Z" fill="#2EAADC"/>
<path d="M155.762 154.28C155.762 154.28 155.786 154.238 155.78 154.214C155.78 154.184 155.738 153.377 155.37 153.058C155.262 152.962 155.124 152.92 154.979 152.938C154.78 152.95 154.732 153.052 154.708 153.124C154.642 153.455 155.316 154.124 155.666 154.292H155.69C155.69 154.292 155.732 154.292 155.75 154.28H155.762ZM155.039 153.076C155.13 153.076 155.22 153.1 155.286 153.154C155.497 153.419 155.617 153.745 155.635 154.082C155.28 153.859 154.823 153.341 154.865 153.142C154.865 153.124 154.877 153.076 155.003 153.064L155.045 153.076H155.039Z" fill="#2EAADC"/>
<path d="M157.141 152.739L159.796 153.016C159.917 153.022 160.007 153.124 160.013 153.239L160.416 156.972C160.416 157.237 160.2 157.454 159.935 157.448C159.917 157.448 159.899 157.448 159.881 157.448C158.73 157.315 158.177 157.195 156.719 157.056C155.822 156.972 153.046 157.122 151.854 156.767C150.662 156.412 150.951 155.214 151.481 155.256C153.179 155.394 155.214 154.413 156.28 153.172C156.43 153.07 156.966 152.715 157.153 152.739H157.141Z" fill="#263238"/>
<path opacity="0.2" d="M156.412 147.049L156.677 150.589L159.627 150.487L159.375 146.947L156.412 147.049Z" fill="black"/>
<path d="M156.882 77.95C155.027 80.6957 156.924 83.2306 158.104 91.865L169.165 92.5875C169.273 87.9813 169.526 84.2662 172.049 75.3549C172.284 74.5421 171.814 73.6991 171.002 73.4643C170.899 73.4342 170.791 73.4161 170.676 73.4101C169.761 73.3559 168.611 73.3137 167.437 73.3619C165.582 73.398 163.74 73.5606 161.91 73.8496C160.35 74.1206 159.965 74.3012 158.971 74.5661C158.393 74.7227 157.61 76.228 156.876 77.9561L156.882 77.95Z" fill="white"/>
<path d="M157.659 92.4189C157.659 92.4189 149.976 107.177 151.336 127.956C151.114 132.911 156.226 148.464 156.226 148.464L160.224 148.476C160.224 148.476 160.458 125.915 161.091 120.056C162.12 110.464 166.082 92.7862 166.082 92.7862L157.659 92.4128V92.4189Z" fill="#2DAADC"/>
<path d="M160.952 149.566L155.322 149.548L154.913 147.826L161.217 147.639L160.952 149.566Z" fill="#2EAADC"/>
<path opacity="0.4" d="M160.952 149.566L155.322 149.548L154.913 147.826L161.217 147.639L160.952 149.566Z" fill="white"/>
<path opacity="0.2" d="M160.675 127.312C159.375 126.752 155.822 123.934 156.84 117.021L160.802 100.367L160.675 127.312Z" fill="black"/>
<path d="M168.852 122.946C165.528 112.981 173.47 100.024 169.297 92.9728L162.391 92.8584C162.391 92.8584 153.54 123.705 163.583 127.908L168.852 122.946Z" fill="#2DAADC"/>
<path d="M184.549 87.3069C184.977 88.0294 187.391 87.7103 187.391 87.7103L188.084 84.79L185.085 85.7775L184.555 87.3069H184.549Z" fill="#DD8C6A"/>
<path d="M188.078 84.7661L187.392 87.7105L189.174 88.1801C189.367 88.2102 189.553 88.0898 189.607 87.9031L190.414 85.7476C190.444 85.6452 190.384 85.5308 190.282 85.5007L188.072 84.7721L188.078 84.7661Z" fill="#DD8C6A"/>
<path d="M185.079 85.7777L184.549 87.307C184.549 87.307 180.678 87.5961 177.715 87.1866C177.709 87.1866 177.703 87.1866 177.691 87.1866C176.655 87.0843 174.024 86.6086 172.91 84.6096C171.327 81.7616 169.424 78.1549 169.394 76.9687C169.334 74.4579 170.436 72.8562 171.537 73.627C173.795 75.2045 175.734 80.8704 176.83 83.1645L179.461 84.0014L185.079 85.7837V85.7777Z" fill="#2DAADC"/>
<path d="M184.561 142.816L182.303 144.737L177.083 140.173L179.136 137.734L184.561 142.816Z" fill="#DD8C6A"/>
<path d="M181.382 143.677L182.875 141.467C182.941 141.365 183.068 141.329 183.176 141.383L186.662 142.78C186.897 142.906 186.981 143.195 186.855 143.43C186.849 143.448 186.837 143.46 186.825 143.478C186.169 144.43 185.801 144.863 184.995 146.086C184.501 146.832 183.327 149.361 182.454 150.246C181.581 151.131 180.659 150.312 180.942 149.867C181.863 148.434 181.948 146.176 181.358 144.652C181.34 144.472 181.279 143.828 181.388 143.677H181.382Z" fill="#263238"/>
<path opacity="0.2" d="M177.655 136.271L175.475 138.824L178.871 141.738L181.057 139.534L177.655 136.271Z" fill="black"/>
<path d="M160.392 124.59C160.88 130.37 177.011 141.509 177.011 141.509L180.051 138.39C180.051 138.39 168.653 125.12 168.858 122.946L160.392 124.59Z" fill="#2EAADC"/>
<path d="M180.623 137.795L176.704 141.895L175.048 141.046L179.708 136.175L180.623 137.795Z" fill="#2EAADC"/>
<path opacity="0.4" d="M180.623 137.795L176.704 141.895L175.048 141.046L179.708 136.175L180.623 137.795Z" fill="white"/>
<path d="M181.472 144.544C181.472 144.544 181.478 144.49 181.466 144.466C181.448 144.442 181.418 144.436 181.394 144.442C181.292 144.472 180.25 144.773 180.142 145.134C180.118 145.218 180.142 145.309 180.196 145.369C180.28 145.477 180.413 145.537 180.551 145.525C180.563 145.519 180.581 145.507 180.581 145.507C180.924 145.441 181.28 144.875 181.472 144.538V144.544ZM181.256 144.628C180.997 145.092 180.72 145.363 180.533 145.387C180.443 145.393 180.352 145.351 180.298 145.279C180.268 145.254 180.256 145.212 180.268 145.176C180.322 144.978 180.852 144.755 181.262 144.628H181.256Z" fill="#2EAADC"/>
<path d="M181.436 144.586C181.436 144.586 181.478 144.556 181.484 144.532C181.484 144.508 181.472 144.484 181.448 144.472C181.418 144.448 180.774 143.888 180.346 143.942C180.238 143.948 180.136 144.002 180.075 144.092C180.003 144.183 179.997 144.309 180.069 144.4C180.262 144.64 180.96 144.677 181.316 144.604C181.358 144.604 181.394 144.592 181.436 144.586ZM180.346 144.074C180.346 144.074 180.358 144.074 180.37 144.074C180.629 144.038 181.033 144.309 181.256 144.484C180.9 144.544 180.316 144.484 180.19 144.315C180.172 144.285 180.154 144.249 180.202 144.177C180.232 144.123 180.286 144.086 180.346 144.074Z" fill="#2EAADC"/>
<path d="M169.243 92.0275L169.484 93.1234C169.52 93.2077 169.418 93.286 169.28 93.2799L157.863 92.5514C157.755 92.5514 157.671 92.4851 157.665 92.4189L157.623 91.3351C157.623 91.2628 157.719 91.2026 157.839 91.2147L169.057 91.9312C169.135 91.9312 169.207 91.9673 169.243 92.0336V92.0275Z" fill="#263238"/>
<path d="M166.979 93.2379L167.311 93.256C167.371 93.256 167.425 93.2319 167.425 93.1898L167.365 91.7808C167.365 91.7387 167.311 91.7026 167.244 91.7026L166.913 91.6785C166.853 91.6785 166.799 91.7025 166.799 91.7507L166.859 93.1597C166.859 93.2018 166.919 93.2379 166.979 93.244V93.2379Z" fill="#2EAADC"/>
<path d="M158.736 92.7199L159.067 92.7379C159.128 92.7379 159.182 92.7139 159.182 92.6717L159.122 91.2628C159.122 91.2206 159.067 91.1845 159.001 91.1785L158.67 91.1604C158.61 91.1604 158.556 91.1845 158.556 91.2266L158.616 92.6356C158.616 92.6777 158.67 92.7139 158.736 92.7199Z" fill="#2EAADC"/>
<path d="M162.512 92.9489L162.843 92.967C162.903 92.967 162.957 92.9429 162.957 92.9007L162.897 91.4918C162.897 91.4496 162.843 91.4135 162.777 91.4075L162.445 91.3894C162.385 91.3894 162.331 91.4135 162.331 91.4556L162.391 92.8646C162.391 92.9067 162.445 92.9429 162.512 92.9489Z" fill="#2EAADC"/>
<path d="M167.304 67.3044C166.841 69.0807 166.293 72.3201 167.455 73.3738C167.455 73.3738 166.853 75.1922 163.547 75.4812C159.898 75.8003 161.927 73.8615 161.927 73.8615C163.944 73.2052 163.987 71.7782 163.728 70.4475L167.31 67.3044H167.304Z" fill="#DD8C6A"/>
<path d="M167.443 73.356C165.595 73.3861 164.041 73.4644 162.211 73.7534L160.338 74.1869C159.838 75.048 159.802 77.0651 161.849 77.5407C161.849 77.5407 166.052 78.3897 168.256 74.6987C168.617 74.0966 168.141 73.3319 167.443 73.356Z" fill="#DD8C6A"/>
<path opacity="0.2" d="M165.841 68.5872L163.722 70.4477C163.788 70.7608 163.824 71.0799 163.83 71.399C164.595 71.2244 165.859 70.4718 165.992 69.683C166.016 69.3157 165.968 68.9424 165.841 68.5932V68.5872Z" fill="black"/>
<path d="M165.287 59.4288C164.992 60.055 164.571 60.5608 163.963 60.8438C163.608 61.0064 162.53 61.476 162.193 61.8494C161.627 62.4695 161.289 59.754 162.74 59.0375C164.198 58.3209 166.016 57.8754 165.287 59.4349V59.4288Z" fill="#263238"/>
<path d="M163.848 70.6585C163.487 70.9174 163.005 70.9957 162.584 70.8632C162.162 70.7307 161.813 70.3875 161.668 69.966C161.084 70.0262 160.567 69.8817 160.193 69.4301C159.82 68.9786 159.688 68.3343 159.85 67.7683C160.037 67.124 160.567 66.6423 161.084 66.2148C161.584 67.8225 162.499 69.2977 163.728 70.4417L163.854 70.6585H163.848Z" fill="#263238"/>
<path d="M169.653 65.1611C168.593 67.9067 168.202 69.0929 166.323 70.0804C163.511 71.5676 160.356 69.6649 160.591 66.6604C160.784 63.9568 162.482 59.9227 165.589 59.6758C167.798 59.4831 169.737 61.1209 169.93 63.3306C169.984 63.9508 169.888 64.5831 169.659 65.1611H169.653Z" fill="#DD8C6A"/>
<path d="M163.005 64.3059C162.662 64.7816 162.253 65.2031 161.789 65.5643C161.982 65.7992 162.271 65.9316 162.572 65.9376L163.005 64.3059Z" fill="#DE5753"/>
<path d="M169.821 67.5334C169.466 67.979 168.954 68.268 168.388 68.3402C167.636 68.4245 167.395 67.7261 167.696 67.0818C167.973 66.5038 168.695 65.7572 169.4 65.9739C169.906 66.1365 170.183 66.6844 170.02 67.1902C169.978 67.3166 169.912 67.4371 169.821 67.5334Z" fill="#DD8C6A"/>
<path d="M166.233 63.8064C166.173 63.8064 166.118 63.7703 166.094 63.7161C165.859 63.0959 165.053 62.8912 165.047 62.8912C164.974 62.8732 164.926 62.7949 164.944 62.7226C164.962 62.6504 165.041 62.6022 165.113 62.6203C165.155 62.6263 166.07 62.8732 166.353 63.6258C166.383 63.6981 166.347 63.7763 166.275 63.8064H166.227H166.233Z" fill="#263238"/>
<path d="M162.006 62.3191C161.957 62.3191 161.909 62.295 161.885 62.2468C161.843 62.1806 161.867 62.0963 161.933 62.0542C162.319 61.8193 162.8 61.7892 163.216 61.9699C163.288 62.006 163.312 62.0903 163.276 62.1565C163.24 62.2288 163.156 62.2529 163.089 62.2167C162.758 62.0783 162.385 62.1023 162.078 62.295C162.054 62.3071 162.03 62.3131 162.006 62.3131V62.3191Z" fill="#263238"/>
<path d="M162.072 63.451C161.915 63.4089 161.74 63.5775 161.68 63.8244C161.62 64.0652 161.704 64.3 161.861 64.3362C162.017 64.3723 162.192 64.2097 162.252 63.9628C162.312 63.728 162.228 63.4932 162.072 63.451Z" fill="#263238"/>
<path d="M161.596 63.1802L162.138 63.4873C161.783 63.704 161.596 63.1802 161.596 63.1802Z" fill="#263238"/>
<path d="M164.805 64.1918C164.649 64.1496 164.474 64.3182 164.414 64.5651C164.354 64.8059 164.438 65.0407 164.595 65.0769C164.751 65.113 164.926 64.9504 164.986 64.7036C165.046 64.4687 164.962 64.2339 164.805 64.1918Z" fill="#263238"/>
<path d="M164.33 63.9207L164.872 64.2277C164.517 64.4445 164.33 63.9207 164.33 63.9207Z" fill="#263238"/>
<path d="M162.205 66.9976C162.277 67.4612 162.241 68.2801 162.241 68.2801C162.313 68.2981 162.385 68.3102 162.464 68.3282C163.469 68.5269 163.999 68.2861 164.288 67.9609C164.444 67.7803 164.523 67.5756 164.565 67.401C164.613 67.2023 164.607 67.0457 164.607 67.0457C164.011 67.2565 163.06 67.1481 162.554 67.0638C162.343 67.0337 162.211 67.0036 162.211 67.0036L162.205 66.9976Z" fill="#263238"/>
<path d="M162.548 67.0637L162.566 67.4431C163.511 67.6297 164.204 67.6297 164.559 67.4009C164.607 67.2022 164.601 67.0457 164.601 67.0457C164.005 67.2564 163.054 67.148 162.548 67.0637Z" fill="white"/>
<path d="M162.463 68.3283C163.469 68.527 163.999 68.2861 164.288 67.961C163.945 67.9068 163.523 67.8767 163.126 67.961C162.825 68.0212 162.614 68.1657 162.463 68.3283Z" fill="#DE5753"/>
<path d="M165.54 58.5258C166.178 57.9358 167.208 57.9598 167.985 58.3392C168.767 58.7245 169.352 59.3989 169.917 60.0612C170.893 61.2053 171.886 62.3914 172.35 63.8245C172.814 65.2515 172.639 66.9976 171.531 68.0092C171.206 68.3042 170.815 68.527 170.502 68.8401C170.188 69.1532 169.954 69.5927 170.056 70.0263C170.158 70.4538 170.724 70.7548 171.068 70.4839C170.58 71.0739 169.622 71.2064 168.99 70.7669C168.527 71.2305 167.774 71.375 167.172 71.1221C166.57 70.8692 165.227 70.0142 165.516 68.7137C166.227 68.5932 168.189 66.9916 168.316 66.0463C168.442 65.101 168.292 63.2103 167.882 62.3493C167.774 62.6985 167.304 62.6564 166.985 62.4757C166.672 62.2951 166.497 61.9459 166.335 61.6207C166.172 61.2956 165.944 61.0186 165.673 60.7778C164.781 59.9709 164.209 60.9403 163.957 60.844C164.149 59.9288 164.848 59.1581 165.54 58.5258Z" fill="#263238"/>
<path opacity="0.2" d="M166.01 94.0447C166.01 94.0447 166.377 95.556 166.443 97.3262C166.522 99.6143 166.329 99.9575 166.341 100.265C167.033 98.121 166.853 96.0618 166.01 94.0507V94.0447Z" fill="black"/>
<path opacity="0.2" d="M159.634 93.6594C158.851 95.6645 158.062 97.6695 157.279 99.6746C157.502 97.4708 158.333 95.4899 159.634 93.6594Z" fill="black"/>
<path d="M169.141 77.1009C169.141 77.1009 171.946 82.7849 172.591 88.9988C173.175 94.6586 172.898 95.3812 172.898 95.3812C172.898 95.3812 174.036 94.2974 173.771 88.4087C173.638 85.4282 173.181 81.4121 171.76 76.1978C171.76 76.1978 171.055 76.3663 169.147 77.1009H169.141Z" fill="#2EAADC"/>
<path d="M169.201 77.2877L167.443 73.3559L166.979 72.6033C166.979 72.6033 169.466 72.9465 171.007 73.4643C171.007 73.4643 170.544 74.2169 169.959 75.9691C169.821 76.3906 169.676 77.3178 169.201 77.2877Z" fill="#2EAADC"/>
<path d="M157.159 77.3178C157.159 77.3178 160.38 73.8195 163.583 72.7056C163.583 72.7056 161.44 72.8621 158.67 74.5962C158.67 74.5962 157.369 76.0052 157.159 77.3178Z" fill="#2EAADC"/>
</g>
<defs>
<clipPath id="clip0_1230_13167">
<rect width="221.579" height="160.163" fill="white"/>
</clipPath>
</defs>
</svg>
