<svg width="133" height="122" viewBox="0 0 133 122" fill="none" xmlns="http://www.w3.org/2000/svg">
<path d="M106.678 49.1224C106.678 55.4687 105.171 60.6926 102.558 65.1677C101.696 66.6417 100.717 68.0446 99.631 69.3631C90.0258 81.0867 72.1681 87.5034 56.0281 97.8971C8.38561 128.577 3.22502 79.4158 5.37678 49.1224C6.24472 36.899 11.0147 25.7023 18.5929 17.1293C20.1844 15.3262 21.9036 13.6395 23.7372 12.0822C32.3407 4.77049 43.4557 0.345947 56.0281 0.345947C77.5981 0.345947 96.0182 13.3291 103.322 31.6245C105.542 37.192 106.681 43.1302 106.678 49.1224Z" fill="#2EAADC"/>
<path d="M66.8193 11.3386L18.5928 17.1291C20.1843 15.3261 21.9035 13.6394 23.7371 12.0821L66.8193 11.3386Z" fill="white" fill-opacity="0.74"/>
<path d="M102.558 65.1678C101.696 66.6418 100.717 68.0447 99.6309 69.3632L58.3208 64.4045L102.558 65.1678Z" fill="white" fill-opacity="0.74"/>
<path d="M105.007 36.6553L34.9951 27.5933L103.322 31.6244C103.978 33.2684 104.54 34.948 105.007 36.6553Z" fill="white" fill-opacity="0.74"/>
<path d="M10.1259 13.3384C10.1259 13.4629 10.1223 13.5856 10.1115 13.7065C10.0567 14.4558 9.83513 15.1836 9.46291 15.8367C9.09069 16.4898 8.57718 17.0518 7.95978 17.4818C7.34238 17.9118 6.63664 18.199 5.89397 18.3224C5.15129 18.4458 4.39039 18.4024 3.66667 18.1952C2.94295 17.9881 2.27465 17.6224 1.71044 17.1249C1.14623 16.6274 0.70031 16.0106 0.405173 15.3194C0.110036 14.6282 -0.0268914 13.88 0.00436462 13.1293C0.0356206 12.3786 0.234276 11.6443 0.585855 10.9799C0.694708 10.7717 0.819228 10.5721 0.958344 10.3827C1.56381 9.54463 2.41226 8.91206 3.38925 8.57027C4.36624 8.22848 5.42476 8.19392 6.42205 8.47124C7.41933 8.74857 8.3074 9.32444 8.96647 10.1212C9.62554 10.9179 10.0239 11.8972 10.1078 12.927C10.1205 13.0623 10.1259 13.1994 10.1259 13.3384Z" fill="#2EAADC"/>
<path d="M10.1259 13.3385C10.1259 13.463 10.1223 13.5857 10.1115 13.7066L2.53149 12.7971L10.1079 12.927C10.1205 13.0624 10.1259 13.1995 10.1259 13.3385Z" fill="white" fill-opacity="0.74"/>
<path d="M8.31769 15.8845L1.30549 16.7272C1.10644 16.5058 0.927343 16.2673 0.770264 16.0144L8.31769 15.8845Z" fill="white" fill-opacity="0.74"/>
<path d="M6.32878 10.2908L0.585938 10.9801C0.694791 10.7719 0.819311 10.5722 0.958426 10.3828L6.32878 10.2908Z" fill="white" fill-opacity="0.74"/>
<path d="M79.5125 104.306C79.454 104.416 79.3931 104.523 79.3268 104.625C78.9264 105.261 78.3888 105.8 77.7532 106.203C77.1177 106.606 76.4001 106.862 75.6527 106.953C74.9054 107.044 74.1471 106.967 73.4331 106.729C72.7191 106.491 72.0674 106.096 71.5254 105.575C70.9835 105.053 70.5649 104.418 70.3002 103.714C70.0355 103.011 69.9314 102.257 69.9954 101.509C70.0594 100.76 70.2899 100.035 70.6701 99.3866C71.0504 98.7382 71.5708 98.1825 72.1934 97.7601C72.3874 97.6271 72.5911 97.509 72.803 97.4067C73.7315 96.9497 74.7781 96.7879 75.8016 96.943C76.8252 97.0981 77.7764 97.5628 78.5271 98.2743C79.2777 98.9858 79.7917 99.9099 79.9996 100.922C80.2075 101.934 80.0993 102.985 79.6898 103.934C79.6374 104.06 79.5777 104.183 79.5125 104.306Z" fill="#2EAADC"/>
<path d="M79.5126 104.306C79.4541 104.416 79.3933 104.523 79.3269 104.625L73.0586 100.275L79.6899 103.934C79.6375 104.06 79.5779 104.184 79.5126 104.306Z" fill="white" fill-opacity="0.74"/>
<path d="M76.7193 105.709L70.1294 103.173C70.0576 102.884 70.0114 102.59 69.9915 102.293L76.7193 105.709Z" fill="white" fill-opacity="0.74"/>
<path d="M77.5899 99.8377L72.1934 97.7601C72.3873 97.6271 72.5911 97.509 72.803 97.4067L77.5899 99.8377Z" fill="white" fill-opacity="0.74"/>
<path d="M115.371 17.209C115.458 17.2982 115.542 17.3885 115.619 17.4826C116.104 18.0572 116.454 18.7326 116.645 19.4595C116.835 20.1864 116.861 20.9466 116.72 21.6846C116.578 22.4226 116.274 23.1199 115.829 23.7257C115.383 24.3316 114.808 24.8306 114.145 25.1866C113.482 25.5425 112.748 25.7464 111.996 25.7834C111.244 25.8203 110.493 25.6895 109.798 25.4003C109.103 25.1111 108.482 24.6708 107.979 24.1116C107.476 23.5524 107.105 22.8883 106.892 22.1677C106.824 21.9428 106.773 21.7131 106.74 21.4806C106.587 20.4588 106.752 19.4147 107.213 18.4893C107.673 17.5639 108.406 16.8016 109.314 16.3053C110.222 15.809 111.261 15.6025 112.29 15.7137C113.32 15.8248 114.29 16.2484 115.071 16.9271C115.174 17.0151 115.274 17.1095 115.371 17.209Z" fill="#2EAADC"/>
<path d="M115.371 17.2092C115.458 17.2983 115.542 17.3887 115.618 17.4828L109.556 22.1131L115.07 16.9272C115.174 17.0153 115.274 17.1097 115.371 17.2092Z" fill="white" fill-opacity="0.74"/>
<path d="M115.858 20.2917L111.428 25.7808C111.13 25.761 110.835 25.715 110.546 25.6435L115.858 20.2917Z" fill="white" fill-opacity="0.74"/>
<path d="M110.521 17.6729L106.891 22.1677C106.824 21.9428 106.773 21.7131 106.74 21.4806L110.521 17.6729Z" fill="white" fill-opacity="0.74"/>
<path d="M15.4333 58.6629L15.3493 58.6519L15.5541 59.4289C15.7478 60.5131 16.029 61.5798 16.3949 62.6187L22.4029 85.4104C22.5947 86.1379 22.9951 86.7936 23.555 87.2972C24.1149 87.8008 24.8099 88.1303 25.5548 88.2453L37.8071 90.1368C38.5993 90.2591 39.4101 90.1329 40.1274 89.7757C40.8447 89.4185 41.4332 88.8478 41.8115 88.1426L53.4552 66.4391C53.8191 65.8378 54.1515 65.2182 54.4513 64.5826L54.8466 63.8458L54.7849 63.8377C56.0192 60.9239 56.5625 57.7649 56.3725 54.6072C56.1825 51.4494 55.2642 48.3781 53.6893 45.6327C52.1144 42.8872 49.9255 40.5418 47.2931 38.7793C44.6606 37.0168 41.6559 35.8848 38.5131 35.4715C35.3702 35.0582 32.1742 35.3748 29.1741 36.3967C26.174 37.4185 23.451 39.118 21.2172 41.3626C18.9834 43.6072 17.2992 46.3363 16.296 49.3371C15.2927 52.338 14.9975 55.5295 15.4332 58.6629H15.4333Z" fill="black" fill-opacity="0.6"/>
<path d="M38.5587 91.6258C38.3429 91.6258 38.1274 91.6092 37.9142 91.5763L25.1071 89.5989C24.2937 89.4735 23.5346 89.1137 22.9232 88.5638C22.3118 88.0139 21.8746 87.2977 21.6653 86.5033L15.3854 62.6797C15.0016 61.5891 14.7066 60.4693 14.5034 59.3313L14.3445 58.2891C13.9172 54.9595 14.2713 51.5764 15.3789 48.4067C16.4864 45.2371 18.3171 42.3678 20.7263 40.0252C23.1356 37.6827 26.0575 35.9311 29.2614 34.9087C32.4654 33.8863 35.8636 33.6211 39.1878 34.134L39.1324 34.4906C35.8444 33.985 32.4834 34.2532 29.3177 35.2738C26.1519 36.2944 23.269 38.0392 20.8989 40.3691C18.5288 42.6989 16.7371 45.5492 15.6668 48.6927C14.5964 51.8361 14.2771 55.1857 14.7341 58.4742L14.8563 59.2538C15.058 60.3822 15.3505 61.4925 15.7309 62.574L22.0152 86.4115C22.2065 87.138 22.6062 87.7929 23.1653 88.2957C23.7244 88.7986 24.4185 89.1276 25.1624 89.2423L37.9694 91.2196C38.7605 91.3409 39.5697 91.2146 40.2859 90.8579C41.002 90.5013 41.5897 89.9319 41.9681 89.2282L42.287 89.3984C41.9252 90.0711 41.3874 90.6335 40.7309 91.0257C40.0745 91.4179 39.3238 91.6252 38.5587 91.6258Z" fill="white" fill-opacity="0.74"/>
<path d="M41.8073 63.8432L34.0146 85.0764L34.4539 85.2369L42.2465 64.0038L41.8073 63.8432Z" fill="white" fill-opacity="0.74"/>
<path d="M29.084 61.8787L28.6167 61.8992L29.6113 84.4898L30.0786 84.4693L29.084 61.8787Z" fill="white" fill-opacity="0.74"/>
<path d="M37.4762 102.426L21.0655 99.8928C20.9434 99.8732 20.8341 99.8063 20.7614 99.7065C20.6887 99.6068 20.6585 99.4824 20.6774 99.3605C20.6963 99.2386 20.7627 99.1292 20.8622 99.056C20.9618 98.9829 21.0862 98.952 21.2085 98.9702L37.6192 101.504C37.6802 101.513 37.7388 101.534 37.7916 101.565C37.8445 101.597 37.8905 101.639 37.927 101.689C37.9636 101.738 37.99 101.794 38.0047 101.854C38.0194 101.914 38.0221 101.976 38.0127 102.037C38.0032 102.098 37.9819 102.156 37.9498 102.209C37.9177 102.261 37.8755 102.307 37.8256 102.343C37.7758 102.379 37.7192 102.405 37.6592 102.419C37.5993 102.434 37.5371 102.436 37.4762 102.426Z" fill="black" fill-opacity="0.6"/>
<path d="M37.8969 98.9487L21.4861 96.4151C21.4251 96.4061 21.3665 96.3851 21.3137 96.3533C21.2609 96.3216 21.2149 96.2798 21.1783 96.2302C21.1417 96.1807 21.1153 96.1244 21.1006 96.0647C21.0859 96.0049 21.0832 95.9428 21.0927 95.882C21.1021 95.8212 21.1235 95.7629 21.1556 95.7103C21.1877 95.6578 21.2299 95.6121 21.2797 95.5759C21.3296 95.5397 21.3861 95.5137 21.4461 95.4994C21.5061 95.4851 21.5683 95.4827 21.6291 95.4925L38.0399 98.026C38.1009 98.0351 38.1595 98.0561 38.2123 98.0878C38.2651 98.1195 38.3111 98.1614 38.3477 98.2109C38.3843 98.2605 38.4107 98.3167 38.4254 98.3765C38.4401 98.4362 38.4428 98.4983 38.4333 98.5591C38.4239 98.6199 38.4025 98.6783 38.3704 98.7308C38.3383 98.7834 38.2961 98.829 38.2463 98.8652C38.1964 98.9014 38.1399 98.9274 38.0799 98.9418C38.02 98.9561 37.9577 98.9584 37.8969 98.9487Z" fill="black" fill-opacity="0.6"/>
<path d="M38.3178 95.471L21.907 92.9375C21.785 92.9179 21.6757 92.851 21.603 92.7512C21.5302 92.6515 21.5 92.5271 21.5189 92.4052C21.5378 92.2833 21.6043 92.1739 21.7038 92.1007C21.8033 92.0276 21.9278 91.9967 22.05 92.0148L38.4608 94.5484C38.5828 94.568 38.6921 94.6349 38.7648 94.7346C38.8375 94.8344 38.8678 94.9588 38.8489 95.0807C38.83 95.2025 38.7635 95.312 38.664 95.3852C38.5645 95.4583 38.44 95.4892 38.3177 95.471H38.3178Z" fill="black" fill-opacity="0.6"/>
<path d="M28.7606 104.45C32.0157 104.953 34.9352 103.55 35.2814 101.316L23.4934 99.4966C23.1472 101.73 25.5054 103.948 28.7606 104.45Z" fill="black" fill-opacity="0.6"/>
<path d="M101.027 59.3699C100.326 59.2619 99.7471 58.7096 99.4295 58.3394C99.3253 58.218 99.224 58.0921 99.1223 57.9659C98.7524 57.5065 98.4032 57.0726 97.9169 56.8463C96.8434 56.3465 95.5785 57.0446 94.4833 57.7936L94.2188 57.4086C95.4228 56.5849 96.8268 55.8239 98.1147 56.4232C98.6996 56.6954 99.0999 57.1927 99.4869 57.6735C99.5855 57.7959 99.6838 57.918 99.7847 58.0358C100.115 58.4206 100.774 59.0443 101.479 58.9004C101.777 58.8139 102.053 58.6678 102.292 58.471C102.474 58.3355 102.667 58.2144 102.867 58.1088C103.275 57.9138 103.731 57.8434 104.179 57.9065C104.626 57.9696 105.045 58.1634 105.382 58.4634C105.502 58.5771 105.616 58.6974 105.723 58.8236C105.934 59.0629 106.132 59.2888 106.391 59.371C106.773 59.4929 107.177 59.2749 107.606 59.0445C108.047 58.8067 108.504 58.5607 109.021 58.6214C109.038 58.6234 109.055 58.6257 109.072 58.6283C109.993 58.7705 110.418 59.7874 110.658 60.5463L110.212 60.6869C109.886 59.6553 109.488 59.1423 108.967 59.0851C108.596 59.0415 108.223 59.2425 107.828 59.4552C107.333 59.722 106.82 59.9977 106.249 59.8158C105.867 59.6943 105.615 59.4082 105.372 59.1315C105.276 59.0182 105.174 58.9102 105.066 58.8079C104.798 58.5731 104.466 58.4215 104.113 58.3716C103.759 58.3217 103.398 58.3757 103.075 58.527C102.896 58.6221 102.725 58.7307 102.562 58.8521C102.272 59.0883 101.935 59.2606 101.573 59.3578C101.393 59.3944 101.208 59.3985 101.027 59.3699Z" fill="white" fill-opacity="0.74"/>
</svg>

