<svg width="139" height="124" viewBox="0 0 139 124" fill="none" xmlns="http://www.w3.org/2000/svg">
<path fill-rule="evenodd" clip-rule="evenodd" d="M7 118.099V94.5142C7 90.3652 15.4076 87 25.7737 87H68.2263C78.596 87 87 90.3652 87 94.5142V119L7 118.099" fill="#B0D4FF"/>
<path fill-rule="evenodd" clip-rule="evenodd" d="M66.4004 3.30169C61.3827 0.655218 53.7451 0.297428 52.5062 0.130241C37.661 -1.87236 28.7262 19.7827 28.2015 26.3458C27.2322 38.4404 20.859 40.2842 11.8914 47.8571C-6.09486 63.0467 -0.822152 80.6947 9.01271 87.2505C14.9158 91.1869 25.3155 87.2505 25.3155 87.2505C25.4612 87.3529 53.7597 71.3695 67.7085 63.6576C88.6208 60.6724 79.1868 10.0441 66.4004 3.30169" fill="#233862"/>
<path fill-rule="evenodd" clip-rule="evenodd" d="M44.6436 57.1725C40.2575 55.2607 36.9385 48.1557 37.0009 48.1521C38.9959 48.0617 41.9326 45.2755 43.6196 34L44 34.2683L58 40.4327C58 40.4327 56.9658 44.9465 56.2947 49.2435C55.7336 52.8538 55.4292 56.3124 56.2103 56.8219C56.2727 56.8617 49.3011 59.2035 44.6436 57.1725Z" fill="#FFB27D"/>
<path fill-rule="evenodd" clip-rule="evenodd" d="M58 40.1091C58 40.1091 56.9859 44.664 56.3278 49C48.2867 47.534 45.1292 39.409 44 35L58 40.1091" fill="#ED975D"/>
<path fill-rule="evenodd" clip-rule="evenodd" d="M60.9236 43.9951C60.9236 43.9951 41.2923 41.3976 43.1202 29.3896C44.948 17.3817 43.6472 8.95794 56.2581 10.1043C68.869 11.2543 70.6011 16.1954 70.9807 20.3492C71.3603 24.503 66.0756 44.3579 60.9236 43.9951" fill="#FFB27D"/>
<path fill-rule="evenodd" clip-rule="evenodd" d="M70 14.9706C70 14.9706 57.7764 25.9412 49.4636 26.8262C41.1473 27.7111 38 24.9293 38 24.9293C38 24.9293 42.9002 20.6911 45.8503 13.8504C46.7178 11.834 48.5567 10.4524 50.6717 10.262C56.6078 9.728 67.86 9.48529 70 14.9706" fill="#233862"/>
<path fill-rule="evenodd" clip-rule="evenodd" d="M62 13.3415C62 13.3415 66.1397 17.3952 67.447 20.4015C68.7034 23.3049 69.0811 30.2436 68.0788 33C68.0788 33 74.5353 20.2986 70.8786 14.128C67.0039 7.58253 62 13.3415 62 13.3415" fill="#233862"/>
<path fill-rule="evenodd" clip-rule="evenodd" d="M68.5477 120.157C67.511 121.043 64.6046 121.572 60.7816 121.821C48.7523 122.613 27.6109 120.651 26.807 118.451C24.0316 110.839 25.9922 108.473 23.6787 96.8174C23.435 95.5788 23.1368 94.2357 22.7876 92.7738C20.856 84.7694 18.9791 82.0473 25.8249 69.1855C32.0342 57.5372 38.0124 47.6666 38.5944 48.0086C54.9743 57.6334 56.1775 50.602 56.1775 50.602C56.1775 50.602 73.2838 66.8198 72.9964 85.7596C72.4108 124.586 72.8364 116.47 68.5477 120.157Z" fill="white"/>
<path fill-rule="evenodd" clip-rule="evenodd" d="M27.9824 118.463C25.1804 110.732 26.3356 107.314 24 95.4772L30.3963 80C30.3963 80 29.4305 98.2867 34.8435 103.095C40.2564 107.904 57.0167 112.379 59.6497 116.398C60.9203 118.329 61.7576 120.259 62 121.813C49.8558 122.618 28.7939 120.697 27.9824 118.463Z" fill="#EBF3FF"/>
<path fill-rule="evenodd" clip-rule="evenodd" d="M47 114.015C47 114.015 58.861 111.118 60.7736 112.271C62.6861 113.429 67.3622 117.634 67.9512 119.099C68.5366 120.564 63.6897 117.986 62.1116 117.523C61.0935 117.223 58.4028 118.245 57.0756 118.732C51.476 120.783 48.0472 119.73 48.0472 119.73L47 114.015" fill="#FFB27D"/>
<path fill-rule="evenodd" clip-rule="evenodd" d="M17.885 55.9893C10.1671 66.696 -5.13839 112.321 3.635 118.41C13.5145 125.261 48.5936 120.201 48.5936 120.201C48.5936 120.201 49.7612 114.774 48.1381 112.145C46.5114 109.519 20.119 105.279 18.9008 104.067C17.6825 102.855 34.1268 80.4309 34.1268 76.7948C34.1268 73.1588 38.5944 48 38.5944 48C38.5944 48 23.3652 48.3827 17.885 55.9893Z" fill="white"/>
<path fill-rule="evenodd" clip-rule="evenodd" d="M61 116C61 116 63.6763 119.301 64.5541 119.694C65.4318 120.087 66 119.989 66 119.989L64.1975 116.887L61 116" fill="#FFB27D"/>
<path fill-rule="evenodd" clip-rule="evenodd" d="M60 113L68 116.533C68 116.533 67.6578 117.038 66.6754 116.998C65.689 116.957 63.2048 116.13 63.2048 116.13L60 113" fill="#FFB27D"/>
<path fill-rule="evenodd" clip-rule="evenodd" d="M65 124H121.886L139 81H82.2008L65 124" fill="#FDC748"/>
<path fill-rule="evenodd" clip-rule="evenodd" d="M122 122H47V124H121.335L122 122" fill="#E6B137"/>
<path fill-rule="evenodd" clip-rule="evenodd" d="M106.882 102.498C107.341 101.119 106.42 100 104.825 100C103.235 100 101.574 101.119 101.116 102.498C100.662 103.878 101.582 105 103.173 105C104.768 105 106.428 103.878 106.882 102.498" fill="white"/>
</svg>
