<svg width="476" height="376" viewBox="0 0 476 376" fill="none" xmlns="http://www.w3.org/2000/svg">
<g clip-path="url(#clip0_138_4633)">
<path d="M287.419 165.584H178.355C175.333 165.58 172.436 164.379 170.299 162.244C168.162 160.108 166.96 157.213 166.957 154.193V11.9411C166.96 8.92124 168.162 6.02604 170.299 3.89068C172.436 1.75532 175.333 0.554184 178.355 0.550781H287.419C290.441 0.554185 293.338 1.75532 295.475 3.89068C297.612 6.02604 298.814 8.92124 298.817 11.9411V154.193C298.814 157.213 297.612 160.108 295.475 162.244C293.338 164.379 290.441 165.58 287.419 165.584Z" fill="#F0F0F0"/>
<path d="M287.419 166.133H178.354C175.187 166.129 172.15 164.87 169.91 162.631C167.67 160.393 166.41 157.358 166.406 154.192V11.9404C166.41 8.77475 167.67 5.73976 169.91 3.50127C172.15 1.26279 175.187 0.00362099 178.354 0H287.419C290.587 0.00356565 293.624 1.26271 295.864 3.50119C298.104 5.73968 299.364 8.77471 299.367 11.9404V154.192C299.364 157.358 298.104 160.393 295.864 162.632C293.624 164.87 290.587 166.129 287.419 166.133ZM178.354 1.10022C175.478 1.10346 172.721 2.24659 170.688 4.27882C168.654 6.31106 167.51 9.06643 167.507 11.9404V154.192C167.51 157.066 168.654 159.822 170.688 161.854C172.721 163.886 175.478 165.029 178.354 165.033H287.419C290.295 165.029 293.052 163.886 295.086 161.854C297.119 159.822 298.263 157.066 298.266 154.192V11.9404C298.263 9.06639 297.119 6.31099 295.086 4.27875C293.052 2.24651 290.295 1.10341 287.419 1.10022H178.354Z" fill="#2EAADC"/>
<path d="M464.603 165.584H355.538C352.517 165.58 349.619 164.379 347.483 162.244C345.346 160.108 344.144 157.213 344.141 154.193V11.9411C344.144 8.92124 345.346 6.02604 347.483 3.89068C349.619 1.75532 352.517 0.554184 355.538 0.550781H464.603C467.625 0.554184 470.522 1.75532 472.659 3.89068C474.795 6.02604 475.997 8.92124 476.001 11.9411V154.193C475.997 157.213 474.795 160.108 472.659 162.244C470.522 164.379 467.625 165.58 464.603 165.584Z" fill="#F0F0F0"/>
<path d="M230.959 183.189C241.846 183.189 250.671 174.369 250.671 163.489C250.671 152.609 241.846 143.789 230.959 143.789C220.072 143.789 211.246 152.609 211.246 163.489C211.246 174.369 220.072 183.189 230.959 183.189Z" fill="#2EAADC"/>
<path d="M228.27 173.743C227.929 173.743 227.593 173.663 227.289 173.511C226.985 173.359 226.72 173.138 226.516 172.866L221.138 165.7C220.965 165.47 220.839 165.208 220.768 164.929C220.696 164.65 220.681 164.36 220.721 164.075C220.762 163.79 220.858 163.516 221.005 163.269C221.152 163.021 221.346 162.805 221.576 162.632C221.807 162.459 222.069 162.334 222.348 162.262C222.627 162.191 222.917 162.175 223.202 162.216C223.487 162.257 223.761 162.353 224.009 162.5C224.257 162.646 224.473 162.84 224.646 163.07L228.165 167.758L237.201 154.212C237.525 153.731 238.026 153.397 238.595 153.284C239.164 153.171 239.755 153.289 240.238 153.61C240.721 153.932 241.057 154.432 241.171 155C241.286 155.569 241.17 156.16 240.85 156.643L230.094 172.767C229.9 173.058 229.638 173.299 229.331 173.469C229.024 173.639 228.681 173.732 228.331 173.742C228.31 173.742 228.29 173.743 228.27 173.743Z" fill="white"/>
<path d="M213.854 241.66H4.67891C3.43843 241.658 2.24916 241.165 1.372 240.289C0.494845 239.412 0.00143065 238.224 0 236.984V47.7462C0.00138412 46.5065 0.494785 45.318 1.37195 44.4414C2.24912 43.5648 3.43841 43.0717 4.67891 43.0703H213.854C215.094 43.0717 216.284 43.5648 217.161 44.4414C218.038 45.318 218.531 46.5065 218.533 47.7462V236.984C218.531 238.224 218.038 239.412 217.161 240.289C216.284 241.165 215.094 241.658 213.854 241.66Z" fill="#3F3D56"/>
<path d="M209.449 237.257H9.08126C7.84077 237.255 6.6515 236.762 5.77435 235.885C4.89719 235.009 4.40377 233.82 4.40234 232.581V52.1447C4.40373 50.905 4.89713 49.7164 5.7743 48.8398C6.65146 47.9632 7.84076 47.4701 9.08126 47.4688H209.449C210.689 47.4701 211.879 47.9632 212.756 48.8398C213.633 49.7164 214.126 50.905 214.128 52.1447V232.581C214.126 233.82 213.633 235.009 212.756 235.885C211.879 236.762 210.689 237.255 209.449 237.257Z" fill="white"/>
<path d="M19.2622 67.073C42.8424 66.6632 66.4252 66.6043 90.0105 66.8964C113.592 67.1901 137.166 67.8364 160.732 68.835C173.956 69.3955 187.175 70.0669 200.388 70.8493C201.45 70.9121 201.446 69.2615 200.388 69.199C176.845 67.8067 153.286 66.765 129.709 66.0737C106.135 65.3843 82.5546 65.0474 58.9674 65.063C45.7316 65.0718 32.4965 65.1917 19.2622 65.4227C18.2007 65.4411 18.1974 67.0915 19.2622 67.073V67.073Z" fill="#3F3D56"/>
<path d="M183.594 56.7247L193.905 55.9578C194.958 55.8794 194.967 54.2285 193.905 54.3074L183.594 55.0744C182.541 55.1527 182.532 56.8037 183.594 56.7247Z" fill="#3F3D56"/>
<path d="M183.594 66.627L193.905 65.8601C194.958 65.7818 194.967 64.1308 193.905 64.2098L183.594 64.9767C182.541 65.055 182.532 66.706 183.594 66.627Z" fill="#3F3D56"/>
<path d="M182.818 62.1036L197.478 63.4346C198.536 63.5306 198.53 61.8797 197.478 61.7843L182.818 60.4533C181.76 60.3572 181.767 62.0081 182.818 62.1036Z" fill="#3F3D56"/>
<path d="M25.3639 54.504C24.6469 54.4996 23.9444 54.7061 23.3441 55.098C22.7437 55.4898 22.2721 56.0496 21.9879 56.7075C21.67 57.3514 21.5718 58.0816 21.7085 58.7865C21.8451 59.4915 22.209 60.1323 22.7445 60.6109C23.248 61.039 23.8518 61.3325 24.4995 61.464C25.1473 61.5955 25.8178 61.5607 26.4485 61.3629C27.0934 61.1378 27.6527 60.7185 28.0493 60.1626C28.446 59.6067 28.6604 58.9416 28.6632 58.2588C28.692 57.5014 28.4866 56.7535 28.0751 56.1167C27.6636 55.48 27.0658 54.9854 26.363 54.7002C26.1519 54.6429 25.9267 54.6713 25.7364 54.7792C25.5461 54.8872 25.4063 55.066 25.3474 55.2765C25.2953 55.4873 25.326 55.7101 25.4333 55.8989C25.5406 56.0877 25.7162 56.2282 25.924 56.2916C26.0679 56.3471 25.7926 56.2209 25.927 56.294C25.9822 56.3241 26.0385 56.3513 26.0927 56.3834C26.1389 56.4107 26.183 56.4406 26.2279 56.4698C26.382 56.5704 26.1526 56.396 26.2512 56.4864C26.3366 56.5648 26.4212 56.6413 26.4989 56.7278C26.5283 56.7605 26.6433 56.8514 26.5539 56.7878C26.4855 56.7392 26.5275 56.7506 26.5539 56.7897C26.5739 56.8193 26.595 56.8481 26.6148 56.8779C26.6792 56.9753 26.7377 57.0764 26.79 57.1807C26.8022 57.2048 26.8133 57.2295 26.8256 57.2535C26.8487 57.2985 26.8823 57.3103 26.8279 57.254C26.776 57.2001 26.809 57.2038 26.8276 57.2556C26.8398 57.2897 26.8532 57.3233 26.865 57.3575C26.9038 57.4688 26.9363 57.5822 26.9624 57.6971C26.9745 57.7502 26.9842 57.8036 26.9946 57.8571C27.0315 58.0466 26.9893 57.7393 26.9982 57.88C27.0056 57.9976 27.0143 58.1138 27.0122 58.2318C27.0113 58.2858 27.009 58.3397 27.0052 58.3936C27.0033 58.4205 27.0003 58.4473 26.9985 58.4741C26.99 58.6036 26.9897 58.4268 27.0078 58.4147C26.9701 58.5247 26.945 58.6385 26.9332 58.7541C26.9184 58.8054 26.9009 58.8556 26.8844 58.9064C26.827 59.0834 26.9383 58.8099 26.8771 58.9309C26.8267 59.0348 26.7704 59.1358 26.7084 59.2333C26.6815 59.2741 26.5801 59.3663 26.663 59.3021C26.753 59.2325 26.6158 59.3524 26.5865 59.3833C26.5489 59.4229 26.5099 59.4612 26.4695 59.4981C26.4436 59.5233 26.4162 59.5471 26.3876 59.5692C26.3823 59.5666 26.5255 59.4736 26.4483 59.5228C26.3502 59.5854 26.2573 59.6522 26.1539 59.7067C26.1419 59.713 26.0097 59.7742 26.0103 59.7764C26.0045 59.7541 26.1802 59.7146 26.0596 59.7535C26.0343 59.7617 26.0095 59.7716 25.9842 59.7801C25.8744 59.817 25.7624 59.8468 25.6488 59.8694C25.6228 59.8745 25.5953 59.8772 25.5697 59.8838C25.4843 59.9058 25.6512 59.8709 25.6562 59.8737C25.5931 59.871 25.53 59.8766 25.4683 59.8904C25.3512 59.8971 25.2337 59.8971 25.1166 59.8903C25.0895 59.8888 25.0624 59.8861 25.0353 59.8845C24.9724 59.8809 24.9263 59.8355 25.01 59.8847C25.0746 59.9227 25.0692 59.895 25.012 59.8844C24.9852 59.8795 24.9583 59.8753 24.9316 59.8703C24.8156 59.8486 24.7009 59.8205 24.5881 59.7862C24.5274 59.7677 24.4678 59.7462 24.4079 59.7253C24.3818 59.7177 24.3564 59.7079 24.332 59.6961C24.3316 59.6893 24.4864 59.77 24.4047 59.726C24.3015 59.6704 24.1949 59.6238 24.0942 59.5631C24.0404 59.5307 23.9888 59.4955 23.9365 59.4608C23.9135 59.447 23.8917 59.4313 23.8712 59.4141C23.8729 59.4071 23.9992 59.524 23.9329 59.4609C23.8491 59.381 23.7594 59.3096 23.68 59.2245C23.6618 59.2051 23.6446 59.1847 23.6265 59.1653L23.609 59.1452C23.5643 59.0906 23.5634 59.0908 23.6065 59.146C23.6503 59.1589 23.6483 59.2069 23.6068 59.1446C23.592 59.1223 23.5763 59.1008 23.5615 59.0785C23.4944 58.983 23.4373 58.881 23.3908 58.774C23.3948 58.7708 23.4623 58.9725 23.4107 58.8203C23.401 58.7916 23.39 58.7633 23.3805 58.7344C23.3615 58.6773 23.3448 58.6195 23.3303 58.561C23.3161 58.5031 23.3087 58.4434 23.2943 58.3858C23.2701 58.2886 23.3085 58.4624 23.3041 58.4581C23.2904 58.4445 23.2962 58.3602 23.2952 58.3401C23.2886 58.2106 23.3034 58.0849 23.3057 57.9562C23.3075 57.8565 23.2974 58.0339 23.2953 58.0287C23.2958 57.9988 23.3011 57.9693 23.311 57.9411C23.3259 57.8732 23.3399 57.8054 23.3582 57.7383C23.3791 57.6614 23.4032 57.5855 23.4305 57.5105C23.4407 57.4825 23.4531 57.4548 23.4626 57.4265C23.4974 57.3229 23.3938 57.5517 23.4509 57.4582C23.5295 57.3297 23.588 57.1906 23.6714 57.0636C23.6911 57.0335 23.8113 56.8659 23.7475 56.9505C23.684 57.0348 23.8128 56.875 23.8372 56.8479C23.9385 56.7352 24.0576 56.6427 24.1624 56.5347C24.2245 56.4709 24.1191 56.5662 24.1129 56.5706C24.1454 56.5475 24.1772 56.5234 24.21 56.5007C24.2674 56.4613 24.3261 56.4239 24.3862 56.3887C24.454 56.3491 24.5306 56.3195 24.5962 56.2775C24.6738 56.2279 24.5369 56.2993 24.5345 56.3008C24.5699 56.2832 24.6069 56.2691 24.6451 56.2587C24.709 56.236 24.9871 56.1161 25.0454 56.1536C25.0428 56.1519 24.8343 56.1704 25.0028 56.1595C25.0426 56.157 25.0823 56.1531 25.1222 56.1514C25.2029 56.1481 25.2833 56.1501 25.3639 56.1543C25.5825 56.1529 25.7917 56.0655 25.9462 55.911C26.1007 55.7566 26.1882 55.5475 26.1896 55.3291C26.1849 55.1118 26.0964 54.9046 25.9426 54.7508C25.7887 54.5971 25.5814 54.5086 25.3639 54.504Z" fill="#3F3D56"/>
<path d="M36.9264 54.504C36.2094 54.4996 35.5069 54.7061 34.9066 55.098C34.3062 55.4898 33.8346 56.0496 33.5504 56.7075C33.2325 57.3514 33.1343 58.0816 33.271 58.7865C33.4076 59.4915 33.7715 60.1323 34.307 60.6109C34.8105 61.039 35.4143 61.3325 36.062 61.464C36.7098 61.5955 37.3803 61.5607 38.011 61.3629C38.6559 61.1378 39.2152 60.7185 39.6118 60.1626C40.0085 59.6067 40.2229 58.9416 40.2257 58.2588C40.2545 57.5014 40.0491 56.7535 39.6376 56.1167C39.2261 55.48 38.6283 54.9854 37.9255 54.7002C37.7144 54.6429 37.4892 54.6713 37.2989 54.7792C37.1086 54.8872 36.9688 55.066 36.9099 55.2765C36.8578 55.4873 36.8885 55.7101 36.9958 55.8989C37.1031 56.0877 37.2787 56.2282 37.4865 56.2916C37.6304 56.3471 37.3551 56.2209 37.4895 56.294C37.5447 56.3241 37.601 56.3513 37.6552 56.3834C37.7014 56.4107 37.7455 56.4406 37.7904 56.4698C37.9445 56.5704 37.7151 56.396 37.8137 56.4864C37.8991 56.5648 37.9837 56.6413 38.0614 56.7278C38.0908 56.7605 38.2058 56.8514 38.1164 56.7878C38.048 56.7392 38.09 56.7506 38.1164 56.7897C38.1364 56.8193 38.1575 56.8481 38.1773 56.8779C38.2417 56.9753 38.3002 57.0764 38.3525 57.1807C38.3647 57.2048 38.3758 57.2295 38.3881 57.2535C38.4112 57.2985 38.4448 57.3103 38.3904 57.254C38.3385 57.2001 38.3715 57.2038 38.3901 57.2556C38.4023 57.2897 38.4157 57.3233 38.4275 57.3575C38.4663 57.4688 38.4988 57.5822 38.5249 57.6971C38.537 57.7502 38.5467 57.8036 38.5571 57.8571C38.594 58.0466 38.5518 57.7393 38.5607 57.88C38.5681 57.9976 38.5768 58.1138 38.5747 58.2318C38.5738 58.2858 38.5715 58.3397 38.5677 58.3936C38.5658 58.4205 38.5628 58.4473 38.561 58.4741C38.5525 58.6036 38.5522 58.4268 38.5703 58.4147C38.5326 58.5247 38.5075 58.6385 38.4957 58.7541C38.4809 58.8054 38.4634 58.8556 38.4469 58.9064C38.3895 59.0834 38.5008 58.8099 38.4396 58.9309C38.3892 59.0348 38.3329 59.1358 38.2709 59.2333C38.244 59.2741 38.1426 59.3663 38.2255 59.3021C38.3155 59.2325 38.1783 59.3524 38.149 59.3833C38.1114 59.4229 38.0724 59.4612 38.032 59.4981C38.0061 59.5233 37.9787 59.5471 37.9501 59.5692C37.9448 59.5666 38.088 59.4736 38.0108 59.5228C37.9127 59.5854 37.8198 59.6522 37.7164 59.7067C37.7044 59.713 37.5722 59.7742 37.5728 59.7764C37.567 59.7541 37.7427 59.7146 37.6221 59.7535C37.5968 59.7617 37.572 59.7716 37.5467 59.7801C37.4369 59.817 37.3249 59.8468 37.2113 59.8694C37.1853 59.8745 37.1578 59.8772 37.1322 59.8838C37.0468 59.9058 37.2137 59.8709 37.2187 59.8737C37.1556 59.871 37.0925 59.8766 37.0308 59.8904C36.9137 59.8971 36.7962 59.8971 36.6791 59.8903C36.652 59.8888 36.6249 59.8861 36.5978 59.8845C36.5349 59.8809 36.4888 59.8355 36.5725 59.8847C36.6371 59.9227 36.6317 59.895 36.5745 59.8844C36.5477 59.8795 36.5208 59.8753 36.4941 59.8703C36.3781 59.8486 36.2634 59.8205 36.1506 59.7862C36.0899 59.7677 36.0303 59.7462 35.9704 59.7253C35.9443 59.7177 35.9189 59.7079 35.8945 59.6961C35.8941 59.6893 36.0489 59.77 35.9672 59.726C35.864 59.6704 35.7574 59.6238 35.6567 59.5631C35.6029 59.5307 35.5513 59.4955 35.499 59.4608C35.476 59.447 35.4542 59.4313 35.4337 59.4141C35.4354 59.4071 35.5617 59.524 35.4954 59.4609C35.4116 59.381 35.3219 59.3096 35.2425 59.2245C35.2243 59.2051 35.2071 59.1847 35.189 59.1653L35.1715 59.1452C35.1268 59.0906 35.1259 59.0908 35.169 59.146C35.2128 59.1589 35.2108 59.2069 35.1693 59.1446C35.1545 59.1223 35.1388 59.1008 35.124 59.0785C35.0569 58.983 34.9998 58.881 34.9533 58.774C34.9573 58.7708 35.0248 58.9725 34.9732 58.8203C34.9635 58.7916 34.9525 58.7633 34.943 58.7344C34.924 58.6773 34.9073 58.6195 34.8928 58.561C34.8786 58.5031 34.8712 58.4434 34.8568 58.3858C34.8326 58.2886 34.871 58.4624 34.8666 58.4581C34.8529 58.4445 34.8587 58.3602 34.8577 58.3401C34.8511 58.2106 34.8659 58.0849 34.8682 57.9562C34.87 57.8565 34.8599 58.0339 34.8578 58.0287C34.8583 57.9988 34.8636 57.9693 34.8735 57.9411C34.8884 57.8732 34.9024 57.8054 34.9207 57.7383C34.9416 57.6614 34.9657 57.5855 34.993 57.5105C35.0032 57.4825 35.0156 57.4548 35.0251 57.4265C35.0599 57.3229 34.9563 57.5517 35.0134 57.4582C35.092 57.3297 35.1505 57.1906 35.2339 57.0636C35.2536 57.0335 35.3738 56.8659 35.31 56.9505C35.2465 57.0348 35.3753 56.875 35.3997 56.8479C35.501 56.7352 35.6201 56.6427 35.7249 56.5347C35.787 56.4709 35.6816 56.5662 35.6754 56.5706C35.7079 56.5475 35.7397 56.5234 35.7725 56.5007C35.8299 56.4613 35.8886 56.4239 35.9487 56.3887C36.0165 56.3491 36.0931 56.3195 36.1587 56.2775C36.2363 56.2279 36.0994 56.2993 36.097 56.3008C36.1324 56.2832 36.1694 56.2691 36.2076 56.2587C36.2715 56.236 36.5496 56.1161 36.6079 56.1536C36.6053 56.1519 36.3968 56.1704 36.5653 56.1595C36.6051 56.157 36.6448 56.1531 36.6847 56.1514C36.7654 56.1481 36.8458 56.1501 36.9264 56.1543C37.145 56.1529 37.3542 56.0655 37.5087 55.911C37.6632 55.7566 37.7507 55.5475 37.7521 55.3291C37.7474 55.1118 37.6589 54.9046 37.5051 54.7508C37.3512 54.5971 37.1439 54.5086 36.9264 54.504Z" fill="#3F3D56"/>
<path d="M48.485 54.504C47.768 54.4996 47.0655 54.7061 46.4652 55.098C45.8648 55.4898 45.3931 56.0496 45.109 56.7075C44.791 57.3514 44.6929 58.0816 44.8296 58.7865C44.9662 59.4915 45.3301 60.1323 45.8656 60.6109C46.3691 61.039 46.9729 61.3325 47.6206 61.464C48.2684 61.5955 48.9389 61.5607 49.5696 61.3629C50.2145 61.1378 50.7738 60.7185 51.1704 60.1626C51.567 59.6067 51.7815 58.9416 51.7843 58.2588C51.8131 57.5014 51.6077 56.7535 51.1962 56.1167C50.7847 55.48 50.1869 54.9854 49.4841 54.7002C49.273 54.6429 49.0478 54.6713 48.8575 54.7792C48.6672 54.8872 48.5274 55.066 48.4685 55.2765C48.4164 55.4873 48.4471 55.7101 48.5544 55.8989C48.6617 56.0877 48.8373 56.2282 49.0451 56.2916C49.189 56.3471 48.9137 56.2209 49.0481 56.294C49.1033 56.3241 49.1596 56.3513 49.2138 56.3834C49.26 56.4107 49.3041 56.4406 49.349 56.4698C49.5031 56.5704 49.2737 56.396 49.3722 56.4864C49.4577 56.5648 49.5423 56.6413 49.62 56.7278C49.6494 56.7605 49.7644 56.8514 49.675 56.7878C49.6066 56.7392 49.6486 56.7506 49.675 56.7897C49.695 56.8193 49.7161 56.8481 49.7359 56.8779C49.8002 56.9753 49.8588 57.0764 49.9111 57.1807C49.9233 57.2048 49.9343 57.2295 49.9467 57.2535C49.9698 57.2985 50.0033 57.3103 49.949 57.254C49.897 57.2001 49.9301 57.2038 49.9487 57.2556C49.9609 57.2897 49.9742 57.3233 49.9861 57.3575C50.0248 57.4688 50.0573 57.5822 50.0835 57.6971C50.0956 57.7502 50.1053 57.8036 50.1157 57.8571C50.1526 58.0466 50.1103 57.7393 50.1192 57.88C50.1267 57.9976 50.1354 58.1138 50.1333 58.2318C50.1324 58.2858 50.13 58.3397 50.1263 58.3936C50.1244 58.4205 50.1214 58.4473 50.1196 58.4741C50.111 58.6036 50.1108 58.4268 50.1289 58.4147C50.0912 58.5247 50.0661 58.6385 50.0543 58.7541C50.0395 58.8054 50.0219 58.8556 50.0055 58.9064C49.948 59.0834 50.0594 58.8099 49.9982 58.9309C49.9478 59.0348 49.8915 59.1358 49.8295 59.2333C49.8026 59.2741 49.7011 59.3663 49.7841 59.3021C49.8741 59.2325 49.7369 59.3524 49.7076 59.3833C49.67 59.4229 49.631 59.4612 49.5905 59.4981C49.5646 59.5233 49.5373 59.5471 49.5086 59.5692C49.5034 59.5666 49.6466 59.4736 49.5694 59.5228C49.4713 59.5854 49.3784 59.6522 49.275 59.7067C49.263 59.713 49.1308 59.7742 49.1313 59.7764C49.1256 59.7541 49.3012 59.7146 49.1807 59.7535C49.1554 59.7617 49.1305 59.7716 49.1053 59.7801C48.9955 59.817 48.8835 59.8468 48.7699 59.8694C48.7439 59.8745 48.7163 59.8772 48.6907 59.8838C48.6054 59.9058 48.7723 59.8709 48.7773 59.8737C48.7142 59.871 48.651 59.8766 48.5894 59.8904C48.4722 59.8971 48.3548 59.8971 48.2377 59.8903C48.2106 59.8888 48.1835 59.8861 48.1564 59.8845C48.0935 59.8809 48.0473 59.8355 48.131 59.8847C48.1956 59.9227 48.1903 59.895 48.133 59.8844C48.1063 59.8795 48.0794 59.8753 48.0526 59.8703C47.9367 59.8486 47.822 59.8205 47.7091 59.7862C47.6484 59.7677 47.5889 59.7462 47.529 59.7253C47.5029 59.7177 47.4775 59.7079 47.453 59.6961C47.4527 59.6893 47.6075 59.77 47.5257 59.726C47.4226 59.6704 47.3159 59.6238 47.2152 59.5631C47.1615 59.5307 47.1098 59.4955 47.0576 59.4608C47.0346 59.447 47.0128 59.4313 46.9922 59.4141C46.994 59.4071 47.1203 59.524 47.054 59.4609C46.9701 59.381 46.8805 59.3096 46.8011 59.2245C46.7829 59.2051 46.7657 59.1847 46.7476 59.1653L46.7301 59.1452C46.6853 59.0906 46.6845 59.0908 46.7276 59.146C46.7714 59.1589 46.7694 59.2069 46.7279 59.1446C46.7131 59.1223 46.6973 59.1008 46.6826 59.0785C46.6155 58.983 46.5583 58.881 46.5119 58.774C46.5159 58.7708 46.5834 58.9725 46.5318 58.8203C46.522 58.7916 46.5111 58.7633 46.5015 58.7344C46.4825 58.6773 46.4659 58.6195 46.4514 58.561C46.4372 58.5031 46.4298 58.4434 46.4154 58.3858C46.3912 58.2886 46.4296 58.4624 46.4252 58.4581C46.4115 58.4445 46.4173 58.3602 46.4163 58.3401C46.4097 58.2106 46.4244 58.0849 46.4268 57.9562C46.4286 57.8565 46.4185 58.0339 46.4164 58.0287C46.4169 57.9988 46.4222 57.9693 46.4321 57.9411C46.447 57.8732 46.4609 57.8054 46.4792 57.7383C46.5002 57.6614 46.5243 57.5855 46.5516 57.5105C46.5618 57.4825 46.5742 57.4548 46.5837 57.4265C46.6185 57.3229 46.5149 57.5517 46.572 57.4582C46.6506 57.3297 46.7091 57.1906 46.7925 57.0636C46.8122 57.0335 46.9324 56.8659 46.8686 56.9505C46.8051 57.0348 46.9339 56.875 46.9583 56.8479C47.0596 56.7352 47.1787 56.6427 47.2835 56.5347C47.3456 56.4709 47.2402 56.5662 47.234 56.5706C47.2665 56.5475 47.2983 56.5234 47.3311 56.5007C47.3885 56.4613 47.4472 56.4239 47.5073 56.3887C47.5751 56.3491 47.6517 56.3195 47.7173 56.2775C47.7949 56.2279 47.658 56.2993 47.6556 56.3008C47.691 56.2832 47.728 56.2691 47.7662 56.2587C47.8301 56.236 48.1082 56.1161 48.1665 56.1536C48.1639 56.1519 47.9554 56.1704 48.1239 56.1595C48.1638 56.157 48.2034 56.1531 48.2433 56.1514C48.324 56.1481 48.4044 56.1501 48.485 56.1543C48.7036 56.1529 48.9127 56.0655 49.0673 55.911C49.2218 55.7566 49.3093 55.5475 49.3107 55.3291C49.306 55.1118 49.2175 54.9046 49.0637 54.7508C48.9099 54.5971 48.7025 54.5086 48.485 54.504Z" fill="#3F3D56"/>
<path d="M24.3598 97.8424L25.0961 126.01L25.8325 154.179C25.9254 157.733 25.423 162.581 29.0305 164.663C30.5353 165.531 32.3346 165.722 34.0401 165.769C36.3042 165.832 38.5755 165.785 40.8404 165.788L69.0515 165.818C72.7581 165.822 76.8293 165.714 79.485 162.73C81.7017 160.24 82.3299 156.787 82.5521 153.566C82.8454 149.314 82.7047 145.009 82.7428 140.749L82.8694 126.593L82.9961 112.436C83.0345 108.136 83.2379 103.8 83.0493 99.5022C82.9053 96.223 82.3506 92.7212 80.1506 90.1442C77.6444 87.2085 73.6817 86.8122 70.0674 86.6966C60.72 86.3976 51.3708 86.1451 42.0227 85.8696C39.8721 85.8062 37.7152 85.6908 35.5633 85.7193C33.6496 85.6822 31.7438 85.974 29.929 86.5818C26.9065 87.7126 24.5455 90.4253 24.6506 93.7897C24.6574 94.4943 24.8131 95.1897 25.1074 95.8301C25.4017 96.4705 25.8279 97.0416 26.3584 97.506C27.165 98.188 28.3389 97.0262 27.5261 96.339C25.323 94.4765 26.3899 90.9865 28.3158 89.3335C31.1061 86.9385 35.4805 87.3271 38.8831 87.4274L65.3647 88.2079C67.4184 88.2685 69.4778 88.2888 71.5291 88.4095C73.3602 88.5172 75.2729 88.755 76.9119 89.6362C79.7459 91.16 80.852 94.2867 81.2244 97.3106C81.6929 101.115 81.4108 105.041 81.3766 108.863L81.2561 122.332L81.0176 148.995C80.9886 152.238 81.0387 155.586 79.9468 158.687C79.4775 160.125 78.6182 161.405 77.4644 162.385C76.0154 163.436 74.284 164.028 72.4945 164.083C70.4845 164.245 68.4514 164.167 66.4368 164.165L59.556 164.157L46.345 164.143L39.4642 164.136C37.4536 164.134 35.4284 164.204 33.4204 164.094C31.8792 164.009 30.1593 163.743 29.0238 162.597C27.7518 161.314 27.6338 159.332 27.5754 157.63C26.9674 139.906 26.647 122.166 26.1835 104.438L26.0111 97.8423C25.9834 96.7824 24.3319 96.7782 24.3597 97.8423L24.3598 97.8424Z" fill="#3F3D56"/>
<path d="M128.946 97.8424L129.682 126.01L130.418 154.179C130.511 157.733 130.009 162.581 133.616 164.663C135.121 165.531 136.921 165.722 138.626 165.769C140.89 165.832 143.161 165.785 145.426 165.788L173.637 165.818C177.344 165.822 181.415 165.714 184.071 162.73C186.288 160.24 186.916 156.787 187.138 153.566C187.431 149.314 187.291 145.009 187.329 140.749L187.455 126.593L187.582 112.436C187.62 108.136 187.824 103.8 187.635 99.5022C187.491 96.223 186.936 92.7212 184.737 90.1442C182.23 87.2085 178.268 86.8122 174.653 86.6966C165.306 86.3976 155.957 86.1451 146.609 85.8696C144.458 85.8062 142.301 85.6908 140.149 85.7193C138.236 85.6822 136.33 85.974 134.515 86.5818C131.492 87.7126 129.131 90.4253 129.237 93.7897C129.243 94.4943 129.399 95.1897 129.693 95.8301C129.988 96.4705 130.414 97.0416 130.944 97.506C131.751 98.188 132.925 97.0262 132.112 96.339C129.909 94.4765 130.976 90.9865 132.902 89.3335C135.692 86.9385 140.066 87.3271 143.469 87.4274L169.951 88.2079C172.004 88.2685 174.064 88.2888 176.115 88.4095C177.946 88.5172 179.859 88.755 181.498 89.6362C184.332 91.16 185.438 94.2867 185.81 97.3106C186.279 101.115 185.997 105.041 185.963 108.863L185.842 122.332L185.604 148.995C185.575 152.238 185.625 155.586 184.533 158.687C184.063 160.125 183.204 161.405 182.05 162.385C180.601 163.436 178.87 164.028 177.08 164.083C175.07 164.245 173.037 164.167 171.023 164.165L164.142 164.157L150.931 164.143L144.05 164.136C142.04 164.134 140.014 164.204 138.006 164.094C136.465 164.009 134.745 163.743 133.61 162.597C132.338 161.314 132.22 159.332 132.161 157.63C131.553 139.906 131.233 122.166 130.769 104.438L130.597 97.8423C130.569 96.7824 128.918 96.7782 128.946 97.8423L128.946 97.8424Z" fill="#3F3D56"/>
<path d="M52.8653 171.918C52.288 171.363 51.5775 170.965 50.8021 170.764C50.0267 170.562 49.2124 170.563 48.4375 170.767C47.6676 170.978 46.9541 171.357 46.3484 171.877C45.7427 172.396 45.2598 173.044 44.9345 173.772C43.3744 177.093 44.7721 180.963 46.9279 183.675C48.9311 186.195 52.1856 187.855 55.3559 186.533C56.8003 185.914 58.0139 184.858 58.8256 183.513C59.6372 182.168 60.0059 180.603 59.8796 179.037C59.4799 175.35 56.4817 172.364 52.9611 171.464C51.931 171.2 51.4916 172.791 52.5221 173.055C53.7459 173.351 54.8788 173.942 55.8222 174.775C56.7656 175.609 57.491 176.66 57.9353 177.838C58.3251 178.99 58.3419 180.235 57.9834 181.397C57.625 182.559 56.9094 183.579 55.9382 184.312C51.0174 188.088 45.3889 180.868 45.9406 176.143C45.9995 175.446 46.2181 174.772 46.5793 174.173C46.9406 173.574 47.4349 173.066 48.0241 172.688C48.5977 172.351 49.2648 172.207 49.9265 172.279C50.5882 172.35 51.2092 172.633 51.6975 173.085C51.8541 173.231 52.0614 173.311 52.2756 173.307C52.4898 173.304 52.6943 173.217 52.8458 173.066C52.9973 172.914 53.084 172.71 53.0877 172.496C53.0913 172.282 53.0115 172.074 52.8652 171.918L52.8653 171.918Z" fill="#3F3D56"/>
<path d="M153.751 114.642C151.824 113.979 149.587 113.322 147.593 114.098C145.712 114.83 144.676 116.624 144.472 118.57C144.245 120.741 145.169 122.811 146.147 124.69C147.325 126.951 148.539 129.193 149.736 131.443L153.875 139.227C153.969 139.38 154.11 139.497 154.276 139.563C154.443 139.629 154.626 139.639 154.799 139.592C154.972 139.546 155.125 139.444 155.236 139.303C155.347 139.163 155.409 138.99 155.413 138.811C155.18 136.201 155.594 133.574 156.62 131.162C157.679 128.725 159.408 126.666 160.638 124.322C161.769 122.165 162.524 119.689 161.924 117.258C161.439 115.291 160.008 113.377 157.946 112.919C156.903 112.656 155.801 112.772 154.837 113.248C153.873 113.724 153.111 114.528 152.687 115.515C152.298 116.504 153.894 116.933 154.28 115.954C154.829 114.56 156.752 114.133 158.033 114.667C159.703 115.361 160.495 117.356 160.493 119.051C160.49 121.368 159.302 123.486 158.097 125.389C156.879 127.312 155.6 129.171 154.79 131.313C153.898 133.706 153.547 136.267 153.762 138.811L155.301 138.394C152.613 133.34 149.778 128.337 147.241 123.205C146.265 121.232 145.387 118.57 146.883 116.602C148.417 114.584 151.344 115.556 153.312 116.233C154.319 116.579 154.752 114.986 153.751 114.642L153.751 114.642Z" fill="#3F3D56"/>
<path d="M48.6467 176.528L51.0783 181.241C51.1626 181.378 51.2847 181.488 51.4299 181.557C51.5751 181.626 51.7373 181.652 51.8968 181.631C52.0563 181.61 52.2063 181.544 52.3289 181.439C52.4514 181.335 52.5412 181.198 52.5875 181.044C53.2209 177.781 54.7386 174.755 56.9751 172.295C57.6906 171.512 56.5259 170.342 55.8074 171.128C53.3674 173.789 51.7031 177.066 50.9951 180.605L52.5042 180.408L50.0726 175.695C49.5855 174.751 48.16 175.584 48.6467 176.528Z" fill="#3F3D56"/>
<path d="M76.229 154.768L57.0161 171.727C56.9078 171.823 56.7669 171.873 56.6225 171.868C56.4781 171.863 56.3411 171.803 56.2399 171.7C56.1386 171.597 56.0807 171.459 56.0782 171.314C56.0757 171.17 56.1287 171.03 56.2263 170.924L74.1278 151.391L76.229 154.768Z" fill="#3F3D56"/>
<path d="M101.844 361.159H109.395L112.989 332.051H101.844V361.159Z" fill="#FFB6B6"/>
<path d="M97.8555 374.233H103.271L104.238 369.124L106.713 374.233H121.076C121.765 374.234 122.435 374.014 122.99 373.606C123.544 373.198 123.954 372.624 124.159 371.967C124.364 371.31 124.353 370.605 124.129 369.955C123.904 369.304 123.477 368.743 122.911 368.352L111.441 360.435V355.27L99.3767 355.989L97.8555 374.233Z" fill="#2F2E41"/>
<path d="M166.523 361.159H174.075L177.669 332.051H166.523V361.159Z" fill="#FFB6B6"/>
<path d="M162.539 374.233H167.954L168.921 369.124L171.397 374.233H185.76C186.448 374.234 187.119 374.014 187.673 373.606C188.228 373.198 188.638 372.624 188.842 371.967C189.047 371.31 189.037 370.605 188.812 369.955C188.588 369.304 188.161 368.743 187.595 368.352L176.125 360.435V355.27L164.06 355.989L162.539 374.233Z" fill="#2F2E41"/>
<path d="M144.698 206.866L106.399 202.613C106.399 202.613 89.3772 224.727 95.7603 243.865V265.175L100.441 348.481L112.144 349.119L115.548 311.27L118.74 296.173L121.428 238.654L135.123 255.134L136.4 261.513L140.655 264.49L148.528 275.301L164.698 341.677L178.949 341.889C178.949 341.889 171.294 272.996 170.443 272.996C169.592 272.996 148.315 226.641 148.315 226.641V224.188L147.464 219.411C147.464 219.411 149.591 217.71 148.74 216.86C147.889 216.009 147.038 213.458 147.038 213.458L144.698 206.866Z" fill="#2F2E41"/>
<path d="M130.871 147.542L138.531 156.048L149.169 159.875L143.212 194.747L145.188 204.775L148.105 215.798C136.863 222.013 123.508 213.43 111.239 209.618L99.168 214.948L99.8063 200.276L100.134 163.31C100.146 161.89 100.451 160.488 101.028 159.191C101.605 157.893 102.444 156.728 103.49 155.768C104.537 154.808 105.77 154.073 107.113 153.609C108.455 153.145 109.879 152.962 111.296 153.071L119.381 147.117L130.871 147.542Z" fill="#2EAADC"/>
<path d="M61.382 163.139C61.4425 163.77 61.6406 164.38 61.9625 164.926C62.2844 165.472 62.7222 165.941 63.2451 166.3C63.768 166.659 64.3633 166.899 64.989 167.003C65.6147 167.107 66.2556 167.073 66.8666 166.902L75.6483 179.568L78.6339 172.137L69.8369 161.249C69.4826 160.242 68.7711 159.4 67.8372 158.883C66.9032 158.365 65.8118 158.208 64.7696 158.441C63.7274 158.674 62.8069 159.281 62.1826 160.147C61.5582 161.013 61.2734 162.077 61.382 163.139Z" fill="#FFB8B8"/>
<path d="M107.365 153.251C107.365 153.251 95.9346 152.745 97.2145 175.446L92.3519 185.418L82.5716 176.296L82.5273 173.393L74.2563 164.154L67.6172 171.488L72.0365 178.241L72.8883 182.012L75.5798 183.655L82.6025 194.385L85.8511 197.58C85.8511 197.58 89.972 201.684 94.6331 201.066C95.8767 200.904 97.0872 200.549 98.2203 200.012C100.438 198.957 102.628 197.066 104.47 193.864C108.33 187.252 111.79 180.415 114.833 173.39L107.365 153.251Z" fill="#2EAADC"/>
<path d="M157.402 127.621C157.227 128.23 157.189 128.871 157.288 129.497C157.388 130.123 157.624 130.719 157.98 131.244C158.335 131.769 158.802 132.21 159.346 132.535C159.89 132.86 160.5 133.063 161.131 133.127L164.673 148.124L170.169 142.298L165.963 128.95C166.001 127.883 165.647 126.84 164.967 126.017C164.287 125.194 163.328 124.649 162.273 124.485C161.218 124.321 160.139 124.55 159.241 125.128C158.343 125.706 157.689 126.593 157.402 127.621V127.621Z" fill="#FFB8B8"/>
<path d="M133.078 157.851C133.078 157.851 139.122 148.142 157.136 162.03L168.116 163.659L166.116 150.44L163.744 148.762L160.794 136.721L170.601 135.395L173.676 142.855L176.308 145.689L176.142 148.836L181.029 160.691L181.83 165.176C181.83 165.176 182.887 170.893 179.742 174.386C178.906 175.32 177.928 176.116 176.844 176.747C174.72 177.978 171.921 178.715 168.237 178.423C160.597 177.867 152.998 176.855 145.479 175.392L133.078 157.851Z" fill="#2EAADC"/>
<path d="M132.223 143.996C139.366 140.094 141.991 131.144 138.086 124.005C134.182 116.867 125.225 114.243 118.082 118.145C110.939 122.048 108.314 130.998 112.219 138.137C116.123 145.275 125.08 147.899 132.223 143.996Z" fill="#FFB6B6"/>
<path d="M144.548 125.989C144.504 126.005 144.466 126.022 144.422 126.038C144.338 126.075 144.251 126.106 144.163 126.132C143.6 126.336 143.014 126.47 142.418 126.528C142.164 126.555 141.908 126.567 141.653 126.566C141.325 126.566 140.998 126.544 140.673 126.5C140.312 126.455 139.955 126.381 139.605 126.28C139.439 126.235 139.276 126.182 139.115 126.121C138.022 125.729 137.034 125.09 136.23 124.253C135.426 123.416 134.827 122.404 134.48 121.296V121.291C134.443 121.182 134.412 121.072 134.387 120.961C134.225 120.341 134.143 119.703 134.145 119.063V119.052C134.144 117.49 134.635 115.968 135.548 114.7C136.099 113.925 136.733 113.796 136.379 112.907C135.253 110.07 139.897 107.764 142.633 109.018C142.731 109.009 142.831 109.005 142.93 109.007C144.774 109.007 145.451 111.73 146.546 113.265L146.515 113.275C146.236 113.372 145.995 113.553 145.824 113.793C145.654 114.034 145.563 114.322 145.564 114.616C145.565 114.911 145.658 115.198 145.831 115.437C146.003 115.676 146.246 115.856 146.526 115.95C147.257 116.19 147.996 116.403 148.743 116.587C151.199 119.502 148.353 128.003 144.548 125.989Z" fill="#2F2E41"/>
<path d="M143.171 133.784C142.351 136.881 140.842 139.901 138.349 141.909C135.85 143.917 124.108 148.659 123.129 144.572C123.784 147.427 123.382 148.516 122.314 149.534C122.132 149.286 121.94 149.05 121.741 148.818C121.012 147.974 120.135 147.267 119.154 146.734C119.124 148.457 119.244 150.18 119.512 151.883C119.072 152.286 118.653 152.712 118.257 153.159C116.374 147.504 112.234 140.726 115.257 135.588C116.457 133.549 115.461 133.267 114.404 133.03C112.558 132.617 111.558 125.037 111.123 123.194C110.584 120.884 110.374 118.227 111.811 116.334C113.248 114.442 116.87 114.371 117.596 116.632L119.127 114.563C121.108 110.234 126.338 111.114 131.066 111.686C135.795 112.253 139.962 115.586 142.081 119.85C144.195 124.113 144.387 129.179 143.171 133.784Z" fill="#2F2E41"/>
<path d="M135.765 113.963C135.658 116.576 136.322 119.163 137.674 121.403C139.026 123.642 141.008 125.435 143.371 126.559C144.331 126.996 145.171 125.574 144.205 125.134C142.093 124.154 140.32 122.568 139.111 120.579C137.903 118.59 137.313 116.287 137.416 113.963C137.474 112.901 135.823 112.905 135.765 113.963Z" fill="#FF6584"/>
<path d="M70.9524 364.317C70.6586 364.331 70.3678 364.254 70.1193 364.097C69.8708 363.939 69.6767 363.71 69.5632 363.438C69.4498 363.167 69.4225 362.868 69.485 362.581C69.5476 362.293 69.6969 362.032 69.9129 361.833L70.0112 361.442C69.9982 361.411 69.9852 361.38 69.9721 361.349C68.6517 358.202 60.2257 366.974 59.8614 369.931C59.701 371.238 59.7687 372.563 60.0615 373.847C57.3321 367.898 55.9149 361.431 55.9058 354.886C55.9052 353.243 55.9965 351.602 56.1793 349.97C56.3303 348.632 56.5399 347.303 56.808 345.984C58.2708 338.827 61.4116 332.119 65.9725 326.41C68.5808 326.556 70.8667 326.158 71.0874 321.107C71.1267 320.208 71.7937 319.43 71.9406 318.545C71.6916 318.577 71.4385 318.598 71.1895 318.614C71.1119 318.618 71.0303 318.622 70.9527 318.626L70.9235 318.627C70.6498 318.64 70.3784 318.573 70.142 318.434C69.9055 318.296 69.7141 318.092 69.5908 317.848C69.4675 317.604 69.4175 317.329 69.4469 317.056C69.4763 316.784 69.5837 316.526 69.7564 316.314C69.8639 316.182 69.9715 316.049 70.0791 315.917C70.2424 315.713 70.4098 315.513 70.5731 315.309C70.5919 315.29 70.6096 315.27 70.6261 315.248C70.8139 315.016 71.0017 314.787 71.1895 314.555C70.8467 314.023 70.3857 313.578 69.8424 313.253C67.9605 312.152 65.3642 312.915 64.0048 314.616C62.6414 316.317 62.3842 318.704 62.8577 320.829C63.3234 322.638 64.0937 324.354 65.1356 325.904C65.0335 326.035 64.9274 326.161 64.8254 326.292C62.9598 328.689 61.3338 331.263 59.9707 333.978C60.3564 330.967 55.6405 320.095 53.8167 317.793C51.6261 315.026 47.1341 316.234 46.7481 319.74C46.7444 319.774 46.7407 319.808 46.7372 319.842C47.0081 319.995 47.2732 320.157 47.5327 320.328C47.8586 320.546 48.1112 320.857 48.2572 321.22C48.4033 321.584 48.4361 321.983 48.3513 322.365C48.2665 322.748 48.0681 323.096 47.782 323.364C47.496 323.631 47.1357 323.807 46.7483 323.866L46.7086 323.872C43.0826 329.046 54.7066 342.513 57.6162 339.489C56.2467 343.368 55.3877 347.408 55.0607 351.508C54.8756 353.926 54.8866 356.356 55.0934 358.773L55.0812 358.688C54.4347 353.423 43.344 345.596 40.1053 346.248C38.2396 346.624 36.402 346.538 36.6853 348.419C36.6898 348.449 36.6944 348.479 36.6991 348.509C37.2018 348.714 37.6912 348.949 38.1646 349.215C38.4355 349.368 38.7006 349.53 38.9601 349.701C39.286 349.919 39.5385 350.23 39.6846 350.593C39.8307 350.957 39.8635 351.356 39.7787 351.738C39.6939 352.121 39.4955 352.469 39.2094 352.737C38.9234 353.004 38.5631 353.18 38.1757 353.239L38.1359 353.245C38.1074 353.25 38.0829 353.254 38.0543 353.258C36.4038 358.933 48.644 368.093 56.0854 365.178H56.0895C56.8269 368.381 57.8954 371.498 59.2777 374.48H70.6669C70.7078 374.353 70.7445 374.223 70.7813 374.096C69.7271 374.163 68.6687 374.099 67.6298 373.909C68.4748 372.872 69.3198 371.828 70.1648 370.792C70.1837 370.772 70.2014 370.752 70.2179 370.731C70.6465 370.2 71.0792 369.674 71.5079 369.144L71.5081 369.143C71.531 367.517 71.3443 365.896 70.9527 364.318L70.9524 364.317ZM57.9101 338.677L57.9161 338.669L57.9101 338.685V338.677ZM55.3873 361.405L55.2894 361.184C55.2935 361.025 55.2935 360.866 55.2894 360.703C55.2894 360.658 55.2812 360.613 55.2812 360.568C55.3179 360.85 55.3506 361.131 55.3914 361.413L55.3873 361.405Z" fill="#2EAADC"/>
<path d="M197.546 374.207H36.7461V375.307H197.546V374.207Z" fill="#CCCCCC"/>
<path d="M410.036 74.4253L410.023 74.4371C408.768 73.162 407.071 72.418 405.283 72.3592C403.495 72.3005 401.752 72.9314 400.417 74.1213C399.081 75.3113 398.255 76.9691 398.109 78.7512C397.963 80.5333 398.509 82.3033 399.633 83.6943L399.62 83.7061L408.907 94.1155L419.323 84.8347C420.008 84.2255 420.566 83.4875 420.965 82.6627C421.364 81.838 421.597 80.9427 421.65 80.028C421.703 79.1133 421.575 78.1971 421.273 77.3319C420.971 76.4667 420.502 75.6693 419.892 74.9855C419.282 74.3016 418.543 73.7446 417.717 73.3463C416.892 72.948 415.995 72.7162 415.08 72.6641C414.165 72.6121 413.248 72.7409 412.383 73.0431C411.517 73.3453 410.72 73.8149 410.036 74.4253L410.036 74.4253Z" fill="#2EAADC"/>
</g>
<defs>
<clipPath id="clip0_138_4633">
<rect width="476" height="375.308" fill="white"/>
</clipPath>
</defs>
</svg>
