<svg width="276" height="55" viewBox="0 0 276 55" fill="none" xmlns="http://www.w3.org/2000/svg">
<path d="M3.32019 4.46073C3.84095 3.87493 4.45935 3.58203 5.17538 3.58203C5.89142 3.58203 6.50982 3.87493 7.03057 4.46073C7.55133 5.04653 7.77916 5.7625 7.77916 6.60866V17.3158C7.77916 18.0643 7.84425 18.9104 8.00699 19.7891C8.16972 20.7004 8.46265 21.514 8.91831 22.2625C9.37397 23.011 9.99236 23.6619 10.7735 24.1826C11.5546 24.7033 12.5636 24.9637 13.8329 24.9637H26.4612C25.8754 23.7921 25.4523 22.5229 25.1593 21.2211C24.8664 19.8868 24.7362 18.585 24.7362 17.2832V6.60866C24.7362 5.7625 24.9966 5.04653 25.4848 4.46073C26.0056 3.87493 26.624 3.58203 27.34 3.58203C28.056 3.58203 28.6744 3.87493 29.1952 4.46073C29.7159 5.04653 29.9438 5.7625 29.9438 6.60866V17.3158C29.9438 18.0643 30.0414 18.8779 30.2042 19.7566C30.3669 20.6353 30.6598 21.4814 31.0829 22.23C31.506 23.011 32.0919 23.6619 32.8079 24.1826C33.5565 24.7033 34.5004 24.9637 35.6721 24.9637H40.8471C42.0839 24.9637 43.0928 24.7033 43.9065 24.1826C44.7202 23.6619 45.3386 23.011 45.7943 22.2625C46.2499 21.514 46.5428 20.6678 46.7056 19.7891C46.8683 18.8779 46.966 18.0643 46.966 17.3158V6.60866C46.966 5.7625 47.2263 5.04653 47.7145 4.46073C48.2353 3.87493 48.8537 3.58203 49.5697 3.58203C50.2858 3.58203 50.9042 3.87493 51.4249 4.46073C51.9457 5.04653 52.1735 5.7625 52.1735 6.60866V17.3158C52.1735 18.9104 51.9457 20.5051 51.49 22.1323C51.0343 23.7595 50.3834 25.224 49.5046 26.5258C48.6259 27.8601 47.5843 28.9341 46.3475 29.7803C45.1108 30.6264 43.7112 31.0495 42.149 31.0495H12.0103C10.5131 31.0495 9.21123 30.6264 8.03953 29.7803C6.86784 28.9341 5.89142 27.8601 5.07774 26.5258C4.26406 25.1915 3.64567 23.727 3.19001 22.0998C2.76689 20.4726 2.53906 18.8779 2.53906 17.3158V6.60866C2.53906 5.7625 2.79944 5.04653 3.32019 4.46073Z" fill="white"/>
<path d="M109.685 17.2819C109.685 18.8766 109.425 20.4713 108.904 22.0985C108.383 23.7257 107.602 25.1902 106.593 26.492C105.584 27.8263 104.38 28.9003 102.948 29.7464C101.516 30.5926 99.9208 31.0157 98.0982 31.0157H69.4241C67.6991 30.918 66.1694 30.4624 64.835 29.6162C63.5005 28.7701 62.3614 27.6636 61.4175 26.3943C60.4737 25.0926 59.7576 23.6606 59.2369 22.0659C58.7487 20.4713 58.4883 18.9091 58.4883 17.347C58.4883 15.7523 58.7487 14.1577 59.2694 12.5304C59.7902 10.9032 60.5713 9.43872 61.5803 8.13695C62.5892 6.80263 63.7935 5.72867 65.2255 4.88251C66.6576 4.03636 68.2524 3.61328 70.0751 3.61328H98.7491C100.474 3.71091 102.004 4.16654 103.338 5.04523C104.673 5.89139 105.812 6.9979 106.756 8.26713C107.7 9.5689 108.416 11.0009 108.936 12.5955C109.425 14.1577 109.685 15.7523 109.685 17.2819ZM100.311 24.1813C101.223 23.6606 101.939 23.0097 102.492 22.2612C103.013 21.5127 103.371 20.6665 103.566 19.7878C103.761 18.8766 103.859 18.063 103.859 17.3145C103.859 16.5659 103.761 15.7198 103.566 14.8411C103.371 13.9298 103.013 13.1162 102.492 12.3677C101.971 11.6192 101.255 10.9683 100.311 10.4476C99.4001 9.92689 98.1958 9.66654 96.7963 9.66654H71.377C69.9123 9.66654 68.7081 9.92689 67.8293 10.4476C66.918 10.9683 66.202 11.6192 65.6812 12.3677C65.1605 13.1162 64.8024 13.9624 64.6072 14.8411C64.4119 15.7523 64.3142 16.5659 64.3142 17.3145C64.3142 18.063 64.4119 18.9091 64.6072 19.7878C64.8024 20.6991 65.1605 21.5127 65.6812 22.2612C66.202 23.0097 66.918 23.6606 67.8293 24.1813C68.7406 24.702 69.9123 24.9624 71.377 24.9624H96.7963C98.1958 24.9624 99.3675 24.702 100.311 24.1813Z" fill="white"/>
<path d="M132.564 17.2832C132.564 16.437 132.857 15.7211 133.443 15.1353C134.029 14.5495 134.745 14.2566 135.591 14.2566H159.676C160.717 14.2566 161.726 14.4518 162.637 14.8424C163.549 15.2329 164.362 15.7861 165.046 16.4696C165.729 17.153 166.283 17.9666 166.641 18.9104C167.031 19.8542 167.194 20.8631 167.194 21.9045V23.3039C167.194 24.3453 166.999 25.3542 166.641 26.298C166.25 27.2418 165.729 28.0554 165.046 28.7388C164.362 29.4222 163.549 29.9755 162.637 30.366C161.726 30.7566 160.717 30.9518 159.676 30.9518H126.901C125.176 30.9518 123.646 30.5287 122.312 29.6826C120.977 28.8364 119.838 27.7625 118.894 26.4282C117.95 25.0938 117.234 23.6293 116.713 22.0021C116.225 20.3749 115.965 18.7802 115.965 17.2181C115.965 15.6234 116.225 14.0288 116.746 12.4015C117.267 10.7743 118.048 9.30982 119.057 8.00804C120.066 6.67372 121.27 5.59976 122.702 4.75361C124.134 3.90745 125.729 3.48438 127.552 3.48438H164.232C165.079 3.48438 165.795 3.77727 166.38 4.36307C166.966 4.94887 167.259 5.66485 167.259 6.511C167.259 7.35716 166.966 8.07313 166.38 8.65893C165.795 9.24473 165.079 9.53763 164.232 9.53763H128.919C127.454 9.53763 126.282 9.79798 125.371 10.3187C124.46 10.8394 123.744 11.4903 123.223 12.2388C122.702 12.9873 122.344 13.8335 122.149 14.7122C121.954 15.6234 121.856 16.437 121.856 17.1856C121.856 17.9341 121.954 18.7802 122.149 19.6589C122.344 20.5702 122.702 21.3838 123.223 22.1323C123.744 22.8808 124.46 23.5317 125.371 24.0524C126.282 24.5731 127.454 24.8335 128.919 24.8335H159.415C159.904 24.8335 160.359 24.6057 160.782 24.15C161.173 23.6944 161.368 23.1412 161.368 22.5228C161.368 21.9045 161.205 21.3512 160.847 20.8956C160.489 20.44 160.034 20.2122 159.448 20.2122H135.591C134.745 20.2122 134.029 19.9193 133.443 19.3335C132.857 18.8453 132.564 18.1293 132.564 17.2832Z" fill="white"/>
<path d="M222.722 27.989C222.722 28.8352 222.429 29.5512 221.843 30.137C221.257 30.7227 220.541 31.0157 219.695 31.0157C219.272 31.0157 218.914 30.918 218.556 30.7553C218.23 30.5926 217.905 30.3648 217.612 30.137C217.351 29.8766 217.189 29.6813 217.059 29.5186C215.334 27.3707 213.576 25.7109 211.753 24.4742C209.931 23.2701 208.01 22.3263 205.993 21.708C203.975 21.0896 201.859 20.6991 199.613 20.5364C197.367 20.4062 194.959 20.3085 192.42 20.3085H179.597V27.989C179.597 28.8352 179.304 29.5512 178.685 30.137C178.067 30.7227 177.384 31.0157 176.57 31.0157C175.724 31.0157 175.008 30.7227 174.422 30.137C173.836 29.5512 173.543 28.8352 173.543 27.989V11.8145C173.543 10.5452 173.771 9.43872 174.226 8.42985C174.682 7.42097 175.268 6.57482 175.984 5.85884C176.7 5.14287 177.514 4.58961 178.425 4.19908C179.336 3.80855 180.28 3.61328 181.192 3.61328H214.032C215.203 3.61328 216.31 3.84109 217.351 4.26417C218.393 4.71979 219.337 5.30559 220.118 6.05411C220.899 6.80263 221.55 7.68133 222.006 8.6902C222.461 9.69908 222.689 10.8056 222.689 11.9772C222.689 12.8233 222.396 13.5393 221.81 14.1251C221.225 14.7109 220.509 15.0038 219.662 15.0038C218.816 15.0038 218.1 14.7109 217.514 14.1251C216.928 13.5393 216.635 12.8233 216.635 11.9772C216.635 11.3588 216.408 10.8381 215.984 10.4151C215.529 9.99198 215.041 9.73163 214.455 9.66654H181.517C180.964 9.66654 180.541 9.79671 180.183 10.0896C179.857 10.35 179.629 10.6754 179.564 11.0659V14.3529H192.388C196.066 14.3529 199.418 14.5482 202.38 14.9713C205.342 15.3943 208.043 16.0778 210.451 17.0216C212.86 17.9654 215.008 19.202 216.928 20.7316C218.849 22.2612 220.541 24.1488 222.071 26.3618C222.494 26.8174 222.722 27.4032 222.722 27.989Z" fill="white"/>
<path d="M234.339 29.8776C233.721 30.6261 232.939 31.0166 231.996 31.0166C231.149 31.0166 230.433 30.7237 229.848 30.1379C229.262 29.5521 228.969 28.8362 228.969 27.99C228.969 27.2415 229.164 26.6232 229.587 26.1675L244.884 5.59948C245.6 4.62315 246.544 3.84209 247.716 3.22374C248.888 2.6054 250.157 2.3125 251.491 2.3125C252.761 2.3125 253.932 2.57286 255.072 3.12611C256.211 3.67936 257.122 4.42788 257.838 5.40422L273.135 25.8421C273.396 26.135 273.591 26.4604 273.754 26.8184C273.916 27.1764 274.014 27.5669 274.014 27.99C274.014 28.8362 273.721 29.5521 273.135 30.1379C272.549 30.7237 271.833 31.0166 270.987 31.0166C269.978 31.0166 269.197 30.6261 268.611 29.8125L253.965 10.2533C253.672 9.92789 253.314 9.53735 252.858 9.14682C252.435 8.75629 251.98 8.56102 251.491 8.56102C251.036 8.56102 250.58 8.75629 250.124 9.14682C249.669 9.53735 249.343 9.92789 249.083 10.2533L234.339 29.8776ZM247.618 24.2149C247.618 23.1409 248.009 22.1971 248.757 21.4486C249.506 20.7001 250.417 20.3095 251.524 20.3095C252.598 20.3095 253.542 20.7001 254.29 21.4486C255.039 22.1971 255.43 23.1409 255.43 24.2149C255.43 25.3214 255.039 26.2326 254.29 26.9811C253.542 27.7297 252.598 28.1202 251.524 28.1202C250.417 28.1202 249.506 27.7297 248.757 26.9811C248.009 26.2326 247.618 25.2888 247.618 24.2149Z" fill="white"/>
<path d="M122.834 45.7908H117.887C117.919 46.4742 118.147 46.9949 118.57 47.3854C118.993 47.776 119.514 47.9712 120.165 47.9712C121.076 47.9712 121.922 47.6783 122.703 47.1251V48.492C122.28 48.7849 121.857 48.9801 121.434 49.1103C121.011 49.2405 120.523 49.3056 119.97 49.3056C119.188 49.3056 118.57 49.1428 118.082 48.8174C117.594 48.492 117.236 48.0689 116.943 47.5156C116.65 46.9624 116.52 46.344 116.52 45.628C116.52 44.5541 116.812 43.7079 117.431 43.0245C118.049 42.3411 118.83 42.0156 119.774 42.0156C120.718 42.0156 121.434 42.3411 121.987 42.992C122.541 43.6428 122.834 44.5215 122.834 45.5955V45.7908ZM117.919 44.9446H121.467C121.434 44.3914 121.271 43.9683 120.978 43.6754C120.686 43.3825 120.295 43.2198 119.774 43.2198C119.253 43.2198 118.863 43.3825 118.537 43.6754C118.212 43.9683 118.017 44.3914 117.919 44.9446Z" fill="white"/>
<path d="M130.385 44.0659V49.1754H128.985V45.2701C128.985 44.489 128.887 43.9357 128.66 43.6428C128.432 43.3499 128.074 43.1872 127.553 43.1872C127.26 43.1872 127 43.2523 126.772 43.3825C126.544 43.5127 126.251 43.7405 125.958 44.0985V49.2079H124.559V42.1783H125.958V43.0896C126.674 42.3736 127.358 42.0156 128.041 42.0156C128.92 42.0156 129.636 42.4387 130.124 43.2849C130.873 42.4387 131.654 42.0156 132.435 42.0156C133.119 42.0156 133.672 42.276 134.127 42.7641C134.583 43.2523 134.778 44.0334 134.778 45.0422V49.1754H133.379V45.0097C133.379 44.4239 133.249 43.9683 133.021 43.6754C132.793 43.3825 132.435 43.2198 131.979 43.2198C131.426 43.1872 130.905 43.4801 130.385 44.0659Z" fill="white"/>
<path d="M136.926 52.754V42.1445H139.367C140.604 42.1445 141.58 42.47 142.264 43.0883C142.947 43.7067 143.305 44.5854 143.305 45.6919C143.305 46.7333 142.98 47.612 142.329 48.2954C141.678 48.9788 140.831 49.3043 139.822 49.3043C139.367 49.3043 138.879 49.2067 138.325 49.0114V52.754H136.926ZM139.302 43.4463H138.325V47.7747C138.748 48.0025 139.204 48.1002 139.66 48.1002C140.311 48.1002 140.831 47.8723 141.255 47.4167C141.678 46.9611 141.873 46.3753 141.873 45.6593C141.873 45.2037 141.775 44.8132 141.58 44.4552C141.385 44.0972 141.124 43.8368 140.766 43.6741C140.408 43.5114 139.953 43.4463 139.302 43.4463Z" fill="white"/>
<path d="M148.481 42.1445C149.555 42.1445 150.434 42.5025 151.15 43.186C151.866 43.8694 152.224 44.7481 152.224 45.7895C152.224 46.7984 151.866 47.6445 151.15 48.2954C150.434 48.9463 149.523 49.3043 148.449 49.3043C147.407 49.3043 146.528 48.9788 145.812 48.2954C145.096 47.612 144.738 46.7658 144.738 45.757C144.738 44.7155 145.096 43.8694 145.812 43.186C146.528 42.5025 147.407 42.1445 148.481 42.1445ZM148.416 43.3812C147.765 43.3812 147.212 43.609 146.789 44.0321C146.366 44.4552 146.138 45.041 146.138 45.6919C146.138 46.3753 146.366 46.896 146.789 47.3516C147.212 47.8073 147.798 48.0025 148.481 48.0025C149.165 48.0025 149.718 47.7747 150.141 47.3516C150.564 46.9286 150.792 46.3753 150.792 45.6919C150.792 45.041 150.564 44.4877 150.109 44.0321C149.653 43.5765 149.1 43.3812 148.416 43.3812Z" fill="white"/>
<path d="M162.67 42.1445H164.168L161.076 49.2717H160.62L158.537 44.3901L156.486 49.2717H156.031L152.906 42.1445H154.403L156.226 46.4078L158.016 42.1445H159.058L160.815 46.4078L162.67 42.1445Z" fill="white"/>
<path d="M171.134 45.7908H166.187C166.22 46.4742 166.448 46.9949 166.871 47.3854C167.294 47.776 167.815 47.9712 168.466 47.9712C169.377 47.9712 170.223 47.6783 171.004 47.1251V48.492C170.581 48.7849 170.158 48.9801 169.735 49.1103C169.312 49.2405 168.824 49.3056 168.27 49.3056C167.489 49.3056 166.871 49.1428 166.383 48.8174C165.894 48.492 165.536 48.0689 165.243 47.5156C164.951 46.9624 164.82 46.344 164.82 45.628C164.82 44.5541 165.113 43.7079 165.732 43.0245C166.35 42.3411 167.131 42.0156 168.075 42.0156C169.019 42.0156 169.735 42.3411 170.288 42.992C170.842 43.6428 171.134 44.5215 171.134 45.5955V45.7908ZM166.22 44.9446H169.767C169.735 44.3914 169.572 43.9683 169.279 43.6754C168.986 43.3825 168.596 43.2198 168.075 43.2198C167.554 43.2198 167.164 43.3825 166.838 43.6754C166.513 43.9683 166.317 44.3914 166.22 44.9446Z" fill="white"/>
<path d="M174.42 42.1432V43.7379L174.485 43.6077C175.169 42.5337 175.82 41.9805 176.503 41.9805C177.024 41.9805 177.577 42.2408 178.131 42.7615L177.382 43.9982C176.894 43.5426 176.438 43.3148 176.048 43.3148C175.592 43.3148 175.201 43.5426 174.876 43.9657C174.551 44.3888 174.388 44.9095 174.388 45.4953V49.1728H172.988V42.1432H174.42Z" fill="white"/>
<path d="M180.15 39.1836C180.377 39.1836 180.573 39.2487 180.735 39.4114C180.898 39.5741 180.996 39.7694 180.996 39.9972C180.996 40.225 180.898 40.4203 180.735 40.583C180.573 40.7457 180.377 40.8434 180.15 40.8434C179.922 40.8434 179.759 40.7457 179.596 40.583C179.434 40.4203 179.336 40.225 179.336 39.9972C179.336 39.7694 179.434 39.6067 179.596 39.4439C179.759 39.2812 179.954 39.1836 180.15 39.1836ZM179.466 42.1451H180.866V49.1747H179.466V42.1451Z" fill="white"/>
<path d="M184.577 42.1432V43.0219C185.195 42.3385 185.911 41.9805 186.692 41.9805C187.115 41.9805 187.538 42.0781 187.929 42.3059C188.32 42.5337 188.58 42.8266 188.775 43.2497C188.97 43.6728 189.068 44.2586 189.068 45.1373V49.1402H187.669V45.1373C187.669 44.4213 187.571 43.9006 187.343 43.6077C187.115 43.3148 186.757 43.1521 186.237 43.1521C185.586 43.1521 185.032 43.4775 184.577 44.1284V49.1402H183.145V42.1106H184.577V42.1432Z" fill="white"/>
<path d="M190.956 44.5841C190.956 43.8355 191.216 43.2497 191.769 42.8267C192.323 42.4036 193.071 42.1758 194.015 42.1758H196.912V43.2497H195.48C195.74 43.5426 195.935 43.7705 196.066 43.9983C196.196 44.2261 196.228 44.4864 196.228 44.7793C196.228 45.1373 196.131 45.4953 195.903 45.8533C195.675 46.2113 195.415 46.4716 195.089 46.6669C194.764 46.8622 194.21 46.9923 193.462 47.1225C192.941 47.1876 192.681 47.3829 192.681 47.6758C192.681 47.8385 192.778 47.9687 192.974 48.0663C193.169 48.1639 193.527 48.2941 194.048 48.3918C194.894 48.587 195.447 48.7172 195.707 48.8474C195.968 48.9776 196.163 49.1077 196.391 49.303C196.716 49.6284 196.879 50.0515 196.879 50.5722C196.879 51.2231 196.586 51.7764 196 52.1669C195.415 52.5574 194.601 52.7527 193.624 52.7527C192.616 52.7527 191.834 52.5574 191.216 52.1669C190.598 51.7764 190.305 51.2231 190.305 50.5722C190.305 49.6284 190.891 49.0101 192.062 48.7497C191.607 48.4568 191.346 48.1639 191.346 47.871C191.346 47.6432 191.444 47.448 191.639 47.2527C191.834 47.0574 192.095 46.9273 192.453 46.8622C191.444 46.3415 190.956 45.5929 190.956 44.5841ZM193.234 49.4983C192.778 49.4983 192.388 49.5959 192.095 49.7912C191.802 49.9864 191.639 50.2468 191.639 50.5397C191.639 51.2557 192.29 51.6137 193.592 51.6137C194.21 51.6137 194.699 51.516 195.024 51.3533C195.349 51.1906 195.545 50.9302 195.545 50.5722C195.545 50.2468 195.317 49.9864 194.894 49.7912C194.471 49.5959 193.885 49.4983 193.234 49.4983ZM193.559 43.3474C193.169 43.3474 192.876 43.4776 192.583 43.7379C192.29 43.9983 192.192 44.2912 192.192 44.6492C192.192 45.0071 192.323 45.3 192.583 45.5604C192.843 45.8207 193.169 45.9184 193.559 45.9184C193.95 45.9184 194.275 45.7882 194.536 45.5604C194.796 45.3326 194.926 45.0071 194.926 44.6492C194.926 44.2912 194.796 43.9657 194.536 43.7379C194.275 43.5101 193.95 43.3474 193.559 43.3474Z" fill="white"/>
<path d="M207.391 49.1728V48.2616C207.098 48.587 206.773 48.8474 206.382 49.0101C205.992 49.1728 205.634 49.2704 205.243 49.2704C204.787 49.2704 204.397 49.1728 204.006 48.945C203.616 48.7172 203.355 48.4243 203.16 48.0337C202.965 47.6432 202.867 47.0249 202.867 46.1462V42.1107H204.267V46.1136C204.267 46.8621 204.364 47.3503 204.592 47.6432C204.787 47.9361 205.178 48.0663 205.699 48.0663C206.35 48.0663 206.936 47.7408 207.391 47.09V42.0781H208.791V49.1077H207.391V49.1728Z" fill="white"/>
<path d="M212.436 42.1432V43.0219C213.054 42.3385 213.77 41.9805 214.552 41.9805C214.975 41.9805 215.398 42.0781 215.788 42.3059C216.179 42.5337 216.439 42.8266 216.635 43.2497C216.83 43.6728 216.927 44.2586 216.927 45.1373V49.1402H215.528V45.1373C215.528 44.4213 215.43 43.9006 215.202 43.6077C214.975 43.3148 214.617 43.1521 214.096 43.1521C213.445 43.1521 212.892 43.4775 212.436 44.1284V49.1402H211.004V42.1106H212.436V42.1432Z" fill="white"/>
<path d="M219.888 39.1836C220.116 39.1836 220.311 39.2487 220.474 39.4114C220.637 39.5741 220.734 39.7694 220.734 39.9972C220.734 40.225 220.637 40.4203 220.474 40.583C220.311 40.7457 220.116 40.8434 219.888 40.8434C219.66 40.8434 219.497 40.7457 219.335 40.583C219.172 40.4203 219.074 40.225 219.074 39.9972C219.074 39.7694 219.172 39.6067 219.335 39.4439C219.497 39.2812 219.693 39.1836 219.888 39.1836ZM219.204 42.1451H220.604V49.1747H219.204V42.1451Z" fill="white"/>
<path d="M226.235 42.1445H228.871V52.754H227.472V49.0439C226.854 49.2067 226.365 49.3043 225.942 49.3043C224.933 49.3043 224.12 48.9788 223.469 48.2954C222.818 47.612 222.492 46.7658 222.492 45.7244C222.492 44.6179 222.818 43.7718 223.501 43.1209C224.185 42.47 225.096 42.1445 226.235 42.1445ZM227.472 47.8398V43.4463H226.593C226.007 43.4463 225.584 43.4788 225.389 43.5114C225.194 43.5765 224.998 43.6416 224.868 43.7392C224.705 43.8368 224.575 43.9345 224.478 44.0972C224.087 44.5203 223.892 45.0735 223.892 45.6919C223.892 46.4078 224.12 46.9936 224.543 47.4493C224.966 47.9049 225.519 48.1327 226.203 48.1327C226.365 48.1327 226.496 48.1327 226.593 48.1002C226.691 48.0676 226.919 48.0025 227.277 47.9049L227.374 47.8723L227.472 47.8398Z" fill="white"/>
<path d="M235.512 49.1728V48.2616C235.219 48.587 234.894 48.8474 234.503 49.0101C234.113 49.1728 233.755 49.2704 233.364 49.2704C232.909 49.2704 232.518 49.1728 232.127 48.945C231.737 48.7172 231.476 48.4243 231.281 48.0337C231.086 47.6432 230.988 47.0249 230.988 46.1462V42.1107H232.388V46.1136C232.388 46.8621 232.485 47.3503 232.713 47.6432C232.909 47.9361 233.299 48.0663 233.82 48.0663C234.471 48.0663 235.057 47.7408 235.512 47.09V42.0781H236.912V49.1077H235.512V49.1728Z" fill="white"/>
<path d="M245.146 45.7908H240.199C240.232 46.4742 240.459 46.9949 240.882 47.3854C241.306 47.776 241.826 47.9712 242.477 47.9712C243.389 47.9712 244.235 47.6783 245.016 47.1251V48.492C244.593 48.7849 244.17 48.9801 243.747 49.1103C243.324 49.2405 242.835 49.3056 242.282 49.3056C241.501 49.3056 240.882 49.1428 240.394 48.8174C239.906 48.492 239.548 48.0689 239.255 47.5156C238.962 46.9624 238.832 46.344 238.832 45.628C238.832 44.5541 239.125 43.7079 239.743 43.0245C240.362 42.3411 241.143 42.0156 242.087 42.0156C243.031 42.0156 243.747 42.3411 244.3 42.992C244.853 43.6428 245.146 44.5215 245.146 45.5955V45.7908ZM240.232 44.9446H243.779C243.747 44.3914 243.584 43.9683 243.291 43.6754C242.998 43.3825 242.607 43.2198 242.087 43.2198C241.566 43.2198 241.175 43.3825 240.85 43.6754C240.524 43.9683 240.329 44.3914 240.232 44.9446Z" fill="white"/>
<path d="M248.334 42.1432V43.0219C248.953 42.3385 249.669 41.9805 250.45 41.9805C250.873 41.9805 251.296 42.0781 251.687 42.3059C252.077 42.5337 252.338 42.8266 252.533 43.2497C252.728 43.6728 252.826 44.2586 252.826 45.1373V49.1402H251.426V45.1373C251.426 44.4213 251.329 43.9006 251.101 43.6077C250.873 43.3148 250.515 43.1521 249.994 43.1521C249.343 43.1521 248.79 43.4775 248.334 44.1284V49.1402H246.902V42.1106H248.334V42.1432Z" fill="white"/>
<path d="M261.063 45.7908H256.148C256.181 46.4742 256.409 46.9949 256.832 47.3854C257.255 47.776 257.776 47.9712 258.427 47.9712C259.338 47.9712 260.184 47.6783 260.965 47.1251V48.492C260.542 48.7849 260.119 48.9801 259.696 49.1103C259.273 49.2405 258.785 49.3056 258.231 49.3056C257.45 49.3056 256.832 49.1428 256.344 48.8174C255.855 48.492 255.497 48.0689 255.204 47.5156C254.911 46.9624 254.781 46.344 254.781 45.628C254.781 44.5541 255.074 43.7079 255.693 43.0245C256.311 42.3411 257.092 42.0156 258.036 42.0156C258.98 42.0156 259.696 42.3411 260.249 42.992C260.802 43.6428 261.095 44.5215 261.095 45.5955V45.7908H261.063ZM256.148 44.9446H259.696C259.663 44.3914 259.501 43.9683 259.208 43.6754C258.915 43.3825 258.524 43.2198 258.003 43.2198C257.483 43.2198 257.092 43.3825 256.767 43.6754C256.441 43.9683 256.246 44.3914 256.148 44.9446Z" fill="white"/>
<path d="M262.527 48.6534V47.1563C262.918 47.4167 263.308 47.6445 263.732 47.8398C264.155 48.035 264.48 48.1001 264.773 48.1001C265.066 48.1001 265.326 48.035 265.522 47.8723C265.717 47.7096 265.847 47.5469 265.847 47.3516C265.847 47.1563 265.782 46.9936 265.652 46.8309C265.522 46.6682 265.229 46.5054 264.773 46.2451C263.862 45.7569 263.276 45.3338 263.016 44.9758C262.755 44.6179 262.592 44.2273 262.592 43.8043C262.592 43.251 262.788 42.8279 263.211 42.4699C263.634 42.1119 264.155 41.9492 264.838 41.9492C265.522 41.9492 266.238 42.1445 266.954 42.535V43.9019C266.14 43.4137 265.457 43.1534 264.936 43.1534C264.675 43.1534 264.448 43.2185 264.285 43.3161C264.122 43.4463 264.025 43.5764 264.025 43.7717C264.025 43.9344 264.09 44.0971 264.252 44.2273C264.415 44.39 264.675 44.5528 265.033 44.748L265.522 45.0409C266.693 45.6918 267.279 46.4404 267.279 47.2214C267.279 47.8072 267.051 48.2628 266.596 48.6208C266.14 48.9788 265.554 49.1741 264.871 49.1741C264.448 49.1741 264.09 49.1415 263.764 49.0439C263.439 48.9463 263.048 48.9137 262.527 48.6534Z" fill="white"/>
<path d="M268.871 48.6534V47.1563C269.262 47.4167 269.652 47.6445 270.075 47.8398C270.498 48.035 270.824 48.1001 271.117 48.1001C271.41 48.1001 271.67 48.035 271.865 47.8723C272.061 47.7096 272.191 47.5469 272.191 47.3516C272.191 47.1563 272.126 46.9936 271.996 46.8309C271.865 46.6682 271.573 46.5054 271.117 46.2451C270.206 45.7569 269.62 45.3338 269.359 44.9758C269.099 44.6179 268.936 44.2273 268.936 43.8043C268.936 43.251 269.131 42.8279 269.555 42.4699C269.978 42.1119 270.498 41.9492 271.182 41.9492C271.865 41.9492 272.581 42.1445 273.298 42.535V43.9019C272.484 43.4137 271.8 43.1534 271.28 43.1534C271.019 43.1534 270.791 43.2185 270.629 43.3161C270.466 43.4463 270.368 43.5764 270.368 43.7717C270.368 43.9344 270.433 44.0971 270.596 44.2273C270.759 44.39 271.019 44.5528 271.377 44.748L271.865 45.0409C273.037 45.6918 273.623 46.4404 273.623 47.2214C273.623 47.8072 273.395 48.2628 272.939 48.6208C272.484 48.9788 271.898 49.1741 271.214 49.1741C270.791 49.1741 270.433 49.1415 270.108 49.0439C269.782 48.9463 269.359 48.9137 268.871 48.6534Z" fill="white"/>
</svg>
